<svg width="22" height="21" viewBox="0 0 22 21" fill="none" xmlns="http://www.w3.org/2000/svg">
<path d="M22 0H0V6.63158H1.1V18.7895C1.1 19.3757 1.33178 19.938 1.74436 20.3526C2.15694 20.7671 2.71652 21 3.3 21H18.7C19.2835 21 19.8431 20.7671 20.2556 20.3526C20.6682 19.938 20.9 19.3757 20.9 18.7895V6.63158H22V0ZM2.2 2.21053H19.8V4.42105H2.2V2.21053ZM18.7 18.7895H3.3V6.63158H18.7V18.7895ZM7.7 8.8421H14.3C14.3 9.42837 14.0682 9.99063 13.6556 10.4052C13.2431 10.8197 12.6835 11.0526 12.1 11.0526H9.9C9.31652 11.0526 8.75695 10.8197 8.34437 10.4052C7.93179 9.99063 7.7 9.42837 7.7 8.8421Z" fill="white"/>
</svg>
