<svg width="282" height="230" viewBox="0 0 282 230" fill="none" xmlns="http://www.w3.org/2000/svg">
<path d="M142.733 0C164.056 -9.32071e-07 184.78 7.0556 201.674 20.0667C218.567 33.0778 230.681 51.3132 236.126 71.9296C241.571 92.5459 240.041 114.385 231.775 134.041C223.509 153.697 208.972 170.065 190.429 180.594L171.351 146.995C182.476 140.677 191.199 130.856 196.158 119.063C201.118 107.269 202.036 94.1658 198.769 81.7959C195.502 69.4261 188.234 58.4849 178.097 50.6782C167.961 42.8716 155.527 38.6382 142.733 38.6382L142.733 0Z" fill="#A12433"/>
<path d="M253.836 61.1392C253.312 61.1359 252.807 61.0481 252.32 60.8757C251.836 60.7034 251.402 60.4233 251.017 60.0355C250.633 59.6477 250.328 59.134 250.102 58.4943C249.88 57.8546 249.769 57.0691 249.769 56.1378C249.773 55.2827 249.87 54.5187 250.063 53.8459C250.258 53.1697 250.537 52.5964 250.898 52.1257C251.262 51.6551 251.698 51.2971 252.205 51.0518C252.712 50.8033 253.281 50.679 253.911 50.679C254.59 50.679 255.19 50.8116 255.71 51.0767C256.231 51.3385 256.648 51.6948 256.963 52.1456C257.281 52.5964 257.474 53.1018 257.54 53.6619H255.417C255.334 53.3073 255.16 53.0289 254.895 52.8267C254.63 52.6245 254.302 52.5234 253.911 52.5234C253.248 52.5234 252.744 52.8118 252.399 53.3885C252.058 53.9652 251.884 54.7491 251.877 55.7401H251.947C252.099 55.4384 252.305 55.1816 252.563 54.9695C252.825 54.754 253.122 54.59 253.453 54.4773C253.788 54.3613 254.141 54.3033 254.512 54.3033C255.115 54.3033 255.652 54.4458 256.123 54.7308C256.594 55.0125 256.965 55.4003 257.237 55.8942C257.508 56.388 257.644 56.9531 257.644 57.5895C257.644 58.2789 257.483 58.892 257.162 59.429C256.844 59.9659 256.398 60.3868 255.825 60.6918C255.255 60.9934 254.592 61.1425 253.836 61.1392ZM253.826 59.4489C254.157 59.4489 254.454 59.3693 254.716 59.2102C254.978 59.0511 255.183 58.8357 255.332 58.5639C255.482 58.2921 255.556 57.9872 255.556 57.6491C255.556 57.3111 255.482 57.0078 255.332 56.7393C255.187 56.4709 254.984 56.2571 254.726 56.098C254.467 55.9389 254.172 55.8594 253.841 55.8594C253.592 55.8594 253.362 55.9058 253.15 55.9986C252.941 56.0914 252.757 56.2206 252.598 56.3864C252.442 56.5521 252.32 56.7443 252.23 56.9631C252.141 57.1785 252.096 57.4089 252.096 57.6541C252.096 57.9822 252.17 58.2822 252.32 58.554C252.472 58.8258 252.678 59.0429 252.936 59.2053C253.198 59.3677 253.495 59.4489 253.826 59.4489ZM263.6 50.8182V61H261.447V52.8615H261.388L259.056 54.3232V52.4141L261.577 50.8182H263.6Z" fill="white"/>
<path d="M241.436 76.2102V75.3409L245.271 69.2727H245.902V70.6193H245.475L242.578 75.2045V75.2727H247.742V76.2102H241.436ZM245.544 78V75.946V75.5412V69.2727H246.549V78H245.544ZM252.29 69.2727V78H251.234V70.3807H251.182L249.052 71.7955V70.7216L251.234 69.2727H252.29ZM255.035 78.0682C254.825 78.0682 254.644 77.9929 254.494 77.8423C254.343 77.6918 254.268 77.5114 254.268 77.3011C254.268 77.0909 254.343 76.9105 254.494 76.7599C254.644 76.6094 254.825 76.5341 255.035 76.5341C255.245 76.5341 255.425 76.6094 255.576 76.7599C255.727 76.9105 255.802 77.0909 255.802 77.3011C255.802 77.4403 255.766 77.5682 255.695 77.6847C255.627 77.8011 255.535 77.8949 255.418 77.9659C255.305 78.0341 255.177 78.0682 255.035 78.0682ZM260.115 78.1193C259.53 78.1193 259.013 78.0156 258.564 77.8082C258.118 77.598 257.77 77.3097 257.52 76.9432C257.27 76.5739 257.147 76.1534 257.149 75.6818C257.147 75.3125 257.219 74.9716 257.367 74.6591C257.515 74.3437 257.716 74.081 257.972 73.8707C258.23 73.6577 258.519 73.5227 258.837 73.4659V73.4148C258.419 73.3068 258.087 73.0724 257.84 72.7116C257.593 72.348 257.47 71.9347 257.473 71.4716C257.47 71.0284 257.583 70.6321 257.81 70.2827C258.037 69.9332 258.35 69.6577 258.747 69.456C259.148 69.2543 259.604 69.1534 260.115 69.1534C260.621 69.1534 261.073 69.2543 261.47 69.456C261.868 69.6577 262.181 69.9332 262.408 70.2827C262.638 70.6321 262.755 71.0284 262.757 71.4716C262.755 71.9347 262.628 72.348 262.378 72.7116C262.131 73.0724 261.803 73.3068 261.394 73.4148V73.4659C261.709 73.5227 261.993 73.6577 262.246 73.8707C262.499 74.081 262.701 74.3437 262.851 74.6591C263.002 74.9716 263.078 75.3125 263.081 75.6818C263.078 76.1534 262.951 76.5739 262.698 76.9432C262.448 77.3097 262.1 77.598 261.654 77.8082C261.211 78.0156 260.698 78.1193 260.115 78.1193ZM260.115 77.1818C260.51 77.1818 260.851 77.1179 261.138 76.9901C261.425 76.8622 261.647 76.6818 261.803 76.4489C261.959 76.2159 262.039 75.9432 262.042 75.6307C262.039 75.3011 261.953 75.0099 261.786 74.7571C261.618 74.5043 261.39 74.3054 261.1 74.1605C260.813 74.0156 260.485 73.9432 260.115 73.9432C259.743 73.9432 259.411 74.0156 259.118 74.1605C258.828 74.3054 258.6 74.5043 258.432 74.7571C258.267 75.0099 258.186 75.3011 258.189 75.6307C258.186 75.9432 258.262 76.2159 258.415 76.4489C258.571 76.6818 258.794 76.8622 259.084 76.9901C259.374 77.1179 259.718 77.1818 260.115 77.1818ZM260.115 73.0398C260.428 73.0398 260.705 72.9773 260.946 72.8523C261.191 72.7273 261.382 72.5526 261.522 72.3281C261.661 72.1037 261.732 71.8409 261.735 71.5398C261.732 71.2443 261.662 70.9872 261.526 70.7685C261.39 70.5469 261.201 70.3764 260.959 70.2571C260.718 70.1349 260.436 70.0739 260.115 70.0739C259.789 70.0739 259.503 70.1349 259.259 70.2571C259.015 70.3764 258.826 70.5469 258.692 70.7685C258.559 70.9872 258.493 71.2443 258.496 71.5398C258.493 71.8409 258.56 72.1037 258.696 72.3281C258.836 72.5526 259.027 72.7273 259.272 72.8523C259.516 72.9773 259.797 73.0398 260.115 73.0398ZM269.163 76.3636V75.9034C269.163 75.5852 269.229 75.294 269.359 75.0298C269.493 74.7628 269.686 74.5497 269.939 74.3906C270.195 74.2287 270.504 74.1477 270.868 74.1477C271.237 74.1477 271.547 74.2287 271.797 74.3906C272.047 74.5497 272.236 74.7628 272.364 75.0298C272.491 75.294 272.555 75.5852 272.555 75.9034V76.3636C272.555 76.6818 272.49 76.9744 272.359 77.2415C272.231 77.5057 272.041 77.7187 271.788 77.8807C271.538 78.0398 271.231 78.1193 270.868 78.1193C270.499 78.1193 270.187 78.0398 269.935 77.8807C269.682 77.7187 269.49 77.5057 269.359 77.2415C269.229 76.9744 269.163 76.6818 269.163 76.3636ZM270.033 75.9034V76.3636C270.033 76.6278 270.095 76.8651 270.22 77.0753C270.345 77.2827 270.561 77.3864 270.868 77.3864C271.166 77.3864 271.376 77.2827 271.499 77.0753C271.624 76.8651 271.686 76.6278 271.686 76.3636V75.9034C271.686 75.6392 271.626 75.4034 271.507 75.196C271.388 74.9858 271.175 74.8807 270.868 74.8807C270.57 74.8807 270.355 74.9858 270.224 75.196C270.097 75.4034 270.033 75.6392 270.033 75.9034ZM264.817 71.3693V70.9091C264.817 70.5909 264.882 70.2997 265.013 70.0355C265.146 69.7685 265.339 69.5554 265.592 69.3963C265.848 69.2344 266.158 69.1534 266.521 69.1534C266.891 69.1534 267.2 69.2344 267.45 69.3963C267.7 69.5554 267.889 69.7685 268.017 70.0355C268.145 70.2997 268.209 70.5909 268.209 70.9091V71.3693C268.209 71.6875 268.143 71.9801 268.013 72.2472C267.885 72.5114 267.695 72.7244 267.442 72.8864C267.192 73.0455 266.885 73.125 266.521 73.125C266.152 73.125 265.841 73.0455 265.588 72.8864C265.335 72.7244 265.143 72.5114 265.013 72.2472C264.882 71.9801 264.817 71.6875 264.817 71.3693ZM265.686 70.9091V71.3693C265.686 71.6335 265.749 71.8707 265.874 72.081C265.999 72.2884 266.214 72.392 266.521 72.392C266.82 72.392 267.03 72.2884 267.152 72.081C267.277 71.8707 267.339 71.6335 267.339 71.3693V70.9091C267.339 70.6449 267.28 70.4091 267.16 70.2017C267.041 69.9915 266.828 69.8864 266.521 69.8864C266.223 69.8864 266.008 69.9915 265.878 70.2017C265.75 70.4091 265.686 70.6449 265.686 70.9091ZM265.141 78L271.141 69.2727H272.112L266.112 78H265.141Z" fill="#BCBCBC"/>
<path d="M190.429 180.594C183.189 184.705 175.449 187.863 167.399 189.989L157.532 152.631C162.362 151.356 167.007 149.461 171.351 146.995L190.429 180.594Z" fill="#C93325"/>
<path d="M185.112 201.139C184.588 201.136 184.083 201.048 183.596 200.876C183.112 200.703 182.677 200.423 182.293 200.036C181.908 199.648 181.604 199.134 181.378 198.494C181.156 197.855 181.045 197.069 181.045 196.138C181.048 195.283 181.146 194.519 181.338 193.846C181.534 193.17 181.812 192.596 182.174 192.126C182.538 191.655 182.974 191.297 183.481 191.052C183.988 190.803 184.557 190.679 185.186 190.679C185.866 190.679 186.466 190.812 186.986 191.077C187.507 191.339 187.924 191.695 188.239 192.146C188.557 192.596 188.749 193.102 188.816 193.662H186.693C186.61 193.307 186.436 193.029 186.171 192.827C185.906 192.625 185.578 192.523 185.186 192.523C184.524 192.523 184.02 192.812 183.675 193.388C183.334 193.965 183.16 194.749 183.153 195.74H183.223C183.375 195.438 183.581 195.182 183.839 194.969C184.101 194.754 184.398 194.59 184.729 194.477C185.064 194.361 185.417 194.303 185.788 194.303C186.391 194.303 186.928 194.446 187.399 194.731C187.869 195.013 188.241 195.4 188.512 195.894C188.784 196.388 188.92 196.953 188.92 197.589C188.92 198.279 188.759 198.892 188.438 199.429C188.12 199.966 187.674 200.387 187.1 200.692C186.53 200.993 185.868 201.143 185.112 201.139ZM185.102 199.449C185.433 199.449 185.73 199.369 185.992 199.21C186.254 199.051 186.459 198.836 186.608 198.564C186.757 198.292 186.832 197.987 186.832 197.649C186.832 197.311 186.757 197.008 186.608 196.739C186.462 196.471 186.26 196.257 186.002 196.098C185.743 195.939 185.448 195.859 185.117 195.859C184.868 195.859 184.638 195.906 184.426 195.999C184.217 196.091 184.033 196.221 183.874 196.386C183.718 196.552 183.596 196.744 183.506 196.963C183.417 197.179 183.372 197.409 183.372 197.654C183.372 197.982 183.446 198.282 183.596 198.554C183.748 198.826 183.953 199.043 184.212 199.205C184.474 199.368 184.77 199.449 185.102 199.449Z" fill="white"/>
<path d="M173.259 216.21V215.341L177.095 209.273H177.725V210.619H177.299L174.401 215.205V215.273H179.566V216.21H173.259ZM177.367 218V215.946V215.541V209.273H178.373V218H177.367ZM181.503 218.068C181.293 218.068 181.112 217.993 180.962 217.842C180.811 217.692 180.736 217.511 180.736 217.301C180.736 217.091 180.811 216.911 180.962 216.76C181.112 216.609 181.293 216.534 181.503 216.534C181.713 216.534 181.894 216.609 182.044 216.76C182.195 216.911 182.27 217.091 182.27 217.301C182.27 217.44 182.235 217.568 182.164 217.685C182.095 217.801 182.003 217.895 181.887 217.966C181.773 218.034 181.645 218.068 181.503 218.068ZM186.083 209.273V218H185.026V210.381H184.975L182.844 211.795V210.722L185.026 209.273H186.083ZM193.042 216.364V215.903C193.042 215.585 193.107 215.294 193.238 215.03C193.371 214.763 193.564 214.55 193.817 214.391C194.073 214.229 194.383 214.148 194.746 214.148C195.116 214.148 195.425 214.229 195.675 214.391C195.925 214.55 196.114 214.763 196.242 215.03C196.37 215.294 196.434 215.585 196.434 215.903V216.364C196.434 216.682 196.368 216.974 196.238 217.241C196.11 217.506 195.92 217.719 195.667 217.881C195.417 218.04 195.11 218.119 194.746 218.119C194.377 218.119 194.066 218.04 193.813 217.881C193.56 217.719 193.368 217.506 193.238 217.241C193.107 216.974 193.042 216.682 193.042 216.364ZM193.911 215.903V216.364C193.911 216.628 193.974 216.865 194.099 217.075C194.224 217.283 194.439 217.386 194.746 217.386C195.045 217.386 195.255 217.283 195.377 217.075C195.502 216.865 195.564 216.628 195.564 216.364V215.903C195.564 215.639 195.505 215.403 195.385 215.196C195.266 214.986 195.053 214.881 194.746 214.881C194.448 214.881 194.233 214.986 194.103 215.196C193.975 215.403 193.911 215.639 193.911 215.903ZM188.695 211.369V210.909C188.695 210.591 188.76 210.3 188.891 210.036C189.025 209.768 189.218 209.555 189.471 209.396C189.726 209.234 190.036 209.153 190.4 209.153C190.769 209.153 191.079 209.234 191.329 209.396C191.579 209.555 191.768 209.768 191.895 210.036C192.023 210.3 192.087 210.591 192.087 210.909V211.369C192.087 211.687 192.022 211.98 191.891 212.247C191.763 212.511 191.573 212.724 191.32 212.886C191.07 213.045 190.763 213.125 190.4 213.125C190.03 213.125 189.719 213.045 189.466 212.886C189.214 212.724 189.022 212.511 188.891 212.247C188.76 211.98 188.695 211.687 188.695 211.369ZM189.564 210.909V211.369C189.564 211.634 189.627 211.871 189.752 212.081C189.877 212.288 190.093 212.392 190.4 212.392C190.698 212.392 190.908 212.288 191.03 212.081C191.155 211.871 191.218 211.634 191.218 211.369V210.909C191.218 210.645 191.158 210.409 191.039 210.202C190.92 209.991 190.706 209.886 190.4 209.886C190.101 209.886 189.887 209.991 189.756 210.202C189.628 210.409 189.564 210.645 189.564 210.909ZM189.019 218L195.019 209.273H195.991L189.991 218H189.019Z" fill="#BCBCBC"/>
<path d="M167.399 189.989C153.95 193.541 139.892 194.146 126.187 191.763L132.805 153.696C141.028 155.126 149.463 154.763 157.532 152.631L167.399 189.989Z" fill="#4CEED0"/>
<path d="M144.511 199.818V210H142.358V201.862H142.298L139.967 203.323V201.414L142.487 199.818H144.511ZM150.923 210.224C150.068 210.22 149.332 210.01 148.716 209.592C148.102 209.175 147.63 208.57 147.299 207.778C146.971 206.986 146.808 206.033 146.811 204.919C146.811 203.809 146.975 202.862 147.304 202.08C147.635 201.298 148.107 200.703 148.721 200.295C149.337 199.884 150.071 199.679 150.923 199.679C151.775 199.679 152.507 199.884 153.12 200.295C153.737 200.706 154.211 201.303 154.542 202.085C154.874 202.864 155.038 203.809 155.034 204.919C155.034 206.036 154.869 206.991 154.537 207.783C154.209 208.575 153.739 209.18 153.125 209.597C152.512 210.015 151.778 210.224 150.923 210.224ZM150.923 208.439C151.506 208.439 151.972 208.146 152.32 207.559C152.668 206.972 152.84 206.092 152.837 204.919C152.837 204.147 152.757 203.504 152.598 202.99C152.443 202.476 152.221 202.09 151.932 201.832C151.647 201.573 151.311 201.444 150.923 201.444C150.343 201.444 149.879 201.734 149.531 202.314C149.183 202.894 149.007 203.762 149.004 204.919C149.004 205.701 149.082 206.354 149.238 206.878C149.397 207.398 149.62 207.789 149.909 208.051C150.197 208.31 150.535 208.439 150.923 208.439Z" fill="white"/>
<path d="M137.672 227.119C137.314 227.114 136.956 227.045 136.598 226.915C136.24 226.784 135.914 226.564 135.618 226.254C135.323 225.942 135.086 225.52 134.907 224.989C134.728 224.455 134.638 223.784 134.638 222.977C134.638 222.205 134.711 221.52 134.855 220.923C135 220.324 135.211 219.82 135.486 219.411C135.762 218.999 136.094 218.686 136.483 218.473C136.875 218.26 137.317 218.153 137.809 218.153C138.297 218.153 138.732 218.251 139.113 218.447C139.496 218.641 139.809 218.911 140.05 219.257C140.292 219.604 140.448 220.003 140.519 220.455H139.479C139.382 220.062 139.195 219.737 138.917 219.479C138.638 219.22 138.269 219.091 137.809 219.091C137.132 219.091 136.6 219.385 136.211 219.973C135.824 220.561 135.63 221.386 135.627 222.449H135.695C135.854 222.207 136.043 222.001 136.262 221.831C136.483 221.658 136.728 221.524 136.995 221.43C137.262 221.337 137.544 221.29 137.843 221.29C138.343 221.29 138.8 221.415 139.215 221.665C139.63 221.912 139.962 222.254 140.212 222.692C140.462 223.126 140.587 223.625 140.587 224.188C140.587 224.727 140.466 225.222 140.225 225.67C139.983 226.116 139.644 226.472 139.206 226.736C138.772 226.997 138.26 227.125 137.672 227.119ZM137.672 226.182C138.03 226.182 138.351 226.092 138.635 225.913C138.922 225.734 139.148 225.494 139.313 225.193C139.48 224.892 139.564 224.557 139.564 224.188C139.564 223.827 139.483 223.499 139.321 223.203C139.162 222.905 138.942 222.668 138.661 222.491C138.382 222.315 138.064 222.227 137.706 222.227C137.436 222.227 137.185 222.281 136.952 222.389C136.719 222.494 136.515 222.639 136.338 222.824C136.165 223.009 136.029 223.22 135.929 223.459C135.83 223.695 135.78 223.943 135.78 224.205C135.78 224.551 135.861 224.875 136.023 225.176C136.188 225.477 136.412 225.72 136.696 225.905C136.983 226.089 137.309 226.182 137.672 226.182ZM142.603 227.068C142.392 227.068 142.212 226.993 142.061 226.842C141.911 226.692 141.836 226.511 141.836 226.301C141.836 226.091 141.911 225.911 142.061 225.76C142.212 225.609 142.392 225.534 142.603 225.534C142.813 225.534 142.993 225.609 143.144 225.76C143.294 225.911 143.37 226.091 143.37 226.301C143.37 226.44 143.334 226.568 143.263 226.685C143.195 226.801 143.103 226.895 142.986 226.966C142.873 227.034 142.745 227.068 142.603 227.068ZM147.683 227.119C147.098 227.119 146.581 227.016 146.132 226.808C145.686 226.598 145.338 226.31 145.088 225.943C144.838 225.574 144.714 225.153 144.717 224.682C144.714 224.312 144.787 223.972 144.935 223.659C145.082 223.344 145.284 223.081 145.54 222.871C145.798 222.658 146.087 222.523 146.405 222.466V222.415C145.987 222.307 145.655 222.072 145.408 221.712C145.161 221.348 145.038 220.935 145.041 220.472C145.038 220.028 145.151 219.632 145.378 219.283C145.605 218.933 145.918 218.658 146.315 218.456C146.716 218.254 147.172 218.153 147.683 218.153C148.189 218.153 148.641 218.254 149.038 218.456C149.436 218.658 149.749 218.933 149.976 219.283C150.206 219.632 150.322 220.028 150.325 220.472C150.322 220.935 150.196 221.348 149.946 221.712C149.699 222.072 149.371 222.307 148.962 222.415V222.466C149.277 222.523 149.561 222.658 149.814 222.871C150.067 223.081 150.268 223.344 150.419 223.659C150.57 223.972 150.646 224.312 150.649 224.682C150.646 225.153 150.518 225.574 150.266 225.943C150.016 226.31 149.668 226.598 149.222 226.808C148.778 227.016 148.266 227.119 147.683 227.119ZM147.683 226.182C148.078 226.182 148.419 226.118 148.706 225.99C148.993 225.862 149.214 225.682 149.371 225.449C149.527 225.216 149.607 224.943 149.609 224.631C149.607 224.301 149.521 224.01 149.354 223.757C149.186 223.504 148.957 223.305 148.668 223.161C148.381 223.016 148.053 222.943 147.683 222.943C147.311 222.943 146.979 223.016 146.686 223.161C146.396 223.305 146.168 223.504 146 223.757C145.835 224.01 145.754 224.301 145.757 224.631C145.754 224.943 145.83 225.216 145.983 225.449C146.139 225.682 146.362 225.862 146.652 225.99C146.942 226.118 147.286 226.182 147.683 226.182ZM147.683 222.04C147.996 222.04 148.273 221.977 148.514 221.852C148.759 221.727 148.95 221.553 149.089 221.328C149.229 221.104 149.3 220.841 149.303 220.54C149.3 220.244 149.23 219.987 149.094 219.768C148.957 219.547 148.768 219.376 148.527 219.257C148.286 219.135 148.004 219.074 147.683 219.074C147.357 219.074 147.071 219.135 146.827 219.257C146.582 219.376 146.393 219.547 146.26 219.768C146.126 219.987 146.061 220.244 146.064 220.54C146.061 220.841 146.128 221.104 146.264 221.328C146.403 221.553 146.595 221.727 146.839 221.852C147.084 221.977 147.365 222.04 147.683 222.04ZM156.731 225.364V224.903C156.731 224.585 156.797 224.294 156.927 224.03C157.061 223.763 157.254 223.55 157.507 223.391C157.762 223.229 158.072 223.148 158.436 223.148C158.805 223.148 159.115 223.229 159.365 223.391C159.615 223.55 159.804 223.763 159.931 224.03C160.059 224.294 160.123 224.585 160.123 224.903V225.364C160.123 225.682 160.058 225.974 159.927 226.241C159.799 226.506 159.609 226.719 159.356 226.881C159.106 227.04 158.799 227.119 158.436 227.119C158.066 227.119 157.755 227.04 157.502 226.881C157.25 226.719 157.058 226.506 156.927 226.241C156.797 225.974 156.731 225.682 156.731 225.364ZM157.6 224.903V225.364C157.6 225.628 157.663 225.865 157.788 226.075C157.913 226.283 158.129 226.386 158.436 226.386C158.734 226.386 158.944 226.283 159.066 226.075C159.191 225.865 159.254 225.628 159.254 225.364V224.903C159.254 224.639 159.194 224.403 159.075 224.196C158.956 223.986 158.743 223.881 158.436 223.881C158.137 223.881 157.923 223.986 157.792 224.196C157.664 224.403 157.6 224.639 157.6 224.903ZM152.385 220.369V219.909C152.385 219.591 152.45 219.3 152.581 219.036C152.714 218.768 152.907 218.555 153.16 218.396C153.416 218.234 153.725 218.153 154.089 218.153C154.458 218.153 154.768 218.234 155.018 218.396C155.268 218.555 155.457 218.768 155.585 219.036C155.713 219.3 155.777 219.591 155.777 219.909V220.369C155.777 220.687 155.711 220.98 155.581 221.247C155.453 221.511 155.262 221.724 155.01 221.886C154.76 222.045 154.453 222.125 154.089 222.125C153.72 222.125 153.409 222.045 153.156 221.886C152.903 221.724 152.711 221.511 152.581 221.247C152.45 220.98 152.385 220.687 152.385 220.369ZM153.254 219.909V220.369C153.254 220.634 153.316 220.871 153.441 221.081C153.566 221.288 153.782 221.392 154.089 221.392C154.387 221.392 154.598 221.288 154.72 221.081C154.845 220.871 154.907 220.634 154.907 220.369V219.909C154.907 219.645 154.848 219.409 154.728 219.202C154.609 218.991 154.396 218.886 154.089 218.886C153.791 218.886 153.576 218.991 153.446 219.202C153.318 219.409 153.254 219.645 153.254 219.909ZM152.708 227L158.708 218.273H159.68L153.68 227H152.708Z" fill="#BCBCBC"/>
<path d="M126.187 191.763C102.363 187.621 80.959 174.694 66.204 155.536C51.4491 136.379 44.4162 112.383 46.4949 88.2917C48.5736 64.2 59.6128 41.7641 77.4313 25.4169C95.2498 9.06959 118.552 -2.88358e-07 142.733 0V38.6382C128.224 38.6382 114.243 44.08 103.552 53.8883C92.8608 63.6967 86.2373 77.1582 84.9901 91.6133C83.7429 106.068 87.9626 120.465 96.8156 131.96C105.669 143.455 118.511 151.211 132.805 153.696L126.187 191.763Z" fill="#0C50B7"/>
<path d="M19.9908 86.1392C19.4671 86.1359 18.9616 86.0481 18.4744 85.8757C17.9905 85.7034 17.5563 85.4233 17.1719 85.0355C16.7874 84.6477 16.4825 84.134 16.2571 83.4943C16.035 82.8546 15.924 82.0691 15.924 81.1378C15.9273 80.2827 16.0251 79.5187 16.2173 78.8459C16.4129 78.1697 16.6913 77.5964 17.0526 77.1257C17.4171 76.6551 17.853 76.2971 18.3601 76.0518C18.8672 75.8033 19.4356 75.679 20.0653 75.679C20.7448 75.679 21.3447 75.8116 21.8651 76.0767C22.3854 76.3385 22.803 76.6948 23.1179 77.1456C23.4361 77.5964 23.6283 78.1018 23.6946 78.6619H21.5717C21.4889 78.3073 21.3149 78.0289 21.0497 77.8267C20.7846 77.6245 20.4564 77.5234 20.0653 77.5234C19.4025 77.5234 18.8987 77.8118 18.554 78.3885C18.2126 78.9652 18.0386 79.7491 18.032 80.7401H18.1016C18.254 80.4384 18.4595 80.1816 18.718 79.9695C18.9799 79.754 19.2765 79.59 19.608 79.4773C19.9427 79.3613 20.2957 79.3033 20.6669 79.3033C21.2701 79.3033 21.8071 79.4458 22.2777 79.7308C22.7483 80.0125 23.1196 80.4003 23.3913 80.8942C23.6631 81.388 23.799 81.9531 23.799 82.5895C23.799 83.2789 23.6383 83.892 23.3168 84.429C22.9986 84.9659 22.5528 85.3868 21.9794 85.6918C21.4093 85.9934 20.7464 86.1425 19.9908 86.1392ZM19.9808 84.4489C20.3123 84.4489 20.6089 84.3693 20.8707 84.2102C21.1326 84.0511 21.3381 83.8357 21.4872 83.5639C21.6364 83.2921 21.7109 82.9872 21.7109 82.6491C21.7109 82.3111 21.6364 82.0078 21.4872 81.7393C21.3414 81.4709 21.1392 81.2571 20.8807 81.098C20.6222 80.9389 20.3272 80.8594 19.9957 80.8594C19.7472 80.8594 19.5168 80.9058 19.3047 80.9986C19.0959 81.0914 18.9119 81.2206 18.7528 81.3864C18.5971 81.5521 18.4744 81.7443 18.3849 81.9631C18.2955 82.1785 18.2507 82.4089 18.2507 82.6541C18.2507 82.9822 18.3253 83.2822 18.4744 83.554C18.6269 83.8258 18.8324 84.0429 19.0909 84.2053C19.3527 84.3677 19.6494 84.4489 19.9808 84.4489ZM29.0092 75.679C29.5329 75.679 30.0367 75.7668 30.5206 75.9425C31.0078 76.1181 31.442 76.3982 31.8232 76.7827C32.2076 77.1671 32.5109 77.6776 32.733 78.3139C32.9583 78.947 33.0727 79.7242 33.076 80.6456C33.076 81.5107 32.9782 82.2829 32.7827 82.9624C32.5904 83.6385 32.3137 84.2135 31.9524 84.6875C31.5911 85.1615 31.1553 85.5227 30.6449 85.7713C30.1345 86.0166 29.5644 86.1392 28.9347 86.1392C28.2552 86.1392 27.6553 86.0083 27.1349 85.7464C26.6146 85.4813 26.1953 85.1217 25.8771 84.6676C25.5623 84.2102 25.3717 83.6965 25.3054 83.1264H27.4283C27.5111 83.4976 27.6851 83.786 27.9503 83.9915C28.2154 84.1937 28.5436 84.2947 28.9347 84.2947C29.5975 84.2947 30.1013 84.0064 30.446 83.4297C30.7907 82.8497 30.9647 82.0559 30.968 81.0483H30.8984C30.746 81.3466 30.5405 81.6035 30.282 81.8189C30.0234 82.031 29.7268 82.1951 29.392 82.3111C29.0606 82.4271 28.7076 82.4851 28.3331 82.4851C27.7332 82.4851 27.1979 82.3442 26.7273 82.0625C26.2566 81.7808 25.8854 81.393 25.6136 80.8991C25.3419 80.4053 25.206 79.8419 25.206 79.2088C25.2027 78.526 25.3601 77.9179 25.6783 77.3842C25.9964 76.8506 26.4406 76.433 27.0107 76.1314C27.584 75.8265 28.2502 75.6757 29.0092 75.679ZM29.0241 77.3693C28.6894 77.3693 28.3911 77.4489 28.1293 77.608C27.8707 77.767 27.6652 77.9808 27.5128 78.2493C27.3636 78.5178 27.2907 78.8177 27.294 79.1491C27.294 79.4839 27.367 79.7855 27.5128 80.054C27.6619 80.3191 27.8641 80.5312 28.1193 80.6903C28.3778 80.8461 28.6728 80.924 29.0043 80.924C29.2528 80.924 29.4832 80.8776 29.6953 80.7848C29.9074 80.692 30.0914 80.5644 30.2472 80.402C30.4063 80.2363 30.5305 80.0457 30.62 79.8303C30.7095 79.6148 30.7543 79.3861 30.7543 79.1442C30.7509 78.8227 30.6747 78.5277 30.5256 78.2592C30.3764 77.9908 30.1709 77.7753 29.9091 77.6129C29.6473 77.4505 29.3523 77.3693 29.0241 77.3693Z" fill="white"/>
<path d="M8.48793 101.21V100.341L12.3232 94.2727H12.9538V95.6193H12.5277L9.62997 100.205V100.273H14.7947V101.21H8.48793ZM12.5959 103V100.946V100.541V94.2727H13.6016V103H12.5959ZM16.6644 103L20.5678 95.2784V95.2102H16.0678V94.2727H21.6587V95.2614L17.7724 103H16.6644ZM22.4972 103.068C22.2869 103.068 22.1065 102.993 21.956 102.842C21.8054 102.692 21.7301 102.511 21.7301 102.301C21.7301 102.091 21.8054 101.911 21.956 101.76C22.1065 101.609 22.2869 101.534 22.4972 101.534C22.7074 101.534 22.8878 101.609 23.0384 101.76C23.1889 101.911 23.2642 102.091 23.2642 102.301C23.2642 102.44 23.2287 102.568 23.1577 102.685C23.0895 102.801 22.9972 102.895 22.8807 102.966C22.767 103.034 22.6392 103.068 22.4972 103.068ZM27.6726 103.119C27.1101 103.119 26.6087 103.023 26.1683 102.83C25.7308 102.636 25.3828 102.368 25.1243 102.024C24.8686 101.678 24.7294 101.276 24.7067 100.818H25.7805C25.8033 101.099 25.8999 101.342 26.0703 101.547C26.2408 101.749 26.4638 101.905 26.7393 102.016C27.0149 102.126 27.3203 102.182 27.6555 102.182C28.0305 102.182 28.3629 102.116 28.6527 101.986C28.9425 101.855 29.1697 101.673 29.3345 101.44C29.4993 101.207 29.5817 100.938 29.5817 100.631C29.5817 100.31 29.5021 100.027 29.343 99.7827C29.1839 99.5355 28.951 99.3423 28.6442 99.2031C28.3374 99.0639 27.9624 98.9943 27.5192 98.9943H26.8203V98.0568H27.5192C27.8658 98.0568 28.1697 97.9943 28.4311 97.8693C28.6953 97.7443 28.9013 97.5682 29.049 97.3409C29.1996 97.1136 29.2749 96.8466 29.2749 96.5398C29.2749 96.2443 29.2095 95.9872 29.0788 95.7685C28.9482 95.5497 28.7635 95.3793 28.5249 95.2571C28.2891 95.1349 28.0107 95.0739 27.6896 95.0739C27.3885 95.0739 27.1044 95.1293 26.8374 95.2401C26.5732 95.348 26.3572 95.5057 26.1896 95.7131C26.022 95.9176 25.9311 96.1648 25.9169 96.4545H24.8942C24.9112 95.9972 25.049 95.5966 25.3075 95.2528C25.5661 94.9062 25.9041 94.6364 26.3217 94.4432C26.7422 94.25 27.2038 94.1534 27.7067 94.1534C28.2464 94.1534 28.7095 94.2628 29.0959 94.4815C29.4822 94.6974 29.7791 94.983 29.9865 95.3381C30.1939 95.6932 30.2976 96.0767 30.2976 96.4886C30.2976 96.9801 30.1683 97.3991 29.9098 97.7457C29.6541 98.0923 29.3061 98.3324 28.8658 98.4659V98.5341C29.4169 98.625 29.8473 98.8594 30.157 99.2372C30.4666 99.6122 30.6214 100.077 30.6214 100.631C30.6214 101.105 30.4922 101.531 30.2337 101.909C29.978 102.284 29.6286 102.58 29.1854 102.795C28.7422 103.011 28.2379 103.119 27.6726 103.119ZM36.8132 101.364V100.903C36.8132 100.585 36.8786 100.294 37.0092 100.03C37.1428 99.7628 37.3359 99.5497 37.5888 99.3906C37.8445 99.2287 38.1541 99.1477 38.5178 99.1477C38.8871 99.1477 39.1967 99.2287 39.4467 99.3906C39.6967 99.5497 39.8857 99.7628 40.0135 100.03C40.1413 100.294 40.2053 100.585 40.2053 100.903V101.364C40.2053 101.682 40.1399 101.974 40.0092 102.241C39.8814 102.506 39.6911 102.719 39.4382 102.881C39.1882 103.04 38.8814 103.119 38.5178 103.119C38.1484 103.119 37.8374 103.04 37.5845 102.881C37.3317 102.719 37.1399 102.506 37.0092 102.241C36.8786 101.974 36.8132 101.682 36.8132 101.364ZM37.6825 100.903V101.364C37.6825 101.628 37.745 101.865 37.87 102.075C37.995 102.283 38.2109 102.386 38.5178 102.386C38.8161 102.386 39.0263 102.283 39.1484 102.075C39.2734 101.865 39.3359 101.628 39.3359 101.364V100.903C39.3359 100.639 39.2763 100.403 39.157 100.196C39.0376 99.9858 38.8246 99.8807 38.5178 99.8807C38.2195 99.8807 38.005 99.9858 37.8743 100.196C37.7464 100.403 37.6825 100.639 37.6825 100.903ZM32.4666 96.3693V95.9091C32.4666 95.5909 32.532 95.2997 32.6626 95.0355C32.7962 94.7685 32.9893 94.5554 33.2422 94.3963C33.4979 94.2344 33.8075 94.1534 34.1712 94.1534C34.5405 94.1534 34.8501 94.2344 35.1001 94.3963C35.3501 94.5554 35.5391 94.7685 35.6669 95.0355C35.7947 95.2997 35.8587 95.5909 35.8587 95.9091V96.3693C35.8587 96.6875 35.7933 96.9801 35.6626 97.2472C35.5348 97.5114 35.3445 97.7244 35.0916 97.8864C34.8416 98.0455 34.5348 98.125 34.1712 98.125C33.8018 98.125 33.4908 98.0455 33.2379 97.8864C32.9851 97.7244 32.7933 97.5114 32.6626 97.2472C32.532 96.9801 32.4666 96.6875 32.4666 96.3693ZM33.3359 95.9091V96.3693C33.3359 96.6335 33.3984 96.8707 33.5234 97.081C33.6484 97.2884 33.8643 97.392 34.1712 97.392C34.4695 97.392 34.6797 97.2884 34.8018 97.081C34.9268 96.8707 34.9893 96.6335 34.9893 96.3693V95.9091C34.9893 95.6449 34.9297 95.4091 34.8104 95.2017C34.6911 94.9915 34.478 94.8864 34.1712 94.8864C33.8729 94.8864 33.6584 94.9915 33.5277 95.2017C33.3999 95.4091 33.3359 95.6449 33.3359 95.9091ZM32.7905 103L38.7905 94.2727H39.7621L33.7621 103H32.7905Z" fill="#BCBCBC"/>
</svg>
