<svg width="502" height="245" viewBox="0 0 502 245" fill="none" xmlns="http://www.w3.org/2000/svg">
<path d="M448.204 197.381V196.124L451.907 190.273H452.955V192.062H452.316L449.823 196.013V196.081H454.992V197.381H448.204ZM452.367 199V196.997L452.384 196.435V190.273H453.876V199H452.367ZM459.58 199.166C458.878 199.166 458.276 198.989 457.773 198.634C457.273 198.276 456.888 197.76 456.618 197.087C456.351 196.411 456.217 195.597 456.217 194.645C456.22 193.693 456.355 192.884 456.622 192.216C456.892 191.545 457.277 191.034 457.777 190.682C458.28 190.33 458.881 190.153 459.58 190.153C460.278 190.153 460.879 190.33 461.382 190.682C461.885 191.034 462.27 191.545 462.537 192.216C462.807 192.886 462.942 193.696 462.942 194.645C462.942 195.599 462.807 196.415 462.537 197.091C462.27 197.764 461.885 198.278 461.382 198.634C460.882 198.989 460.281 199.166 459.58 199.166ZM459.58 197.832C460.125 197.832 460.555 197.564 460.871 197.027C461.189 196.487 461.348 195.693 461.348 194.645C461.348 193.952 461.276 193.369 461.131 192.898C460.986 192.426 460.781 192.071 460.517 191.832C460.253 191.591 459.94 191.47 459.58 191.47C459.037 191.47 458.608 191.74 458.293 192.28C457.977 192.817 457.818 193.605 457.815 194.645C457.813 195.341 457.882 195.926 458.024 196.401C458.169 196.875 458.374 197.233 458.638 197.474C458.902 197.713 459.216 197.832 459.58 197.832ZM465.781 196.946L465.777 195.084H466.024L468.376 192.455H470.179L467.285 195.676H466.966L465.781 196.946ZM464.375 199V190.273H465.917V199H464.375ZM468.483 199L466.352 196.021L467.392 194.935L470.328 199H468.483Z" fill="white"/>
<path d="M32.5968 199.119C32.0286 199.119 31.5201 199.013 31.0712 198.8C30.6223 198.584 30.2658 198.288 30.0016 197.913C29.7402 197.538 29.601 197.109 29.584 196.626H31.1181C31.1465 196.984 31.3013 197.277 31.5826 197.504C31.8638 197.729 32.2019 197.841 32.5968 197.841C32.9064 197.841 33.182 197.77 33.4235 197.628C33.665 197.486 33.8553 197.288 33.9945 197.036C34.1337 196.783 34.2019 196.494 34.199 196.17C34.2019 195.841 34.1323 195.548 33.9902 195.293C33.8482 195.037 33.6536 194.837 33.4064 194.692C33.1593 194.544 32.8752 194.47 32.5542 194.47C32.2928 194.467 32.0357 194.516 31.7828 194.615C31.53 194.714 31.3297 194.845 31.182 195.007L29.7544 194.773L30.2104 190.273H35.2729V191.594H31.5186L31.2672 193.908H31.3184C31.4803 193.717 31.709 193.56 32.0044 193.435C32.2999 193.307 32.6238 193.243 32.976 193.243C33.5044 193.243 33.976 193.368 34.3908 193.618C34.8056 193.865 35.1323 194.206 35.3709 194.641C35.6096 195.075 35.7289 195.572 35.7289 196.132C35.7289 196.709 35.5953 197.223 35.3283 197.675C35.0641 198.124 34.6962 198.477 34.2246 198.736C33.7559 198.991 33.2132 199.119 32.5968 199.119ZM38.5797 196.946L38.5755 195.084H38.8226L41.1749 192.455H42.9775L40.084 195.676H39.7644L38.5797 196.946ZM37.1735 199V190.273H38.7161V199H37.1735ZM41.2814 199L39.1507 196.021L40.1905 194.935L43.1266 199H41.2814Z" fill="white"/>
<path d="M89.0245 190.273V199H87.4435V191.811H87.3924L85.3512 193.115V191.666L87.5202 190.273H89.0245ZM94.4663 199.166C93.7646 199.166 93.1623 198.989 92.6594 198.634C92.1594 198.276 91.7745 197.76 91.5046 197.087C91.2376 196.411 91.104 195.597 91.104 194.645C91.1069 193.693 91.2418 192.884 91.5089 192.216C91.7788 191.545 92.1637 191.034 92.6637 190.682C93.1665 190.33 93.7674 190.153 94.4663 190.153C95.1651 190.153 95.766 190.33 96.2688 190.682C96.7717 191.034 97.1566 191.545 97.4237 192.216C97.6935 192.886 97.8285 193.696 97.8285 194.645C97.8285 195.599 97.6935 196.415 97.4237 197.091C97.1566 197.764 96.7717 198.278 96.2688 198.634C95.7688 198.989 95.168 199.166 94.4663 199.166ZM94.4663 197.832C95.0117 197.832 95.4421 197.564 95.7575 197.027C96.0756 196.487 96.2347 195.693 96.2347 194.645C96.2347 193.952 96.1623 193.369 96.0174 192.898C95.8725 192.426 95.668 192.071 95.4038 191.832C95.1396 191.591 94.8271 191.47 94.4663 191.47C93.9237 191.47 93.4947 191.74 93.1793 192.28C92.864 192.817 92.7049 193.605 92.7021 194.645C92.6992 195.341 92.7688 195.926 92.9109 196.401C93.0558 196.875 93.2603 197.233 93.5245 197.474C93.7887 197.713 94.1026 197.832 94.4663 197.832ZM100.668 196.946L100.663 195.084H100.911L103.263 192.455H105.065L102.172 195.676H101.852L100.668 196.946ZM99.2614 199V190.273H100.804V199H99.2614ZM103.369 199L101.239 196.021L102.278 194.935L105.214 199H103.369Z" fill="white"/>
<path d="M148.73 190.273V199H147.149V191.811H147.097L145.056 193.115V191.666L147.225 190.273H148.73ZM153.98 199.119C153.411 199.119 152.903 199.013 152.454 198.8C152.005 198.584 151.649 198.288 151.384 197.913C151.123 197.538 150.984 197.109 150.967 196.626H152.501C152.529 196.984 152.684 197.277 152.965 197.504C153.247 197.729 153.585 197.841 153.98 197.841C154.289 197.841 154.565 197.77 154.806 197.628C155.048 197.486 155.238 197.288 155.377 197.036C155.517 196.783 155.585 196.494 155.582 196.17C155.585 195.841 155.515 195.548 155.373 195.293C155.231 195.037 155.036 194.837 154.789 194.692C154.542 194.544 154.258 194.47 153.937 194.47C153.676 194.467 153.419 194.516 153.166 194.615C152.913 194.714 152.713 194.845 152.565 195.007L151.137 194.773L151.593 190.273H156.656V191.594H152.901L152.65 193.908H152.701C152.863 193.717 153.092 193.56 153.387 193.435C153.683 193.307 154.007 193.243 154.359 193.243C154.887 193.243 155.359 193.368 155.774 193.618C156.188 193.865 156.515 194.206 156.754 194.641C156.992 195.075 157.112 195.572 157.112 196.132C157.112 196.709 156.978 197.223 156.711 197.675C156.447 198.124 156.079 198.477 155.607 198.736C155.139 198.991 154.596 199.119 153.98 199.119ZM159.963 196.946L159.958 195.084H160.205L162.558 192.455H164.36L161.467 195.676H161.147L159.963 196.946ZM158.556 199V190.273H160.099V199H158.556ZM162.664 199L160.534 196.021L161.573 194.935L164.509 199H162.664Z" fill="white"/>
<path d="M205.131 199V197.858L208.161 194.888C208.451 194.595 208.692 194.335 208.885 194.108C209.078 193.881 209.223 193.661 209.32 193.447C209.417 193.234 209.465 193.007 209.465 192.766C209.465 192.49 209.402 192.254 209.277 192.058C209.152 191.859 208.98 191.706 208.762 191.598C208.543 191.49 208.294 191.436 208.016 191.436C207.729 191.436 207.478 191.496 207.262 191.615C207.046 191.732 206.878 191.898 206.759 192.114C206.642 192.33 206.584 192.587 206.584 192.885H205.08C205.08 192.331 205.206 191.849 205.459 191.44C205.712 191.031 206.06 190.714 206.503 190.49C206.949 190.266 207.461 190.153 208.037 190.153C208.623 190.153 209.137 190.263 209.58 190.482C210.023 190.7 210.367 191 210.611 191.381C210.858 191.761 210.982 192.196 210.982 192.685C210.982 193.011 210.919 193.332 210.794 193.648C210.669 193.963 210.449 194.312 210.134 194.696C209.821 195.08 209.382 195.544 208.817 196.089L207.313 197.619V197.679H211.114V199H205.131ZM215.81 199.166C215.108 199.166 214.506 198.989 214.003 198.634C213.503 198.276 213.118 197.76 212.848 197.087C212.581 196.411 212.448 195.597 212.448 194.645C212.451 193.693 212.586 192.884 212.853 192.216C213.123 191.545 213.507 191.034 214.007 190.682C214.51 190.33 215.111 190.153 215.81 190.153C216.509 190.153 217.11 190.33 217.613 190.682C218.115 191.034 218.5 191.545 218.767 192.216C219.037 192.886 219.172 193.696 219.172 194.645C219.172 195.599 219.037 196.415 218.767 197.091C218.5 197.764 218.115 198.278 217.613 198.634C217.113 198.989 216.512 199.166 215.81 199.166ZM215.81 197.832C216.355 197.832 216.786 197.564 217.101 197.027C217.419 196.487 217.578 195.693 217.578 194.645C217.578 193.952 217.506 193.369 217.361 192.898C217.216 192.426 217.012 192.071 216.748 191.832C216.483 191.591 216.171 191.47 215.81 191.47C215.267 191.47 214.838 191.74 214.523 192.28C214.208 192.817 214.049 193.605 214.046 194.645C214.043 195.341 214.113 195.926 214.255 196.401C214.4 196.875 214.604 197.233 214.868 197.474C215.132 197.713 215.446 197.832 215.81 197.832ZM222.011 196.946L222.007 195.084H222.254L224.607 192.455H226.409L223.516 195.676H223.196L222.011 196.946ZM220.605 199V190.273H222.148V199H220.605ZM224.713 199L222.582 196.021L223.622 194.935L226.558 199H224.713Z" fill="white"/>
<path d="M265.836 199V197.858L268.866 194.888C269.156 194.595 269.397 194.335 269.59 194.108C269.784 193.881 269.928 193.661 270.025 193.447C270.122 193.234 270.17 193.007 270.17 192.766C270.17 192.49 270.107 192.254 269.982 192.058C269.857 191.859 269.686 191.706 269.467 191.598C269.248 191.49 268.999 191.436 268.721 191.436C268.434 191.436 268.183 191.496 267.967 191.615C267.751 191.732 267.583 191.898 267.464 192.114C267.347 192.33 267.289 192.587 267.289 192.885H265.785C265.785 192.331 265.911 191.849 266.164 191.44C266.417 191.031 266.765 190.714 267.208 190.49C267.654 190.266 268.166 190.153 268.742 190.153C269.328 190.153 269.842 190.263 270.285 190.482C270.728 190.7 271.072 191 271.316 191.381C271.563 191.761 271.687 192.196 271.687 192.685C271.687 193.011 271.624 193.332 271.499 193.648C271.374 193.963 271.154 194.312 270.839 194.696C270.526 195.08 270.088 195.544 269.522 196.089L268.018 197.619V197.679H271.819V199H265.836ZM276.323 199.119C275.755 199.119 275.247 199.013 274.798 198.8C274.349 198.584 273.992 198.288 273.728 197.913C273.467 197.538 273.328 197.109 273.311 196.626H274.845C274.873 196.984 275.028 197.277 275.309 197.504C275.59 197.729 275.928 197.841 276.323 197.841C276.633 197.841 276.909 197.77 277.15 197.628C277.392 197.486 277.582 197.288 277.721 197.036C277.86 196.783 277.928 196.494 277.926 196.17C277.928 195.841 277.859 195.548 277.717 195.293C277.575 195.037 277.38 194.837 277.133 194.692C276.886 194.544 276.602 194.47 276.281 194.47C276.019 194.467 275.762 194.516 275.509 194.615C275.257 194.714 275.056 194.845 274.909 195.007L273.481 194.773L273.937 190.273H278.999V191.594H275.245L274.994 193.908H275.045C275.207 193.717 275.436 193.56 275.731 193.435C276.026 193.307 276.35 193.243 276.703 193.243C277.231 193.243 277.703 193.368 278.117 193.618C278.532 193.865 278.859 194.206 279.097 194.641C279.336 195.075 279.455 195.572 279.455 196.132C279.455 196.709 279.322 197.223 279.055 197.675C278.791 198.124 278.423 198.477 277.951 198.736C277.482 198.991 276.94 199.119 276.323 199.119ZM282.306 196.946L282.302 195.084H282.549L284.901 192.455H286.704L283.811 195.676H283.491L282.306 196.946ZM280.9 199V190.273H282.443V199H280.9ZM285.008 199L282.877 196.021L283.917 194.935L286.853 199H285.008Z" fill="white"/>
<path d="M390.287 199.119C389.673 199.119 389.127 199.014 388.65 198.804C388.176 198.594 387.801 198.301 387.525 197.926C387.25 197.551 387.103 197.118 387.086 196.626H388.689C388.703 196.862 388.781 197.068 388.923 197.244C389.065 197.418 389.254 197.553 389.49 197.649C389.725 197.746 389.99 197.794 390.282 197.794C390.595 197.794 390.872 197.74 391.113 197.632C391.355 197.521 391.544 197.368 391.68 197.172C391.816 196.976 391.883 196.75 391.88 196.494C391.883 196.23 391.815 195.997 391.676 195.795C391.537 195.594 391.335 195.436 391.071 195.322C390.809 195.209 390.494 195.152 390.125 195.152H389.353V193.933H390.125C390.429 193.933 390.694 193.881 390.922 193.776C391.152 193.67 391.332 193.523 391.463 193.332C391.593 193.139 391.657 192.916 391.654 192.663C391.657 192.416 391.602 192.202 391.488 192.02C391.377 191.835 391.22 191.692 391.015 191.589C390.814 191.487 390.576 191.436 390.304 191.436C390.037 191.436 389.789 191.484 389.562 191.581C389.335 191.678 389.152 191.815 389.012 191.994C388.873 192.17 388.799 192.381 388.791 192.625H387.27C387.281 192.136 387.422 191.707 387.691 191.338C387.964 190.966 388.328 190.676 388.782 190.469C389.237 190.259 389.747 190.153 390.312 190.153C390.895 190.153 391.4 190.263 391.829 190.482C392.261 190.697 392.595 190.989 392.831 191.355C393.066 191.722 393.184 192.126 393.184 192.57C393.187 193.061 393.042 193.473 392.75 193.805C392.46 194.138 392.079 194.355 391.608 194.457V194.526C392.221 194.611 392.691 194.838 393.018 195.207C393.348 195.574 393.511 196.03 393.508 196.575C393.508 197.064 393.369 197.501 393.091 197.888C392.815 198.271 392.434 198.572 391.949 198.791C391.466 199.01 390.912 199.119 390.287 199.119ZM398.005 199.119C397.437 199.119 396.928 199.013 396.479 198.8C396.031 198.584 395.674 198.288 395.41 197.913C395.148 197.538 395.009 197.109 394.992 196.626H396.526C396.555 196.984 396.71 197.277 396.991 197.504C397.272 197.729 397.61 197.841 398.005 197.841C398.315 197.841 398.59 197.77 398.832 197.628C399.073 197.486 399.263 197.288 399.403 197.036C399.542 196.783 399.61 196.494 399.607 196.17C399.61 195.841 399.54 195.548 399.398 195.293C399.256 195.037 399.062 194.837 398.815 194.692C398.567 194.544 398.283 194.47 397.962 194.47C397.701 194.467 397.444 194.516 397.191 194.615C396.938 194.714 396.738 194.845 396.59 195.007L395.163 194.773L395.619 190.273H400.681V191.594H396.927L396.675 193.908H396.727C396.888 193.717 397.117 193.56 397.413 193.435C397.708 193.307 398.032 193.243 398.384 193.243C398.913 193.243 399.384 193.368 399.799 193.618C400.214 193.865 400.54 194.206 400.779 194.641C401.018 195.075 401.137 195.572 401.137 196.132C401.137 196.709 401.004 197.223 400.737 197.675C400.472 198.124 400.104 198.477 399.633 198.736C399.164 198.991 398.621 199.119 398.005 199.119ZM403.988 196.946L403.984 195.084H404.231L406.583 192.455H408.386L405.492 195.676H405.173L403.988 196.946ZM402.582 199V190.273H404.124V199H402.582ZM406.69 199L404.559 196.021L405.599 194.935L408.535 199H406.69Z" fill="white"/>
<path d="M329.581 199.119C328.968 199.119 328.422 199.014 327.945 198.804C327.471 198.594 327.096 198.301 326.82 197.926C326.545 197.551 326.398 197.118 326.381 196.626H327.983C327.998 196.862 328.076 197.068 328.218 197.244C328.36 197.418 328.549 197.553 328.785 197.649C329.02 197.746 329.285 197.794 329.577 197.794C329.89 197.794 330.167 197.74 330.408 197.632C330.65 197.521 330.839 197.368 330.975 197.172C331.111 196.976 331.178 196.75 331.175 196.494C331.178 196.23 331.11 195.997 330.971 195.795C330.831 195.594 330.63 195.436 330.366 195.322C330.104 195.209 329.789 195.152 329.42 195.152H328.648V193.933H329.42C329.724 193.933 329.989 193.881 330.216 193.776C330.447 193.67 330.627 193.523 330.758 193.332C330.888 193.139 330.952 192.916 330.949 192.663C330.952 192.416 330.897 192.202 330.783 192.02C330.672 191.835 330.515 191.692 330.31 191.589C330.108 191.487 329.871 191.436 329.599 191.436C329.331 191.436 329.084 191.484 328.857 191.581C328.63 191.678 328.447 191.815 328.307 191.994C328.168 192.17 328.094 192.381 328.086 192.625H326.564C326.576 192.136 326.716 191.707 326.986 191.338C327.259 190.966 327.623 190.676 328.077 190.469C328.532 190.259 329.042 190.153 329.607 190.153C330.189 190.153 330.695 190.263 331.124 190.482C331.556 190.697 331.89 190.989 332.126 191.355C332.361 191.722 332.479 192.126 332.479 192.57C332.482 193.061 332.337 193.473 332.045 193.805C331.755 194.138 331.374 194.355 330.903 194.457V194.526C331.516 194.611 331.986 194.838 332.313 195.207C332.643 195.574 332.806 196.03 332.803 196.575C332.803 197.064 332.664 197.501 332.385 197.888C332.11 198.271 331.729 198.572 331.243 198.791C330.76 199.01 330.206 199.119 329.581 199.119ZM337.492 199.166C336.79 199.166 336.188 198.989 335.685 198.634C335.185 198.276 334.8 197.76 334.53 197.087C334.263 196.411 334.129 195.597 334.129 194.645C334.132 193.693 334.267 192.884 334.534 192.216C334.804 191.545 335.189 191.034 335.689 190.682C336.192 190.33 336.793 190.153 337.492 190.153C338.191 190.153 338.791 190.33 339.294 190.682C339.797 191.034 340.182 191.545 340.449 192.216C340.719 192.886 340.854 193.696 340.854 194.645C340.854 195.599 340.719 196.415 340.449 197.091C340.182 197.764 339.797 198.278 339.294 198.634C338.794 198.989 338.193 199.166 337.492 199.166ZM337.492 197.832C338.037 197.832 338.468 197.564 338.783 197.027C339.101 196.487 339.26 195.693 339.26 194.645C339.26 193.952 339.188 193.369 339.043 192.898C338.898 192.426 338.693 192.071 338.429 191.832C338.165 191.591 337.852 191.47 337.492 191.47C336.949 191.47 336.52 191.74 336.205 192.28C335.889 192.817 335.73 193.605 335.727 194.645C335.725 195.341 335.794 195.926 335.936 196.401C336.081 196.875 336.286 197.233 336.55 197.474C336.814 197.713 337.128 197.832 337.492 197.832ZM343.693 196.946L343.689 195.084H343.936L346.288 192.455H348.091L345.197 195.676H344.878L343.693 196.946ZM342.287 199V190.273H343.829V199H342.287ZM346.395 199L344.264 196.021L345.304 194.935L348.24 199H346.395Z" fill="white"/>
<path d="M0.775568 175V173.858L3.8054 170.888C4.09517 170.595 4.33665 170.335 4.52983 170.108C4.72301 169.881 4.8679 169.661 4.96449 169.447C5.06108 169.234 5.10938 169.007 5.10938 168.766C5.10938 168.49 5.04688 168.254 4.92188 168.058C4.79688 167.859 4.625 167.706 4.40625 167.598C4.1875 167.49 3.93892 167.436 3.66051 167.436C3.37358 167.436 3.12216 167.496 2.90625 167.615C2.69034 167.732 2.52273 167.898 2.40341 168.114C2.28693 168.33 2.22869 168.587 2.22869 168.885H0.724432C0.724432 168.331 0.850852 167.849 1.10369 167.44C1.35653 167.031 1.70455 166.714 2.14773 166.49C2.59375 166.266 3.10511 166.153 3.68182 166.153C4.26705 166.153 4.78125 166.263 5.22443 166.482C5.66761 166.7 6.01136 167 6.25568 167.381C6.50284 167.761 6.62642 168.196 6.62642 168.685C6.62642 169.011 6.56392 169.332 6.43892 169.648C6.31392 169.963 6.09375 170.312 5.77841 170.696C5.46591 171.08 5.02699 171.544 4.46165 172.089L2.95739 173.619V173.679H6.75852V175H0.775568ZM11.4545 175.166C10.7528 175.166 10.1506 174.989 9.64773 174.634C9.14773 174.276 8.76278 173.76 8.4929 173.087C8.22585 172.411 8.09233 171.597 8.09233 170.645C8.09517 169.693 8.23011 168.884 8.49716 168.216C8.76705 167.545 9.15199 167.034 9.65199 166.682C10.1548 166.33 10.7557 166.153 11.4545 166.153C12.1534 166.153 12.7543 166.33 13.2571 166.682C13.7599 167.034 14.1449 167.545 14.4119 168.216C14.6818 168.886 14.8168 169.696 14.8168 170.645C14.8168 171.599 14.6818 172.415 14.4119 173.091C14.1449 173.764 13.7599 174.278 13.2571 174.634C12.7571 174.989 12.1563 175.166 11.4545 175.166ZM11.4545 173.832C12 173.832 12.4304 173.564 12.7457 173.027C13.0639 172.487 13.223 171.693 13.223 170.645C13.223 169.952 13.1506 169.369 13.0057 168.898C12.8608 168.426 12.6563 168.071 12.392 167.832C12.1278 167.591 11.8153 167.47 11.4545 167.47C10.9119 167.47 10.483 167.74 10.1676 168.28C9.85227 168.817 9.69318 169.605 9.69034 170.645C9.6875 171.341 9.7571 171.926 9.89915 172.401C10.044 172.875 10.2486 173.233 10.5128 173.474C10.777 173.713 11.0909 173.832 11.4545 173.832Z" fill="white"/>
<g opacity="0.951521">
<path fill-rule="evenodd" clip-rule="evenodd" d="M27.8 169.64H500.601H27.8Z" fill="white"/>
<path d="M27.8 169.64H500.601" stroke="#EAEAEA" stroke-linecap="square"/>
<path fill-rule="evenodd" clip-rule="evenodd" d="M27.8 128.094H500.601H27.8Z" fill="white"/>
<path d="M27.8 128.094H500.601" stroke="#EAEAEA" stroke-linecap="square"/>
<path fill-rule="evenodd" clip-rule="evenodd" d="M27.8 86.5479H500.601H27.8Z" fill="white"/>
<path d="M27.8 86.5479H500.601" stroke="#EAEAEA" stroke-linecap="square"/>
<path fill-rule="evenodd" clip-rule="evenodd" d="M27.8 45.002H500.601H27.8Z" fill="white"/>
<path d="M27.8 45.002H500.601" stroke="#EAEAEA" stroke-linecap="square"/>
<path fill-rule="evenodd" clip-rule="evenodd" d="M27.8 3.45627H500.601H27.8Z" fill="white"/>
<path d="M27.8 3.45627H500.601" stroke="#EAEAEA" stroke-linecap="square"/>
</g>
<path d="M0.617898 132.381V131.124L4.32102 125.273H5.36932V127.062H4.73011L2.23722 131.013V131.081H7.40625V132.381H0.617898ZM4.78125 134V131.997L4.7983 131.435V125.273H6.28977V134H4.78125ZM11.9936 134.166C11.2919 134.166 10.6896 133.989 10.1868 133.634C9.68679 133.276 9.30185 132.76 9.03196 132.087C8.76491 131.411 8.63139 130.597 8.63139 129.645C8.63423 128.693 8.76918 127.884 9.03622 127.216C9.30611 126.545 9.69105 126.034 10.1911 125.682C10.6939 125.33 11.2947 125.153 11.9936 125.153C12.6925 125.153 13.2933 125.33 13.7962 125.682C14.299 126.034 14.6839 126.545 14.951 127.216C15.2209 127.886 15.3558 128.696 15.3558 129.645C15.3558 130.599 15.2209 131.415 14.951 132.091C14.6839 132.764 14.299 133.278 13.7962 133.634C13.2962 133.989 12.6953 134.166 11.9936 134.166ZM11.9936 132.832C12.5391 132.832 12.9695 132.564 13.2848 132.027C13.603 131.487 13.7621 130.693 13.7621 129.645C13.7621 128.952 13.6896 128.369 13.5447 127.898C13.3999 127.426 13.1953 127.071 12.9311 126.832C12.6669 126.591 12.3544 126.47 11.9936 126.47C11.451 126.47 11.022 126.74 10.7067 127.28C10.3913 127.817 10.2322 128.605 10.2294 129.645C10.2266 130.341 10.2962 130.926 10.4382 131.401C10.5831 131.875 10.7876 132.233 11.0518 132.474C11.3161 132.713 11.63 132.832 11.9936 132.832Z" fill="white"/>
<path d="M3.97159 92.1193C3.55398 92.1165 3.14631 92.044 2.74858 91.902C2.35085 91.7571 1.9929 91.5227 1.67472 91.1989C1.35653 90.8722 1.10369 90.4389 0.916193 89.8991C0.728693 89.3565 0.636364 88.6847 0.639205 87.8835C0.639205 87.1364 0.71875 86.4702 0.877841 85.8849C1.03693 85.2997 1.26562 84.8054 1.56392 84.402C1.86222 83.9957 2.22159 83.6861 2.64205 83.473C3.06534 83.2599 3.53835 83.1534 4.06108 83.1534C4.60938 83.1534 5.09517 83.2614 5.51847 83.4773C5.9446 83.6932 6.28835 83.9886 6.54972 84.3636C6.81108 84.7358 6.97301 85.1562 7.03551 85.625H5.48011C5.40057 85.2898 5.23722 85.0227 4.99006 84.8239C4.74574 84.6222 4.43608 84.5213 4.06108 84.5213C3.45597 84.5213 2.99006 84.7841 2.66335 85.3097C2.33949 85.8352 2.17614 86.5568 2.1733 87.4744H2.23295C2.37216 87.2244 2.55256 87.0099 2.77415 86.831C2.99574 86.652 3.24574 86.5142 3.52415 86.4176C3.8054 86.3182 4.10227 86.2685 4.41477 86.2685C4.92614 86.2685 5.38494 86.3906 5.79119 86.6349C6.20028 86.8793 6.52415 87.2159 6.76278 87.6449C7.00142 88.071 7.11932 88.5597 7.11648 89.1108C7.11932 89.6847 6.98864 90.2003 6.72443 90.6577C6.46023 91.1122 6.09233 91.4702 5.62074 91.7315C5.14915 91.9929 4.59943 92.1222 3.97159 92.1193ZM3.96307 90.8409C4.27273 90.8409 4.54972 90.7656 4.79403 90.6151C5.03835 90.4645 5.23153 90.2614 5.37358 90.0057C5.51563 89.75 5.58523 89.4631 5.58239 89.1449C5.58523 88.8324 5.51705 88.5497 5.37784 88.2969C5.24148 88.044 5.05256 87.8437 4.81108 87.696C4.5696 87.5483 4.29403 87.4744 3.98438 87.4744C3.75426 87.4744 3.53977 87.5185 3.34091 87.6065C3.14205 87.6946 2.96875 87.8168 2.82102 87.973C2.6733 88.1264 2.55682 88.3054 2.47159 88.5099C2.3892 88.7116 2.34659 88.9276 2.34375 89.1577C2.34659 89.4616 2.41761 89.7415 2.55682 89.9972C2.69602 90.2528 2.88778 90.4574 3.1321 90.6108C3.37642 90.7642 3.65341 90.8409 3.96307 90.8409ZM11.7827 92.1662C11.081 92.1662 10.4787 91.9886 9.97585 91.6335C9.47585 91.2756 9.09091 90.7599 8.82102 90.0866C8.55398 89.4105 8.42045 88.5966 8.42045 87.6449C8.4233 86.6932 8.55824 85.8835 8.82528 85.2159C9.09517 84.5455 9.48011 84.0341 9.98011 83.6818C10.483 83.3295 11.0838 83.1534 11.7827 83.1534C12.4815 83.1534 13.0824 83.3295 13.5852 83.6818C14.0881 84.0341 14.473 84.5455 14.7401 85.2159C15.0099 85.8864 15.1449 86.696 15.1449 87.6449C15.1449 88.5994 15.0099 89.4148 14.7401 90.0909C14.473 90.7642 14.0881 91.2784 13.5852 91.6335C13.0852 91.9886 12.4844 92.1662 11.7827 92.1662ZM11.7827 90.8324C12.3281 90.8324 12.7585 90.5639 13.0739 90.027C13.392 89.4872 13.5511 88.6932 13.5511 87.6449C13.5511 86.9517 13.4787 86.3693 13.3338 85.8977C13.1889 85.4261 12.9844 85.071 12.7202 84.8324C12.456 84.5909 12.1435 84.4702 11.7827 84.4702C11.2401 84.4702 10.8111 84.7401 10.4957 85.2798C10.1804 85.8168 10.0213 86.6051 10.0185 87.6449C10.0156 88.3409 10.0852 88.9261 10.2273 89.4006C10.3722 89.875 10.5767 90.233 10.8409 90.4744C11.1051 90.7131 11.419 90.8324 11.7827 90.8324Z" fill="white"/>
<path d="M3.87784 51.1193C3.24432 51.1193 2.68182 51.0128 2.19034 50.7997C1.7017 50.5866 1.31818 50.2955 1.03977 49.9261C0.764205 49.554 0.627841 49.1321 0.630682 48.6605C0.627841 48.294 0.707386 47.9574 0.869318 47.6506C1.03125 47.3438 1.25 47.0881 1.52557 46.8835C1.80398 46.6761 2.11364 46.544 2.45455 46.4872V46.4276C2.00568 46.3281 1.64205 46.0994 1.36364 45.7415C1.08807 45.3807 0.951705 44.9645 0.954545 44.4929C0.951705 44.044 1.0767 43.6435 1.32955 43.2912C1.58239 42.9389 1.92898 42.6619 2.36932 42.4602C2.80966 42.2557 3.3125 42.1534 3.87784 42.1534C4.4375 42.1534 4.93608 42.2557 5.37358 42.4602C5.81392 42.6619 6.16051 42.9389 6.41335 43.2912C6.66903 43.6435 6.79688 44.044 6.79688 44.4929C6.79688 44.9645 6.65625 45.3807 6.375 45.7415C6.09659 46.0994 5.73722 46.3281 5.29688 46.4276V46.4872C5.63778 46.544 5.9446 46.6761 6.21733 46.8835C6.4929 47.0881 6.71165 47.3438 6.87358 47.6506C7.03835 47.9574 7.12074 48.294 7.12074 48.6605C7.12074 49.1321 6.98153 49.554 6.70312 49.9261C6.42472 50.2955 6.04119 50.5866 5.55256 50.7997C5.06676 51.0128 4.50852 51.1193 3.87784 51.1193ZM3.87784 49.9006C4.20455 49.9006 4.48864 49.8452 4.73011 49.7344C4.97159 49.6207 5.15909 49.4616 5.29261 49.2571C5.42614 49.0526 5.49432 48.8168 5.49716 48.5497C5.49432 48.2713 5.42188 48.0256 5.27983 47.8125C5.14063 47.5966 4.94886 47.4276 4.70455 47.3054C4.46307 47.1832 4.1875 47.1222 3.87784 47.1222C3.56534 47.1222 3.28693 47.1832 3.04261 47.3054C2.7983 47.4276 2.60511 47.5966 2.46307 47.8125C2.32386 48.0256 2.25568 48.2713 2.25852 48.5497C2.25568 48.8168 2.32102 49.0526 2.45455 49.2571C2.58807 49.4588 2.77557 49.6165 3.01705 49.7301C3.26136 49.8437 3.5483 49.9006 3.87784 49.9006ZM3.87784 45.9247C4.14489 45.9247 4.38068 45.8707 4.58523 45.7628C4.79261 45.6548 4.95597 45.5043 5.07528 45.3111C5.1946 45.1179 5.25568 44.8949 5.25852 44.642C5.25568 44.392 5.19602 44.1733 5.07955 43.9858C4.96307 43.7955 4.80114 43.6491 4.59375 43.5469C4.38636 43.4418 4.14773 43.3892 3.87784 43.3892C3.60227 43.3892 3.35938 43.4418 3.14915 43.5469C2.94176 43.6491 2.77983 43.7955 2.66335 43.9858C2.54972 44.1733 2.49432 44.392 2.49716 44.642C2.49432 44.8949 2.55114 45.1179 2.66761 45.3111C2.78693 45.5014 2.95028 45.652 3.15767 45.7628C3.3679 45.8707 3.60795 45.9247 3.87784 45.9247ZM11.7475 51.1662C11.0458 51.1662 10.4435 50.9886 9.9407 50.6335C9.4407 50.2756 9.05575 49.7599 8.78587 49.0866C8.51882 48.4105 8.3853 47.5966 8.3853 46.6449C8.38814 45.6932 8.52308 44.8835 8.79013 44.2159C9.06001 43.5455 9.44496 43.0341 9.94496 42.6818C10.4478 42.3295 11.0487 42.1534 11.7475 42.1534C12.4464 42.1534 13.0472 42.3295 13.5501 42.6818C14.0529 43.0341 14.4379 43.5455 14.7049 44.2159C14.9748 44.8864 15.1097 45.696 15.1097 46.6449C15.1097 47.5994 14.9748 48.4148 14.7049 49.0909C14.4379 49.7642 14.0529 50.2784 13.5501 50.6335C13.0501 50.9886 12.4492 51.1662 11.7475 51.1662ZM11.7475 49.8324C12.293 49.8324 12.7234 49.5639 13.0387 49.027C13.3569 48.4872 13.516 47.6932 13.516 46.6449C13.516 45.9517 13.4435 45.3693 13.2987 44.8977C13.1538 44.4261 12.9492 44.071 12.685 43.8324C12.4208 43.5909 12.1083 43.4702 11.7475 43.4702C11.2049 43.4702 10.7759 43.7401 10.4606 44.2798C10.1452 44.8168 9.98615 45.6051 9.98331 46.6449C9.98047 47.3409 10.0501 47.9261 10.1921 48.4006C10.337 48.875 10.5415 49.233 10.8058 49.4744C11.07 49.7131 11.3839 49.8324 11.7475 49.8324Z" fill="white"/>
<path d="M4.32528 0.272727V9H2.74432V1.81108H2.69318L0.651989 3.11506V1.66619L2.82102 0.272727H4.32528ZM9.76705 9.16619C9.06534 9.16619 8.46307 8.98864 7.96023 8.63352C7.46023 8.27557 7.07528 7.75994 6.8054 7.08665C6.53835 6.41051 6.40483 5.59659 6.40483 4.64489C6.40767 3.69318 6.54261 2.88352 6.80966 2.21591C7.07955 1.54545 7.46449 1.03409 7.96449 0.681818C8.46733 0.329545 9.06818 0.153409 9.76705 0.153409C10.4659 0.153409 11.0668 0.329545 11.5696 0.681818C12.0724 1.03409 12.4574 1.54545 12.7244 2.21591C12.9943 2.88636 13.1293 3.69602 13.1293 4.64489C13.1293 5.59943 12.9943 6.41477 12.7244 7.09091C12.4574 7.7642 12.0724 8.27841 11.5696 8.63352C11.0696 8.98864 10.4688 9.16619 9.76705 9.16619ZM9.76705 7.83239C10.3125 7.83239 10.7429 7.56392 11.0582 7.02699C11.3764 6.48722 11.5355 5.69318 11.5355 4.64489C11.5355 3.9517 11.4631 3.36932 11.3182 2.89773C11.1733 2.42614 10.9688 2.07102 10.7045 1.83239C10.4403 1.59091 10.1278 1.47017 9.76705 1.47017C9.22443 1.47017 8.79545 1.74006 8.48011 2.27983C8.16477 2.81676 8.00568 3.60511 8.00284 4.64489C8 5.34091 8.0696 5.92614 8.21165 6.40057C8.35653 6.875 8.56108 7.23295 8.82528 7.47443C9.08949 7.71307 9.40341 7.83239 9.76705 7.83239ZM17.771 9.16619C17.0692 9.16619 16.467 8.98864 15.9641 8.63352C15.4641 8.27557 15.0792 7.75994 14.8093 7.08665C14.5423 6.41051 14.4087 5.59659 14.4087 4.64489C14.4116 3.69318 14.5465 2.88352 14.8136 2.21591C15.0835 1.54545 15.4684 1.03409 15.9684 0.681818C16.4712 0.329545 17.0721 0.153409 17.771 0.153409C18.4698 0.153409 19.0707 0.329545 19.5735 0.681818C20.0763 1.03409 20.4613 1.54545 20.7283 2.21591C20.9982 2.88636 21.1332 3.69602 21.1332 4.64489C21.1332 5.59943 20.9982 6.41477 20.7283 7.09091C20.4613 7.7642 20.0763 8.27841 19.5735 8.63352C19.0735 8.98864 18.4727 9.16619 17.771 9.16619ZM17.771 7.83239C18.3164 7.83239 18.7468 7.56392 19.0621 7.02699C19.3803 6.48722 19.5394 5.69318 19.5394 4.64489C19.5394 3.9517 19.467 3.36932 19.3221 2.89773C19.1772 2.42614 18.9727 2.07102 18.7085 1.83239C18.4442 1.59091 18.1317 1.47017 17.771 1.47017C17.2283 1.47017 16.7994 1.74006 16.484 2.27983C16.1687 2.81676 16.0096 3.60511 16.0067 4.64489C16.0039 5.34091 16.0735 5.92614 16.2156 6.40057C16.3604 6.875 16.565 7.23295 16.8292 7.47443C17.0934 7.71307 17.4073 7.83239 17.771 7.83239Z" fill="white"/>
<path opacity="0.78" fill-rule="evenodd" clip-rule="evenodd" d="M30.6167 169.2C30.6167 169.2 58.1191 70.4783 69.1645 70.4783C80.21 70.4783 105.088 144.018 132.621 144.018C160.154 144.018 168.851 118.461 204.34 108.241C239.83 98.0215 241.948 156.403 259.512 156.403C277.075 156.403 303.341 95.2236 316.12 95.2236C328.218 95.2236 332.724 156.403 369.939 156.403C407.154 156.403 430.37 31.2709 447.237 31.2709C464.104 31.2709 482.282 169.2 482.282 169.2H30.6167Z" fill="#6F34FF" fill-opacity="0.38"/>
<path fill-rule="evenodd" clip-rule="evenodd" d="M30.6167 169.288C30.6167 169.288 55.4379 148.742 76.3215 148.742C97.2052 148.742 98.5997 158.168 136.518 158.168C174.436 158.168 188.065 115.067 194.975 115.067C201.885 115.067 202.418 148.742 220.773 148.742C241.348 148.742 255.782 60.846 270.903 60.846C290.079 60.846 300.209 139.948 317.456 139.948C334.703 139.948 345.265 97.9837 362.868 97.9837C378.5 97.9837 389.557 141.462 400.767 146.36C412.594 151.527 418.042 110.419 440.279 110.419C462.517 110.419 484.1 169.288 484.1 169.288H30.6167Z" fill="#F93C65" fill-opacity="0.34"/>
<path fill-rule="evenodd" clip-rule="evenodd" d="M264 235.958C266.209 235.958 268 234.168 268 231.958C268 229.749 266.209 227.958 264 227.958C261.791 227.958 260 229.749 260 231.958C260 234.168 261.791 235.958 264 235.958Z" fill="#D4C3FF"/>
<path d="M290.232 239.917V228.637H295.128C295.96 228.637 296.664 228.775 297.24 229.053C297.816 229.33 298.253 229.73 298.552 230.253C298.851 230.775 299 231.41 299 232.157C299 232.893 298.851 233.527 298.552 234.061C298.253 234.583 297.816 234.989 297.24 235.277C296.664 235.554 295.96 235.693 295.128 235.693H292.28V239.917H290.232ZM292.28 234.077H294.808C295.533 234.077 296.083 233.917 296.456 233.597C296.829 233.266 297.016 232.786 297.016 232.157C297.016 231.527 296.829 231.053 296.456 230.733C296.083 230.413 295.533 230.253 294.808 230.253H292.28V234.077ZM300.321 239.917V232.093H302.273V233.981H302.113C302.263 233.341 302.556 232.855 302.993 232.525C303.431 232.183 304.012 231.986 304.737 231.933L305.345 231.885L305.473 233.581L304.321 233.693C303.671 233.757 303.18 233.959 302.849 234.301C302.519 234.631 302.353 235.101 302.353 235.709V239.917H300.321ZM310.03 240.077C309.219 240.077 308.515 239.911 307.918 239.581C307.321 239.25 306.857 238.781 306.526 238.173C306.195 237.554 306.03 236.829 306.03 235.997C306.03 235.165 306.195 234.445 306.526 233.837C306.857 233.229 307.321 232.759 307.918 232.429C308.515 232.098 309.219 231.933 310.03 231.933C310.841 231.933 311.545 232.098 312.142 232.429C312.739 232.759 313.203 233.229 313.534 233.837C313.865 234.445 314.03 235.165 314.03 235.997C314.03 236.829 313.865 237.554 313.534 238.173C313.203 238.781 312.739 239.25 312.142 239.581C311.545 239.911 310.841 240.077 310.03 240.077ZM310.03 238.557C310.627 238.557 311.107 238.343 311.47 237.917C311.833 237.479 312.014 236.839 312.014 235.997C312.014 235.143 311.833 234.509 311.47 234.093C311.107 233.666 310.627 233.453 310.03 233.453C309.433 233.453 308.953 233.666 308.59 234.093C308.227 234.509 308.046 235.143 308.046 235.997C308.046 236.839 308.227 237.479 308.59 237.917C308.953 238.343 309.433 238.557 310.03 238.557ZM316.131 239.917V233.597H314.627V232.093H316.707L316.131 232.621V232.077C316.131 230.967 316.419 230.13 316.995 229.565C317.581 228.999 318.488 228.679 319.715 228.605L320.419 228.573L320.515 230.045L319.891 230.077C319.464 230.098 319.123 230.178 318.867 230.317C318.611 230.445 318.424 230.626 318.307 230.861C318.189 231.095 318.131 231.394 318.131 231.757V232.285V232.093H323.299V239.917H321.299V233.597H318.131V239.917H316.131ZM321.187 230.413V228.461H323.411V230.413H321.187ZM328.968 240.077C327.922 240.077 327.144 239.815 326.632 239.293C326.12 238.77 325.864 238.007 325.864 237.005V233.597H324.36V232.093H325.864V229.757H327.864V232.093H330.232V233.597H327.864V236.893C327.864 237.405 327.976 237.789 328.2 238.045C328.424 238.301 328.786 238.429 329.288 238.429C329.437 238.429 329.592 238.413 329.752 238.381C329.912 238.338 330.077 238.295 330.248 238.253L330.552 239.725C330.36 239.831 330.114 239.917 329.816 239.981C329.528 240.045 329.245 240.077 328.968 240.077Z" fill="#6A7177"/>
<path fill-rule="evenodd" clip-rule="evenodd" d="M152 238.917C154.209 238.917 156 237.126 156 234.917C156 232.708 154.209 230.917 152 230.917C149.791 230.917 148 232.708 148 234.917C148 237.126 149.791 238.917 152 238.917Z" fill="#FDBDCB"/>
<path d="M180.486 239.917V228.637H187.99V230.269H182.454V233.373H187.638V235.005H182.454V238.285H187.99V239.917H180.486ZM188.753 239.917L192.417 235.405V236.349L188.961 232.093H191.297L193.537 234.957H192.833L195.073 232.093H197.409L193.953 236.333V235.437L197.617 239.917H195.265L192.833 236.845H193.505L191.089 239.917H188.753ZM198.575 242.797V232.093H200.527V233.741H200.367C200.527 233.197 200.853 232.759 201.343 232.429C201.845 232.098 202.426 231.933 203.087 231.933C203.77 231.933 204.367 232.098 204.879 232.429C205.402 232.759 205.807 233.229 206.095 233.837C206.383 234.434 206.527 235.154 206.527 235.997C206.527 236.829 206.383 237.554 206.095 238.173C205.807 238.781 205.407 239.25 204.895 239.581C204.383 239.911 203.781 240.077 203.087 240.077C202.437 240.077 201.866 239.917 201.375 239.597C200.885 239.266 200.554 238.839 200.383 238.317H200.575V242.797H198.575ZM202.527 238.557C203.125 238.557 203.605 238.343 203.967 237.917C204.33 237.479 204.511 236.839 204.511 235.997C204.511 235.143 204.33 234.509 203.967 234.093C203.605 233.666 203.125 233.453 202.527 233.453C201.93 233.453 201.45 233.666 201.087 234.093C200.725 234.509 200.543 235.143 200.543 235.997C200.543 236.839 200.725 237.479 201.087 237.917C201.45 238.343 201.93 238.557 202.527 238.557ZM212.025 240.077C211.14 240.077 210.377 239.911 209.737 239.581C209.097 239.25 208.601 238.781 208.249 238.173C207.908 237.565 207.737 236.845 207.737 236.013C207.737 235.202 207.902 234.493 208.233 233.885C208.574 233.277 209.038 232.802 209.625 232.461C210.222 232.109 210.9 231.933 211.657 231.933C212.404 231.933 213.044 232.093 213.577 232.413C214.11 232.733 214.521 233.186 214.809 233.773C215.108 234.359 215.257 235.058 215.257 235.869V236.461H209.353V235.309H213.849L213.593 235.549C213.593 234.823 213.433 234.269 213.113 233.885C212.793 233.49 212.334 233.293 211.737 233.293C211.289 233.293 210.905 233.399 210.585 233.613C210.276 233.815 210.036 234.109 209.865 234.493C209.705 234.866 209.625 235.314 209.625 235.837V235.949C209.625 236.535 209.716 237.021 209.897 237.405C210.078 237.789 210.35 238.077 210.713 238.269C211.076 238.461 211.524 238.557 212.057 238.557C212.494 238.557 212.932 238.493 213.369 238.365C213.806 238.226 214.206 238.013 214.569 237.725L215.129 239.069C214.756 239.378 214.286 239.623 213.721 239.805C213.156 239.986 212.59 240.077 212.025 240.077ZM216.841 239.917V232.093H218.793V233.661H218.617C218.852 233.095 219.214 232.669 219.705 232.381C220.206 232.082 220.772 231.933 221.401 231.933C222.03 231.933 222.548 232.05 222.953 232.285C223.358 232.519 223.662 232.877 223.865 233.357C224.068 233.826 224.169 234.423 224.169 235.149V239.917H222.169V235.245C222.169 234.839 222.116 234.509 222.009 234.253C221.913 233.997 221.758 233.81 221.545 233.693C221.342 233.565 221.081 233.501 220.761 233.501C220.377 233.501 220.041 233.586 219.753 233.757C219.465 233.917 219.241 234.151 219.081 234.461C218.921 234.759 218.841 235.111 218.841 235.517V239.917H216.841ZM229.064 240.077C228.627 240.077 228.2 240.039 227.784 239.965C227.379 239.89 227.006 239.789 226.664 239.661C226.323 239.522 226.024 239.351 225.768 239.149L226.28 237.837C226.547 238.007 226.835 238.157 227.144 238.285C227.454 238.413 227.774 238.509 228.104 238.573C228.435 238.637 228.76 238.669 229.08 238.669C229.592 238.669 229.971 238.583 230.216 238.413C230.472 238.231 230.6 237.997 230.6 237.709C230.6 237.463 230.515 237.277 230.344 237.149C230.184 237.01 229.939 236.909 229.608 236.845L228.008 236.541C227.347 236.413 226.84 236.173 226.488 235.821C226.147 235.458 225.976 234.994 225.976 234.429C225.976 233.917 226.115 233.474 226.392 233.101C226.68 232.727 227.075 232.439 227.576 232.237C228.078 232.034 228.654 231.933 229.304 231.933C229.678 231.933 230.04 231.97 230.392 232.045C230.744 232.109 231.075 232.21 231.384 232.349C231.704 232.477 231.982 232.647 232.216 232.861L231.672 234.173C231.47 234.002 231.235 233.858 230.968 233.741C230.702 233.613 230.424 233.517 230.136 233.453C229.859 233.378 229.587 233.341 229.32 233.341C228.798 233.341 228.408 233.431 228.152 233.613C227.907 233.794 227.784 234.034 227.784 234.333C227.784 234.557 227.859 234.743 228.008 234.893C228.158 235.042 228.387 235.143 228.696 235.197L230.296 235.501C230.99 235.629 231.512 235.863 231.864 236.205C232.227 236.546 232.408 237.005 232.408 237.581C232.408 238.103 232.27 238.551 231.992 238.925C231.715 239.298 231.326 239.586 230.824 239.789C230.323 239.981 229.736 240.077 229.064 240.077ZM237.869 240.077C236.984 240.077 236.221 239.911 235.581 239.581C234.941 239.25 234.445 238.781 234.093 238.173C233.752 237.565 233.581 236.845 233.581 236.013C233.581 235.202 233.746 234.493 234.077 233.885C234.418 233.277 234.882 232.802 235.469 232.461C236.066 232.109 236.744 231.933 237.501 231.933C238.248 231.933 238.888 232.093 239.421 232.413C239.954 232.733 240.365 233.186 240.653 233.773C240.952 234.359 241.101 235.058 241.101 235.869V236.461H235.197V235.309H239.693L239.437 235.549C239.437 234.823 239.277 234.269 238.957 233.885C238.637 233.49 238.178 233.293 237.581 233.293C237.133 233.293 236.749 233.399 236.429 233.613C236.12 233.815 235.88 234.109 235.709 234.493C235.549 234.866 235.469 235.314 235.469 235.837V235.949C235.469 236.535 235.56 237.021 235.741 237.405C235.922 237.789 236.194 238.077 236.557 238.269C236.92 238.461 237.368 238.557 237.901 238.557C238.338 238.557 238.776 238.493 239.213 238.365C239.65 238.226 240.05 238.013 240.413 237.725L240.973 239.069C240.6 239.378 240.13 239.623 239.565 239.805C239 239.986 238.434 240.077 237.869 240.077ZM245.549 240.077C245.111 240.077 244.685 240.039 244.269 239.965C243.863 239.89 243.49 239.789 243.149 239.661C242.807 239.522 242.509 239.351 242.253 239.149L242.765 237.837C243.031 238.007 243.319 238.157 243.629 238.285C243.938 238.413 244.258 238.509 244.589 238.573C244.919 238.637 245.245 238.669 245.565 238.669C246.077 238.669 246.455 238.583 246.701 238.413C246.957 238.231 247.085 237.997 247.085 237.709C247.085 237.463 246.999 237.277 246.829 237.149C246.669 237.01 246.423 236.909 246.093 236.845L244.493 236.541C243.831 236.413 243.325 236.173 242.973 235.821C242.631 235.458 242.461 234.994 242.461 234.429C242.461 233.917 242.599 233.474 242.877 233.101C243.165 232.727 243.559 232.439 244.061 232.237C244.562 232.034 245.138 231.933 245.789 231.933C246.162 231.933 246.525 231.97 246.877 232.045C247.229 232.109 247.559 232.21 247.869 232.349C248.189 232.477 248.466 232.647 248.701 232.861L248.157 234.173C247.954 234.002 247.719 233.858 247.453 233.741C247.186 233.613 246.909 233.517 246.621 233.453C246.343 233.378 246.071 233.341 245.805 233.341C245.282 233.341 244.893 233.431 244.637 233.613C244.391 233.794 244.269 234.034 244.269 234.333C244.269 234.557 244.343 234.743 244.493 234.893C244.642 235.042 244.871 235.143 245.181 235.197L246.781 235.501C247.474 235.629 247.997 235.863 248.349 236.205C248.711 236.546 248.893 237.005 248.893 237.581C248.893 238.103 248.754 238.551 248.477 238.925C248.199 239.298 247.81 239.586 247.309 239.789C246.807 239.981 246.221 240.077 245.549 240.077Z" fill="#6A7177"/>
</svg>
