<svg width="21" height="26" viewBox="0 0 21 26" fill="none" xmlns="http://www.w3.org/2000/svg">
<g clip-path="url(#clip0_58_65)">
<path d="M2.92748 14.4197L0.229568 20.25C0.129332 20.4723 0.00856616 21.0074 0.00856616 21.0074C-0.167752 23.0173 2.69078 24.3052 2.69078 24.3052C2.22221 23.0345 2.56881 22.379 2.56881 22.379L4.70636 17.2569L2.92748 14.4197Z" fill="white"/>
<path d="M18.0714 14.2719L20.7693 20.1022C20.8696 20.3233 20.9903 20.8596 20.9903 20.8596C21.1666 22.8695 18.3081 24.1574 18.3081 24.1574C18.7767 22.8866 18.4289 22.2312 18.4289 22.2312L16.5232 17.1607L18.0714 14.2719Z" fill="white"/>
<path d="M10.3727 0L6.135 6.96924C6.135 6.96924 4.79933 8.87025 6.55285 11.6421L7.48154 13.0286C7.48154 13.0286 7.41029 11.2617 7.79433 10.6028L10.3727 6.28629L12.9583 10.4836C12.9583 10.4836 13.678 11.8988 13.2928 13.0275C13.2928 13.0275 14.9413 10.8194 14.9932 9.83967C14.9932 9.83967 15.3265 7.64187 14.4292 6.64266L10.3727 0Z" fill="white"/>
<path d="M16.0051 8.63764C16.3179 10.8354 14.5861 12.8751 14.5861 12.8751L10.3725 19.7252L6.72903 13.5924L6.42953 13.7769L6.50199 14.0599L6.47059 14.6157L6.1723 15.1714L5.89454 15.3766L5.44529 15.5519L5.07212 15.6L4.70379 15.5439L4.45259 15.4499L4.26782 15.3181L10.3713 26C10.3713 26 17.3395 15.27 17.7779 13.3289C18.2163 11.3889 16.0051 8.63764 16.0051 8.63764Z" fill="#540000"/>
<path d="M0.751221 8.28929C0.751221 8.28929 2.58807 8.79692 3.26798 9.70216C3.9479 10.6074 4.99373 12.8132 4.99373 12.8132C4.99373 12.8132 6.07096 12.8556 6.59388 13.6807L6.72914 13.5924L4.31623 9.23808C4.31623 9.23808 2.93588 7.81948 0.751221 8.28929Z" fill="#540000"/>
<path d="M0.399658 8.90692L3.22558 9.9405L3.67725 10.8194L0.88393 9.58528C0.88393 9.58528 0.443134 9.29079 0.399658 8.90692Z" fill="#540000"/>
<path d="M3.92856 11.6983L1.21495 10.6842L0.998779 10.1662L3.47811 11.1288C3.47811 11.1288 3.87301 11.3671 3.92856 11.6983Z" fill="#540000"/>
<path d="M4.55651 12.8545L1.8441 11.8404L1.62793 11.3224L4.10726 12.285C4.10605 12.285 4.50216 12.5233 4.55651 12.8545Z" fill="#540000"/>
<path d="M1.25482 9.97374C1.25482 10.0345 1.20289 10.0837 1.13888 10.0837C1.07488 10.0837 1.02295 10.0345 1.02295 9.97374C1.02295 9.913 1.07488 9.86373 1.13888 9.86373C1.20289 9.86373 1.25482 9.913 1.25482 9.97374Z" fill="#540000"/>
<path d="M1.716 10.1422C1.716 10.2029 1.66407 10.2522 1.60007 10.2522C1.53606 10.2522 1.48413 10.2029 1.48413 10.1422C1.48413 10.0814 1.53606 10.0322 1.60007 10.0322C1.66407 10.0322 1.716 10.0814 1.716 10.1422Z" fill="#540000"/>
<path d="M2.13763 10.3232C2.13763 10.384 2.0857 10.4332 2.0217 10.4332C1.95769 10.4332 1.90576 10.384 1.90576 10.3232C1.90576 10.2625 1.95769 10.2132 2.0217 10.2132C2.0857 10.2132 2.13763 10.2625 2.13763 10.3232Z" fill="#540000"/>
<path d="M2.62054 10.5192C2.62054 10.5799 2.56861 10.6292 2.50461 10.6292C2.4406 10.6292 2.38867 10.5799 2.38867 10.5192C2.38867 10.4584 2.4406 10.4092 2.50461 10.4092C2.56861 10.4092 2.62054 10.4584 2.62054 10.5192Z" fill="#540000"/>
<path d="M3.03973 10.6911C3.03973 10.7518 2.9878 10.8011 2.9238 10.8011C2.85979 10.8011 2.80786 10.7518 2.80786 10.6911C2.80786 10.6303 2.85979 10.581 2.9238 10.581C2.9878 10.581 3.03973 10.6303 3.03973 10.6911Z" fill="#540000"/>
<path d="M2.00238 11.1723C2.00238 11.2331 1.95045 11.2823 1.88644 11.2823C1.82244 11.2823 1.77051 11.2331 1.77051 11.1723C1.77051 11.1116 1.82244 11.0623 1.88644 11.0623C1.94924 11.0623 2.00238 11.1116 2.00238 11.1723Z" fill="#540000"/>
<path d="M2.46356 11.3419C2.46356 11.4026 2.41163 11.4519 2.34762 11.4519C2.28362 11.4519 2.23169 11.4026 2.23169 11.3419C2.23169 11.2812 2.28362 11.2319 2.34762 11.2319C2.41163 11.2319 2.46356 11.2812 2.46356 11.3419Z" fill="#540000"/>
<path d="M2.88519 11.523C2.88519 11.5837 2.83326 11.633 2.76926 11.633C2.70525 11.633 2.65332 11.5837 2.65332 11.523C2.65332 11.4622 2.70525 11.413 2.76926 11.413C2.83326 11.4118 2.88519 11.4622 2.88519 11.523Z" fill="#540000"/>
<path d="M3.3681 11.7189C3.3681 11.7796 3.31617 11.8289 3.25217 11.8289C3.18816 11.8289 3.13623 11.7796 3.13623 11.7189C3.13623 11.6582 3.18816 11.6089 3.25217 11.6089C3.31617 11.6078 3.3681 11.6582 3.3681 11.7189Z" fill="#540000"/>
<path d="M3.78607 11.8908C3.78607 11.9515 3.73414 12.0008 3.67013 12.0008C3.60613 12.0008 3.5542 11.9515 3.5542 11.8908C3.5542 11.8301 3.60613 11.7808 3.67013 11.7808C3.73414 11.7796 3.78607 11.8301 3.78607 11.8908Z" fill="#540000"/>
<path d="M6.47786 14.3854C6.47786 15.0282 5.92838 15.5507 5.24967 15.5507C4.57218 15.5507 4.02148 15.0294 4.02148 14.3854C4.02148 13.7425 4.57097 13.22 5.24967 13.22C5.92838 13.2212 6.47786 13.7425 6.47786 14.3854Z" stroke="#540000" stroke-width="2.65" stroke-miterlimit="10"/>
<path d="M3.62899 12.7548C3.85482 12.7937 4.00457 13 3.96351 13.2143C3.92245 13.4286 3.70507 13.5706 3.47924 13.5317C3.25341 13.4927 3.10366 13.2865 3.14472 13.0722C3.18578 12.8568 3.40316 12.7147 3.62899 12.7548Z" fill="#540000"/>
<path d="M5.34039 13.919C5.60969 13.966 5.78843 14.2112 5.73891 14.4667C5.6894 14.7223 5.43096 14.8918 5.16165 14.8449C4.89234 14.7979 4.71361 14.5527 4.76312 14.2971C4.81264 14.0416 5.07108 13.8732 5.34039 13.919Z" fill="#540000"/>
<path d="M2.57479 12.3514C2.80062 12.3904 2.95037 12.5967 2.90931 12.8109C2.86825 13.0252 2.65087 13.1673 2.42504 13.1283C2.19921 13.0894 2.04946 12.8831 2.09052 12.6688C2.13279 12.4546 2.34896 12.3125 2.57479 12.3514Z" fill="#540000"/>
</g>
<defs>
<clipPath id="clip0_58_65">
<rect width="21" height="26" fill="white"/>
</clipPath>
</defs>
</svg>
