<svg width="61" height="61" viewBox="0 0 61 61" fill="none" xmlns="http://www.w3.org/2000/svg">
<path d="M60.7269 30.3635C60.7269 47.1327 47.1327 60.7269 30.3635 60.7269C13.5942 60.7269 0 47.1327 0 30.3635C0 13.5942 13.5942 0 30.3635 0C47.1327 0 60.7269 13.5942 60.7269 30.3635ZM4.79331 30.3635C4.79331 44.4855 16.2415 55.9336 30.3635 55.9336C44.4855 55.9336 55.9336 44.4855 55.9336 30.3635C55.9336 16.2415 44.4855 4.79331 30.3635 4.79331C16.2415 4.79331 4.79331 16.2415 4.79331 30.3635Z" fill="#5C5C5C"/>
<path d="M10.8609 50.139C9.925 51.0749 9.91923 52.6005 10.9261 53.4598C14.1022 56.1703 17.8103 58.2024 21.8224 59.4195C26.6007 60.869 31.6627 61.1176 36.5601 60.1435C41.4574 59.1693 46.039 57.0024 49.8988 53.8347C53.7587 50.667 56.7778 46.5963 58.6886 41.9831C60.5995 37.3698 61.3431 32.3566 60.8537 27.3873C60.3643 22.4181 58.6569 17.6462 55.8828 13.4944C53.1086 9.34265 49.3534 5.93911 44.9497 3.58528C40.546 1.23145 35.6298 3.76984e-07 30.6365 0V4.79331C34.8415 4.79331 38.9816 5.83036 42.6902 7.8126C46.3987 9.79484 49.5611 12.6611 51.8973 16.1574C54.2335 19.6538 55.6713 23.6724 56.0835 27.8571C56.4957 32.0419 55.8694 36.2638 54.2602 40.1487C52.651 44.0337 50.1085 47.4618 46.858 50.1295C43.6075 52.7971 39.7492 54.6219 35.625 55.4423C31.5007 56.2626 27.2378 56.0532 23.2138 54.8326C19.9563 53.8444 16.9368 52.2182 14.3272 50.0572C13.3078 49.2129 11.7969 49.203 10.8609 50.139Z" fill="#07C603"/>
</svg>
