<svg width="260" height="206" viewBox="0 0 260 206" fill="none" xmlns="http://www.w3.org/2000/svg">
<rect x="19" y="145.013" width="13" height="23.9871" rx="6.5" fill="#82DF56"/>
<rect y="154.826" width="13" height="14.1742" rx="6.5" fill="#82DF56"/>
<rect x="38" y="136.29" width="13" height="32.7097" rx="6.5" fill="#82DF56"/>
<rect x="57" y="127.568" width="13" height="41.4323" rx="6.5" fill="#82DF56"/>
<rect x="76" y="116.665" width="13" height="52.3355" rx="6.5" fill="#82DF56"/>
<rect x="95" y="105.761" width="13" height="63.2387" rx="6.5" fill="#6DBC48"/>
<rect x="114" y="94.8581" width="13" height="74.1419" rx="6.5" fill="#6DBC48"/>
<rect x="133" y="81.7742" width="13" height="87.2258" rx="6.5" fill="#65AC43"/>
<rect x="152" y="71.9613" width="13" height="97.0387" rx="6.5" fill="#65AC43"/>
<rect x="171" y="59.9677" width="13" height="109.032" rx="6.5" fill="#4E8733"/>
<rect x="190" y="45.7935" width="13" height="123.206" rx="6.5" fill="#4E8733"/>
<rect x="209" y="30.529" width="13" height="138.471" rx="6.5" fill="#43732C"/>
<rect x="228" y="15.2645" width="13" height="153.735" rx="6.5" fill="#43732C"/>
<rect x="247" width="13" height="169" rx="6.5" fill="#386026"/>
<path d="M34.767 190.364V202H32.6591V192.415H32.5909L29.8693 194.153V192.222L32.7614 190.364H34.767ZM38.1477 202L43.0966 192.205V192.125H37.3523V190.364H45.2784V192.165L40.3352 202H38.1477ZM46.402 202.125C46.0573 202.125 45.7618 202.004 45.5156 201.761C45.2694 201.519 45.1482 201.223 45.152 200.875C45.1482 200.534 45.2694 200.242 45.5156 200C45.7618 199.758 46.0573 199.636 46.402 199.636C46.7353 199.636 47.0251 199.758 47.2713 200C47.5213 200.242 47.6482 200.534 47.652 200.875C47.6482 201.106 47.5876 201.316 47.4702 201.506C47.3565 201.695 47.205 201.847 47.0156 201.96C46.83 202.07 46.6255 202.125 46.402 202.125ZM53.4517 202.159C52.607 202.159 51.857 202.017 51.2017 201.733C50.5502 201.449 50.0388 201.061 49.6676 200.568C49.3002 200.072 49.1184 199.509 49.1222 198.881C49.1184 198.392 49.2244 197.943 49.4403 197.534C49.6563 197.125 49.9479 196.784 50.3153 196.511C50.6866 196.235 51.0994 196.059 51.554 195.983V195.903C50.9555 195.771 50.4706 195.466 50.0994 194.989C49.732 194.508 49.5502 193.953 49.554 193.324C49.5502 192.725 49.7169 192.191 50.054 191.722C50.3911 191.252 50.8532 190.883 51.4403 190.614C52.0275 190.341 52.6979 190.205 53.4517 190.205C54.1979 190.205 54.8627 190.341 55.446 190.614C56.0331 190.883 56.4953 191.252 56.8324 191.722C57.1733 192.191 57.3438 192.725 57.3438 193.324C57.3438 193.953 57.1562 194.508 56.7812 194.989C56.41 195.466 55.9309 195.771 55.3438 195.903V195.983C55.7983 196.059 56.2074 196.235 56.571 196.511C56.9384 196.784 57.2301 197.125 57.446 197.534C57.6657 197.943 57.7756 198.392 57.7756 198.881C57.7756 199.509 57.59 200.072 57.2188 200.568C56.8475 201.061 56.3362 201.449 55.6847 201.733C55.0369 202.017 54.2926 202.159 53.4517 202.159ZM53.4517 200.534C53.8873 200.534 54.2661 200.46 54.5881 200.312C54.91 200.161 55.16 199.949 55.3381 199.676C55.5161 199.403 55.607 199.089 55.6108 198.733C55.607 198.362 55.5104 198.034 55.321 197.75C55.1354 197.462 54.8797 197.237 54.554 197.074C54.232 196.911 53.8646 196.83 53.4517 196.83C53.035 196.83 52.6638 196.911 52.3381 197.074C52.0123 197.237 51.7547 197.462 51.5653 197.75C51.3797 198.034 51.2888 198.362 51.2926 198.733C51.2888 199.089 51.3759 199.403 51.554 199.676C51.732 199.945 51.982 200.155 52.304 200.307C52.6297 200.458 53.0123 200.534 53.4517 200.534ZM53.4517 195.233C53.8078 195.233 54.1222 195.161 54.3949 195.017C54.6714 194.873 54.8892 194.672 55.0483 194.415C55.2074 194.157 55.2888 193.86 55.2926 193.523C55.2888 193.189 55.2093 192.898 55.054 192.648C54.8987 192.394 54.6828 192.199 54.4062 192.062C54.1297 191.922 53.8116 191.852 53.4517 191.852C53.0843 191.852 52.7604 191.922 52.4801 192.062C52.2036 192.199 51.9877 192.394 51.8324 192.648C51.6809 192.898 51.607 193.189 51.6108 193.523C51.607 193.86 51.6828 194.157 51.8381 194.415C51.9972 194.669 52.215 194.869 52.4915 195.017C52.7718 195.161 53.0919 195.233 53.4517 195.233ZM65.8651 199.818V199.205C65.8651 198.754 65.9598 198.339 66.1491 197.96C66.3423 197.581 66.6226 197.277 66.9901 197.045C67.3575 196.814 67.8026 196.699 68.3253 196.699C68.8632 196.699 69.3139 196.814 69.6776 197.045C70.0412 197.273 70.3158 197.576 70.5014 197.955C70.6908 198.333 70.7855 198.75 70.7855 199.205V199.818C70.7855 200.269 70.6908 200.684 70.5014 201.062C70.312 201.441 70.0336 201.746 69.6662 201.977C69.3026 202.208 68.8556 202.324 68.3253 202.324C67.795 202.324 67.3461 202.208 66.9787 201.977C66.6113 201.746 66.3329 201.441 66.1435 201.062C65.9579 200.684 65.8651 200.269 65.8651 199.818ZM67.348 199.205V199.818C67.348 200.117 67.42 200.392 67.5639 200.642C67.7079 200.892 67.9616 201.017 68.3253 201.017C68.6927 201.017 68.9446 200.894 69.081 200.648C69.2211 200.398 69.2912 200.121 69.2912 199.818V199.205C69.2912 198.902 69.2249 198.625 69.0923 198.375C68.9598 198.121 68.7041 197.994 68.3253 197.994C67.9692 197.994 67.7173 198.121 67.5696 198.375C67.4219 198.625 67.348 198.902 67.348 199.205ZM59.9503 193.159V192.545C59.9503 192.091 60.0469 191.674 60.2401 191.295C60.4332 190.917 60.7135 190.614 61.081 190.386C61.4484 190.155 61.8935 190.04 62.4162 190.04C62.9503 190.04 63.3991 190.155 63.7628 190.386C64.1302 190.614 64.4067 190.917 64.5923 191.295C64.7779 191.674 64.8707 192.091 64.8707 192.545V193.159C64.8707 193.614 64.776 194.03 64.5866 194.409C64.401 194.784 64.1245 195.085 63.7571 195.312C63.3897 195.54 62.9427 195.653 62.4162 195.653C61.8821 195.653 61.4313 195.54 61.0639 195.312C60.7003 195.085 60.4238 194.782 60.2344 194.403C60.045 194.025 59.9503 193.61 59.9503 193.159ZM61.4446 192.545V193.159C61.4446 193.462 61.5147 193.739 61.6548 193.989C61.7988 194.235 62.0526 194.358 62.4162 194.358C62.7798 194.358 63.0298 194.235 63.1662 193.989C63.3063 193.739 63.3764 193.462 63.3764 193.159V192.545C63.3764 192.242 63.3101 191.966 63.1776 191.716C63.045 191.462 62.7912 191.335 62.4162 191.335C62.0563 191.335 61.8045 191.462 61.6605 191.716C61.5166 191.97 61.4446 192.246 61.4446 192.545ZM60.598 202L68.598 190.364H70.0185L62.0185 202H60.598Z" fill="#81DF55"/>
<path d="M81.5554 193.273V194.864H76.3963V193.273H81.5554ZM77.6861 202V192.449C77.6861 191.862 77.8073 191.373 78.0497 190.983C78.2959 190.593 78.6255 190.301 79.0384 190.108C79.4512 189.915 79.9096 189.818 80.4134 189.818C80.7694 189.818 81.0857 189.847 81.3622 189.903C81.6387 189.96 81.8433 190.011 81.9759 190.057L81.5668 191.648C81.4796 191.621 81.3698 191.595 81.2372 191.568C81.1046 191.538 80.9569 191.523 80.794 191.523C80.4115 191.523 80.1406 191.616 79.9815 191.801C79.8262 191.983 79.7486 192.244 79.7486 192.585V202H77.6861ZM83.1662 202V193.273H85.1605V194.727H85.2514C85.4105 194.223 85.6832 193.835 86.0696 193.562C86.4598 193.286 86.9048 193.148 87.4048 193.148C87.5185 193.148 87.6454 193.153 87.7855 193.165C87.9295 193.172 88.0488 193.186 88.1435 193.205V195.097C88.0563 195.066 87.9181 195.04 87.7287 195.017C87.5431 194.991 87.3632 194.977 87.1889 194.977C86.8139 194.977 86.4768 195.059 86.1776 195.222C85.8821 195.381 85.6491 195.602 85.4787 195.886C85.3082 196.17 85.223 196.498 85.223 196.869V202H83.1662ZM92.9574 202.17C92.1051 202.17 91.3665 201.983 90.7415 201.608C90.1165 201.233 89.6316 200.708 89.2869 200.034C88.946 199.36 88.7756 198.572 88.7756 197.67C88.7756 196.769 88.946 195.979 89.2869 195.301C89.6316 194.623 90.1165 194.097 90.7415 193.722C91.3665 193.347 92.1051 193.159 92.9574 193.159C93.8097 193.159 94.5483 193.347 95.1733 193.722C95.7983 194.097 96.2813 194.623 96.6222 195.301C96.9669 195.979 97.1392 196.769 97.1392 197.67C97.1392 198.572 96.9669 199.36 96.6222 200.034C96.2813 200.708 95.7983 201.233 95.1733 201.608C94.5483 201.983 93.8097 202.17 92.9574 202.17ZM92.9688 200.523C93.4309 200.523 93.8172 200.396 94.1278 200.142C94.4384 199.884 94.6695 199.54 94.821 199.108C94.9763 198.676 95.054 198.195 95.054 197.665C95.054 197.131 94.9763 196.648 94.821 196.216C94.6695 195.78 94.4384 195.434 94.1278 195.176C93.8172 194.919 93.4309 194.79 92.9688 194.79C92.4953 194.79 92.1013 194.919 91.7869 195.176C91.4763 195.434 91.2434 195.78 91.0881 196.216C90.9366 196.648 90.8608 197.131 90.8608 197.665C90.8608 198.195 90.9366 198.676 91.0881 199.108C91.2434 199.54 91.4763 199.884 91.7869 200.142C92.1013 200.396 92.4953 200.523 92.9688 200.523ZM98.8849 202V193.273H100.851V194.756H100.953C101.135 194.256 101.436 193.866 101.857 193.585C102.277 193.301 102.779 193.159 103.362 193.159C103.953 193.159 104.451 193.303 104.857 193.591C105.266 193.875 105.554 194.263 105.72 194.756H105.811C106.004 194.271 106.33 193.884 106.788 193.597C107.25 193.305 107.798 193.159 108.43 193.159C109.233 193.159 109.889 193.413 110.396 193.92C110.904 194.428 111.158 195.169 111.158 196.142V202H109.095V196.46C109.095 195.919 108.951 195.523 108.663 195.273C108.375 195.019 108.023 194.892 107.607 194.892C107.11 194.892 106.722 195.047 106.442 195.358C106.165 195.665 106.027 196.064 106.027 196.557V202H104.01V196.375C104.01 195.924 103.874 195.564 103.601 195.295C103.332 195.027 102.98 194.892 102.544 194.892C102.249 194.892 101.98 194.968 101.737 195.119C101.495 195.267 101.302 195.477 101.158 195.75C101.014 196.019 100.942 196.333 100.942 196.693V202H98.8849ZM121.571 193.273V194.864H116.554V193.273H121.571ZM117.793 191.182H119.849V199.375C119.849 199.652 119.891 199.864 119.974 200.011C120.062 200.155 120.175 200.254 120.315 200.307C120.455 200.36 120.611 200.386 120.781 200.386C120.91 200.386 121.027 200.377 121.134 200.358C121.243 200.339 121.327 200.322 121.384 200.307L121.73 201.915C121.62 201.953 121.463 201.994 121.259 202.04C121.058 202.085 120.812 202.112 120.52 202.119C120.005 202.134 119.541 202.057 119.128 201.886C118.715 201.712 118.387 201.443 118.145 201.08C117.906 200.716 117.789 200.261 117.793 199.716V191.182ZM125.536 196.886V202H123.479V190.364H125.49V194.756H125.592C125.797 194.263 126.113 193.875 126.541 193.591C126.973 193.303 127.522 193.159 128.189 193.159C128.795 193.159 129.323 193.286 129.774 193.54C130.225 193.794 130.573 194.165 130.82 194.653C131.07 195.142 131.195 195.739 131.195 196.443V202H129.138V196.761C129.138 196.174 128.986 195.718 128.683 195.392C128.384 195.062 127.964 194.898 127.422 194.898C127.058 194.898 126.732 194.977 126.445 195.136C126.161 195.292 125.937 195.517 125.774 195.812C125.615 196.108 125.536 196.466 125.536 196.886ZM137.155 202.17C136.28 202.17 135.524 201.989 134.888 201.625C134.255 201.258 133.768 200.739 133.428 200.068C133.087 199.394 132.916 198.6 132.916 197.688C132.916 196.79 133.087 196.002 133.428 195.324C133.772 194.642 134.253 194.112 134.871 193.733C135.488 193.35 136.214 193.159 137.047 193.159C137.585 193.159 138.092 193.246 138.57 193.42C139.051 193.591 139.475 193.856 139.842 194.216C140.214 194.576 140.505 195.034 140.717 195.591C140.929 196.144 141.036 196.803 141.036 197.568V198.199H133.882V196.812H139.064C139.06 196.419 138.975 196.068 138.808 195.761C138.642 195.451 138.409 195.206 138.109 195.028C137.814 194.85 137.469 194.761 137.075 194.761C136.655 194.761 136.286 194.864 135.967 195.068C135.649 195.269 135.401 195.534 135.223 195.864C135.049 196.189 134.96 196.547 134.956 196.938V198.148C134.956 198.655 135.049 199.091 135.234 199.455C135.42 199.814 135.679 200.091 136.013 200.284C136.346 200.473 136.736 200.568 137.183 200.568C137.482 200.568 137.753 200.527 137.996 200.443C138.238 200.356 138.448 200.229 138.626 200.062C138.804 199.896 138.939 199.689 139.03 199.443L140.95 199.659C140.829 200.167 140.598 200.61 140.257 200.989C139.92 201.364 139.488 201.655 138.962 201.864C138.435 202.068 137.833 202.17 137.155 202.17ZM148.801 190.364V202H146.744V190.364H148.801ZM153.428 202.176C152.875 202.176 152.376 202.078 151.933 201.881C151.494 201.68 151.145 201.384 150.888 200.994C150.634 200.604 150.507 200.123 150.507 199.551C150.507 199.059 150.598 198.652 150.78 198.33C150.962 198.008 151.21 197.75 151.524 197.557C151.839 197.364 152.193 197.218 152.587 197.119C152.984 197.017 153.395 196.943 153.82 196.898C154.331 196.845 154.746 196.797 155.064 196.756C155.382 196.71 155.613 196.642 155.757 196.551C155.905 196.456 155.979 196.311 155.979 196.114V196.08C155.979 195.652 155.852 195.32 155.598 195.085C155.344 194.85 154.979 194.733 154.501 194.733C153.998 194.733 153.598 194.843 153.303 195.062C153.011 195.282 152.814 195.542 152.712 195.841L150.791 195.568C150.943 195.038 151.193 194.595 151.541 194.239C151.89 193.879 152.316 193.61 152.82 193.432C153.323 193.25 153.88 193.159 154.49 193.159C154.911 193.159 155.329 193.208 155.746 193.307C156.162 193.405 156.543 193.568 156.888 193.795C157.232 194.019 157.509 194.324 157.717 194.71C157.929 195.097 158.036 195.58 158.036 196.159V202H156.058V200.801H155.99C155.865 201.044 155.689 201.271 155.462 201.483C155.238 201.691 154.956 201.86 154.615 201.989C154.278 202.114 153.882 202.176 153.428 202.176ZM153.962 200.665C154.375 200.665 154.732 200.583 155.036 200.42C155.339 200.254 155.571 200.034 155.734 199.761C155.901 199.489 155.984 199.191 155.984 198.869V197.841C155.92 197.894 155.81 197.943 155.655 197.989C155.503 198.034 155.333 198.074 155.143 198.108C154.954 198.142 154.767 198.172 154.581 198.199C154.395 198.225 154.234 198.248 154.098 198.267C153.791 198.309 153.517 198.377 153.274 198.472C153.032 198.566 152.84 198.699 152.7 198.869C152.56 199.036 152.49 199.252 152.49 199.517C152.49 199.896 152.628 200.182 152.905 200.375C153.181 200.568 153.534 200.665 153.962 200.665ZM167.001 195.58L165.126 195.784C165.073 195.595 164.981 195.417 164.848 195.25C164.719 195.083 164.545 194.949 164.325 194.847C164.106 194.744 163.837 194.693 163.518 194.693C163.09 194.693 162.731 194.786 162.439 194.972C162.151 195.157 162.009 195.398 162.013 195.693C162.009 195.947 162.102 196.153 162.291 196.312C162.484 196.472 162.803 196.602 163.246 196.705L164.734 197.023C165.56 197.201 166.174 197.483 166.575 197.869C166.981 198.256 167.185 198.761 167.189 199.386C167.185 199.936 167.024 200.42 166.706 200.841C166.392 201.258 165.954 201.583 165.393 201.818C164.833 202.053 164.189 202.17 163.462 202.17C162.393 202.17 161.534 201.947 160.882 201.5C160.231 201.049 159.842 200.422 159.717 199.619L161.723 199.426C161.814 199.82 162.007 200.117 162.303 200.318C162.598 200.519 162.982 200.619 163.456 200.619C163.945 200.619 164.337 200.519 164.632 200.318C164.931 200.117 165.081 199.869 165.081 199.574C165.081 199.324 164.984 199.117 164.791 198.955C164.602 198.792 164.306 198.667 163.905 198.58L162.416 198.267C161.579 198.093 160.96 197.799 160.558 197.386C160.157 196.97 159.958 196.443 159.962 195.807C159.958 195.269 160.104 194.803 160.399 194.409C160.698 194.011 161.113 193.705 161.643 193.489C162.178 193.269 162.793 193.159 163.49 193.159C164.513 193.159 165.318 193.377 165.905 193.812C166.496 194.248 166.861 194.837 167.001 195.58ZM173.243 193.273V194.864H168.226V193.273H173.243ZM169.464 191.182H171.521V199.375C171.521 199.652 171.563 199.864 171.646 200.011C171.733 200.155 171.847 200.254 171.987 200.307C172.127 200.36 172.283 200.386 172.453 200.386C172.582 200.386 172.699 200.377 172.805 200.358C172.915 200.339 172.999 200.322 173.055 200.307L173.402 201.915C173.292 201.953 173.135 201.994 172.93 202.04C172.73 202.085 172.483 202.112 172.192 202.119C171.677 202.134 171.213 202.057 170.8 201.886C170.387 201.712 170.059 201.443 169.817 201.08C169.578 200.716 169.461 200.261 169.464 199.716V191.182ZM178.932 202V193.273H180.898V194.756H181C181.182 194.256 181.483 193.866 181.903 193.585C182.324 193.301 182.826 193.159 183.409 193.159C184 193.159 184.498 193.303 184.903 193.591C185.313 193.875 185.6 194.263 185.767 194.756H185.858C186.051 194.271 186.377 193.884 186.835 193.597C187.297 193.305 187.845 193.159 188.477 193.159C189.28 193.159 189.936 193.413 190.443 193.92C190.951 194.428 191.205 195.169 191.205 196.142V202H189.142V196.46C189.142 195.919 188.998 195.523 188.71 195.273C188.422 195.019 188.07 194.892 187.653 194.892C187.157 194.892 186.769 195.047 186.489 195.358C186.212 195.665 186.074 196.064 186.074 196.557V202H184.057V196.375C184.057 195.924 183.92 195.564 183.648 195.295C183.379 195.027 183.027 194.892 182.591 194.892C182.295 194.892 182.027 194.968 181.784 195.119C181.542 195.267 181.348 195.477 181.205 195.75C181.061 196.019 180.989 196.333 180.989 196.693V202H178.932ZM197.098 202.17C196.246 202.17 195.507 201.983 194.882 201.608C194.257 201.233 193.772 200.708 193.428 200.034C193.087 199.36 192.916 198.572 192.916 197.67C192.916 196.769 193.087 195.979 193.428 195.301C193.772 194.623 194.257 194.097 194.882 193.722C195.507 193.347 196.246 193.159 197.098 193.159C197.95 193.159 198.689 193.347 199.314 193.722C199.939 194.097 200.422 194.623 200.763 195.301C201.107 195.979 201.28 196.769 201.28 197.67C201.28 198.572 201.107 199.36 200.763 200.034C200.422 200.708 199.939 201.233 199.314 201.608C198.689 201.983 197.95 202.17 197.098 202.17ZM197.109 200.523C197.571 200.523 197.958 200.396 198.268 200.142C198.579 199.884 198.81 199.54 198.962 199.108C199.117 198.676 199.195 198.195 199.195 197.665C199.195 197.131 199.117 196.648 198.962 196.216C198.81 195.78 198.579 195.434 198.268 195.176C197.958 194.919 197.571 194.79 197.109 194.79C196.636 194.79 196.242 194.919 195.928 195.176C195.617 195.434 195.384 195.78 195.229 196.216C195.077 196.648 195.001 197.131 195.001 197.665C195.001 198.195 195.077 198.676 195.229 199.108C195.384 199.54 195.617 199.884 195.928 200.142C196.242 200.396 196.636 200.523 197.109 200.523ZM205.082 196.886V202H203.026V193.273H204.991V194.756H205.094C205.295 194.267 205.615 193.879 206.054 193.591C206.497 193.303 207.045 193.159 207.696 193.159C208.298 193.159 208.823 193.288 209.27 193.545C209.721 193.803 210.069 194.176 210.315 194.665C210.565 195.153 210.688 195.746 210.685 196.443V202H208.628V196.761C208.628 196.178 208.476 195.722 208.173 195.392C207.874 195.062 207.459 194.898 206.929 194.898C206.569 194.898 206.249 194.977 205.969 195.136C205.692 195.292 205.474 195.517 205.315 195.812C205.16 196.108 205.082 196.466 205.082 196.886ZM217.134 193.273V194.864H212.116V193.273H217.134ZM213.355 191.182H215.412V199.375C215.412 199.652 215.454 199.864 215.537 200.011C215.624 200.155 215.738 200.254 215.878 200.307C216.018 200.36 216.173 200.386 216.344 200.386C216.473 200.386 216.59 200.377 216.696 200.358C216.806 200.339 216.889 200.322 216.946 200.307L217.293 201.915C217.183 201.953 217.026 201.994 216.821 202.04C216.62 202.085 216.374 202.112 216.082 202.119C215.567 202.134 215.103 202.057 214.69 201.886C214.277 201.712 213.95 201.443 213.707 201.08C213.469 200.716 213.351 200.261 213.355 199.716V191.182ZM221.098 196.886V202H219.041V190.364H221.053V194.756H221.155C221.359 194.263 221.676 193.875 222.104 193.591C222.536 193.303 223.085 193.159 223.751 193.159C224.357 193.159 224.886 193.286 225.337 193.54C225.787 193.794 226.136 194.165 226.382 194.653C226.632 195.142 226.757 195.739 226.757 196.443V202H224.7V196.761C224.7 196.174 224.549 195.718 224.246 195.392C223.946 195.062 223.526 194.898 222.984 194.898C222.621 194.898 222.295 194.977 222.007 195.136C221.723 195.292 221.5 195.517 221.337 195.812C221.178 196.108 221.098 196.466 221.098 196.886Z" fill="white"/>
</svg>
