<svg width="862" height="105" viewBox="0 0 862 105" fill="none" xmlns="http://www.w3.org/2000/svg">
<path d="M31 48.2353H43L49 54.0588V48.2353H53V32.7059H49M21 23H43V38.5294H31L25 44.3529V38.5294H21V23Z" fill="white"/>
<path d="M31 48.2353H43L49 54.0588V48.2353H53V32.7059H49M21 23H43V38.5294H31L25 44.3529V38.5294H21V23Z" stroke="black" stroke-width="2" stroke-linecap="round" stroke-linejoin="round"/>
<path d="M132.094 0L132.094 105" stroke="white"/>
<path d="M334.35 0L334.35 105" stroke="white"/>
<path d="M536.606 0L536.606 105" stroke="white"/>
<path d="M738.863 0L738.863 105" stroke="white"/>
<path d="M247.348 43.1648C247.214 43.0086 247.083 42.8523 246.954 42.7016C245.179 40.6227 244.106 39.368 244.106 33.4828C244.106 30.4359 243.353 27.9359 241.87 26.0609C240.776 24.6758 239.298 23.625 237.349 22.8484C237.324 22.8349 237.301 22.8172 237.283 22.7961C236.582 20.5227 234.664 19 232.5 19C230.337 19 228.42 20.5227 227.719 22.7937C227.7 22.8141 227.678 22.8313 227.653 22.8445C223.106 24.6578 220.895 28.1367 220.895 33.4805C220.895 39.368 219.823 40.6227 218.047 42.6992C217.918 42.85 217.787 43.0031 217.653 43.1625C217.307 43.5665 217.088 44.058 217.021 44.5789C216.955 45.0997 217.044 45.6282 217.278 46.1016C217.776 47.1172 218.836 47.7477 220.047 47.7477H244.962C246.167 47.7477 247.221 47.118 247.72 46.107C247.955 45.6335 248.045 45.1047 247.979 44.5832C247.913 44.0617 247.694 43.5695 247.348 43.1648ZM232.5 54C233.666 53.9991 234.809 53.6926 235.81 53.1132C236.81 52.5337 237.63 51.7028 238.182 50.7086C238.208 50.6609 238.221 50.6076 238.219 50.5537C238.218 50.4998 238.202 50.4473 238.173 50.4011C238.144 50.355 238.104 50.3168 238.055 50.2903C238.007 50.2638 237.952 50.2499 237.896 50.25H227.106C227.05 50.2498 226.995 50.2636 226.946 50.29C226.898 50.3164 226.857 50.3546 226.828 50.4008C226.8 50.447 226.784 50.4996 226.782 50.5535C226.78 50.6075 226.793 50.6609 226.819 50.7086C227.371 51.7027 228.191 52.5335 229.191 53.113C230.191 53.6924 231.335 53.9989 232.5 54Z" fill="white"/>
<path d="M446.6 46.6C444.824 46.6 443.4 48.024 443.4 49.8C443.4 50.6487 443.737 51.4626 444.337 52.0627C444.937 52.6629 445.751 53 446.6 53C447.449 53 448.263 52.6629 448.863 52.0627C449.463 51.4626 449.8 50.6487 449.8 49.8C449.8 48.9513 449.463 48.1374 448.863 47.5373C448.263 46.9371 447.449 46.6 446.6 46.6ZM421 21V24.2H424.2L429.96 36.344L427.784 40.264C427.544 40.712 427.4 41.24 427.4 41.8C427.4 42.6487 427.737 43.4626 428.337 44.0627C428.937 44.6629 429.751 45 430.6 45H449.8V41.8H431.272C431.166 41.8 431.064 41.7579 430.989 41.6828C430.914 41.6078 430.872 41.5061 430.872 41.4C430.872 41.32 430.888 41.256 430.92 41.208L432.36 38.6H444.28C445.48 38.6 446.536 37.928 447.08 36.952L452.808 26.6C452.92 26.344 453 26.072 453 25.8C453 25.3757 452.831 24.9687 452.531 24.6686C452.231 24.3686 451.824 24.2 451.4 24.2H427.736L426.232 21M430.6 46.6C428.824 46.6 427.4 48.024 427.4 49.8C427.4 50.6487 427.737 51.4626 428.337 52.0627C428.937 52.6629 429.751 53 430.6 53C431.449 53 432.263 52.6629 432.863 52.0627C433.463 51.4626 433.8 50.6487 433.8 49.8C433.8 48.9513 433.463 48.1374 432.863 47.5373C432.263 46.9371 431.449 46.6 430.6 46.6Z" fill="white"/>
<path d="M622 50V39.875L635.474 36.5L622 33.125V23L654 36.5L622 50Z" fill="white"/>
<path d="M842.8 24H817.2C815.424 24 814.016 25.4462 814.016 27.25L814 46.75C814 48.5537 815.424 50 817.2 50H842.8C844.576 50 846 48.5537 846 46.75V27.25C846 25.4462 844.576 24 842.8 24ZM842.8 46.75H817.2V37H842.8V46.75ZM842.8 30.5H817.2V27.25H842.8V30.5Z" fill="white"/>
<path d="M1.19851 78.0909H3.19602L6.66903 86.571H6.79688L10.2699 78.0909H12.2674V89H10.7013V81.1058H10.6001L7.38281 88.984H6.0831L2.86577 81.1005H2.76456V89H1.19851V78.0909ZM18.0589 89.1651C17.2528 89.1651 16.5585 88.9929 15.9761 88.6484C15.3973 88.3004 14.9498 87.8121 14.6338 87.1836C14.3213 86.5515 14.165 85.8111 14.165 84.9624C14.165 84.1243 14.3213 83.3857 14.6338 82.7464C14.9498 82.1072 15.3902 81.6083 15.9548 81.2496C16.523 80.891 17.1871 80.7116 17.947 80.7116C18.4086 80.7116 18.8561 80.788 19.2893 80.9407C19.7226 81.0934 20.1114 81.3331 20.4559 81.6598C20.8003 81.9865 21.072 82.4109 21.2709 82.9329C21.4697 83.4513 21.5692 84.0817 21.5692 84.8239V85.3885H15.0653V84.1953H20.0084C20.0084 83.7763 19.9232 83.4052 19.7528 83.082C19.5823 82.7553 19.3426 82.4979 19.0336 82.3097C18.7282 82.1214 18.3696 82.0273 17.9577 82.0273C17.5102 82.0273 17.1196 82.1374 16.7858 82.3576C16.4555 82.5742 16.1998 82.8583 16.0187 83.2099C15.8412 83.5579 15.7524 83.9361 15.7524 84.3445V85.2766C15.7524 85.8235 15.8483 86.2887 16.04 86.6722C16.2354 87.0558 16.507 87.3487 16.855 87.5511C17.203 87.75 17.6096 87.8494 18.0748 87.8494C18.3767 87.8494 18.6519 87.8068 18.9005 87.7216C19.1491 87.6328 19.3639 87.5014 19.545 87.3274C19.7261 87.1534 19.8646 86.9386 19.9605 86.6829L21.468 86.9545C21.3472 87.3984 21.1306 87.7873 20.8181 88.1211C20.5091 88.4513 20.1203 88.7088 19.6515 88.8935C19.1863 89.0746 18.6555 89.1651 18.0589 89.1651ZM29.4673 82.8157L28.0238 83.0714C27.9634 82.8867 27.8675 82.7109 27.7362 82.544C27.6083 82.3771 27.4343 82.2404 27.2141 82.1339C26.994 82.0273 26.7188 81.9741 26.3885 81.9741C25.9375 81.9741 25.5611 82.0753 25.2592 82.2777C24.9574 82.4766 24.8065 82.734 24.8065 83.0501C24.8065 83.3235 24.9077 83.5437 25.1101 83.7106C25.3125 83.8775 25.6392 84.0142 26.0902 84.1207L27.3899 84.419C28.1428 84.593 28.7038 84.8612 29.0732 85.2234C29.4425 85.5856 29.6271 86.0561 29.6271 86.6349C29.6271 87.125 29.4851 87.5618 29.201 87.9453C28.9205 88.3253 28.5281 88.6236 28.0238 88.8402C27.5231 89.0568 26.9425 89.1651 26.282 89.1651C25.3658 89.1651 24.6183 88.9698 24.0394 88.5792C23.4606 88.185 23.1055 87.6257 22.9741 86.9013L24.5135 86.6669C24.6094 87.0682 24.8065 87.3718 25.1048 87.5778C25.4031 87.7802 25.7919 87.8814 26.2713 87.8814C26.7933 87.8814 27.2106 87.7731 27.5231 87.5565C27.8356 87.3363 27.9918 87.0682 27.9918 86.7521C27.9918 86.4964 27.896 86.2816 27.7042 86.1076C27.516 85.9336 27.2266 85.8022 26.8359 85.7134L25.451 85.4098C24.6875 85.2358 24.1229 84.9588 23.7571 84.5788C23.3949 84.1989 23.2138 83.7177 23.2138 83.1353C23.2138 82.6523 23.3487 82.2298 23.6186 81.8675C23.8885 81.5053 24.2614 81.223 24.7372 81.0206C25.2131 80.8146 25.7582 80.7116 26.3725 80.7116C27.2567 80.7116 27.9528 80.9034 28.4606 81.2869C28.9684 81.6669 29.304 82.1765 29.4673 82.8157ZM37.5093 82.8157L36.0658 83.0714C36.0054 82.8867 35.9095 82.7109 35.7781 82.544C35.6503 82.3771 35.4763 82.2404 35.2561 82.1339C35.036 82.0273 34.7607 81.9741 34.4305 81.9741C33.9795 81.9741 33.6031 82.0753 33.3012 82.2777C32.9994 82.4766 32.8485 82.734 32.8485 83.0501C32.8485 83.3235 32.9497 83.5437 33.1521 83.7106C33.3545 83.8775 33.6812 84.0142 34.1322 84.1207L35.4319 84.419C36.1847 84.593 36.7458 84.8612 37.1151 85.2234C37.4845 85.5856 37.6691 86.0561 37.6691 86.6349C37.6691 87.125 37.5271 87.5618 37.243 87.9453C36.9624 88.3253 36.57 88.6236 36.0658 88.8402C35.5651 89.0568 34.9845 89.1651 34.324 89.1651C33.4078 89.1651 32.6602 88.9698 32.0814 88.5792C31.5026 88.185 31.1475 87.6257 31.0161 86.9013L32.5555 86.6669C32.6514 87.0682 32.8485 87.3718 33.1468 87.5778C33.445 87.7802 33.8339 87.8814 34.3133 87.8814C34.8353 87.8814 35.2526 87.7731 35.5651 87.5565C35.8776 87.3363 36.0338 87.0682 36.0338 86.7521C36.0338 86.4964 35.9379 86.2816 35.7462 86.1076C35.558 85.9336 35.2686 85.8022 34.8779 85.7134L33.493 85.4098C32.7295 85.2358 32.1649 84.9588 31.7991 84.5788C31.4369 84.1989 31.2558 83.7177 31.2558 83.1353C31.2558 82.6523 31.3907 82.2298 31.6606 81.8675C31.9305 81.5053 32.3034 81.223 32.7792 81.0206C33.2551 80.8146 33.8002 80.7116 34.4145 80.7116C35.2987 80.7116 35.9948 80.9034 36.5026 81.2869C37.0104 81.6669 37.346 82.1765 37.5093 82.8157ZM41.8013 89.1811C41.2828 89.1811 40.8141 89.0852 40.3951 88.8935C39.976 88.6982 39.644 88.4158 39.399 88.0465C39.1575 87.6772 39.0368 87.2244 39.0368 86.6882C39.0368 86.2266 39.1255 85.8466 39.3031 85.5483C39.4806 85.25 39.7203 85.0138 40.0222 84.8398C40.324 84.6658 40.6614 84.5344 41.0343 84.4457C41.4071 84.3569 41.7871 84.2894 42.1742 84.2433C42.6642 84.1864 43.062 84.1403 43.3674 84.1048C43.6728 84.0657 43.8947 84.0036 44.0332 83.9183C44.1717 83.8331 44.2409 83.6946 44.2409 83.5028V83.4656C44.2409 83.0004 44.1096 82.6399 43.8468 82.3842C43.5875 82.1286 43.2005 82.0007 42.6855 82.0007C42.1493 82.0007 41.7267 82.1197 41.4178 82.3576C41.1124 82.592 40.9011 82.853 40.7839 83.1406L39.2871 82.7997C39.4647 82.3026 39.7239 81.9013 40.0648 81.5959C40.4093 81.2869 40.8052 81.0632 41.2527 80.9247C41.7001 80.7827 42.1706 80.7116 42.6642 80.7116C42.9909 80.7116 43.3372 80.7507 43.7029 80.8288C44.0723 80.9034 44.4167 81.0419 44.7363 81.2443C45.0595 81.4467 45.324 81.7362 45.53 82.1126C45.736 82.4854 45.839 82.9702 45.839 83.5668V89H44.2836V87.8814H44.2196C44.1167 88.0874 43.9622 88.2898 43.7562 88.4886C43.5502 88.6875 43.2857 88.8526 42.9625 88.984C42.6394 89.1154 42.2523 89.1811 41.8013 89.1811ZM42.1475 87.9027C42.5879 87.9027 42.9643 87.8157 43.2768 87.6417C43.5929 87.4677 43.8326 87.2404 43.9959 86.9599C44.1628 86.6758 44.2463 86.3722 44.2463 86.049V84.9943C44.1895 85.0511 44.0794 85.1044 43.916 85.1541C43.7562 85.2003 43.5733 85.2411 43.3674 85.2766C43.1614 85.3086 42.9608 85.3388 42.7654 85.3672C42.5701 85.392 42.4068 85.4134 42.2754 85.4311C41.9664 85.4702 41.6841 85.5359 41.4284 85.6282C41.1763 85.7205 40.9739 85.8537 40.8212 86.0277C40.6721 86.1982 40.5975 86.4254 40.5975 86.7095C40.5975 87.1037 40.7431 87.402 41.0343 87.6044C41.3255 87.8033 41.6966 87.9027 42.1475 87.9027ZM51.3907 92.2386C50.7409 92.2386 50.1816 92.1534 49.7128 91.983C49.2476 91.8125 48.8676 91.587 48.5729 91.3065C48.2781 91.0259 48.058 90.7188 47.9124 90.3849L49.2813 89.8203C49.3772 89.9766 49.5051 90.1417 49.6649 90.3157C49.8282 90.4933 50.0484 90.6442 50.3254 90.7685C50.6059 90.8928 50.9664 90.9549 51.4067 90.9549C52.0104 90.9549 52.5093 90.8075 52.9035 90.5128C53.2977 90.2216 53.4948 89.7564 53.4948 89.1172V87.5085H53.3936C53.2977 87.6825 53.1592 87.8761 52.9781 88.0891C52.8005 88.3022 52.5555 88.4869 52.243 88.6431C51.9305 88.7994 51.5239 88.8775 51.0232 88.8775C50.3769 88.8775 49.7945 88.7266 49.276 88.4247C48.7611 88.1193 48.3527 87.6701 48.0509 87.0771C47.7526 86.4805 47.6034 85.7472 47.6034 84.8771C47.6034 84.0071 47.7508 83.2614 48.0455 82.6399C48.3438 82.0185 48.7522 81.5426 49.2707 81.2124C49.7892 80.8786 50.3769 80.7116 51.0338 80.7116C51.5416 80.7116 51.9518 80.7969 52.2643 80.9673C52.5768 81.1342 52.82 81.3295 52.9941 81.5533C53.1716 81.777 53.3083 81.9741 53.4042 82.1445H53.5214V80.8182H55.0821V89.1811C55.0821 89.8842 54.9188 90.4613 54.5921 90.9123C54.2654 91.3633 53.8232 91.6971 53.2657 91.9137C52.7117 92.1303 52.0867 92.2386 51.3907 92.2386ZM51.3747 87.5565C51.8328 87.5565 52.2199 87.4499 52.536 87.2369C52.8556 87.0202 53.097 86.7113 53.2604 86.31C53.4273 85.9052 53.5107 85.4205 53.5107 84.8558C53.5107 84.3054 53.4291 83.8207 53.2657 83.4016C53.1024 82.9826 52.8627 82.6559 52.5466 82.4215C52.2306 82.1836 51.8399 82.0646 51.3747 82.0646C50.8953 82.0646 50.4958 82.1889 50.1762 82.4375C49.8566 82.6825 49.6151 83.0163 49.4518 83.4389C49.292 83.8615 49.2121 84.3338 49.2121 84.8558C49.2121 85.392 49.2938 85.8626 49.4571 86.2674C49.6205 86.6722 49.8619 86.9883 50.1816 87.2156C50.5047 87.4428 50.9024 87.5565 51.3747 87.5565ZM60.7444 89.1651C59.9383 89.1651 59.2441 88.9929 58.6617 88.6484C58.0828 88.3004 57.6354 87.8121 57.3193 87.1836C57.0068 86.5515 56.8506 85.8111 56.8506 84.9624C56.8506 84.1243 57.0068 83.3857 57.3193 82.7464C57.6354 82.1072 58.0757 81.6083 58.6404 81.2496C59.2085 80.891 59.8726 80.7116 60.6325 80.7116C61.0942 80.7116 61.5416 80.788 61.9749 80.9407C62.4081 81.0934 62.797 81.3331 63.1414 81.6598C63.4859 81.9865 63.7575 82.4109 63.9564 82.9329C64.1553 83.4513 64.2547 84.0817 64.2547 84.8239V85.3885H57.7508V84.1953H62.694C62.694 83.7763 62.6088 83.4052 62.4383 83.082C62.2678 82.7553 62.0281 82.4979 61.7192 82.3097C61.4138 82.1214 61.0551 82.0273 60.6432 82.0273C60.1958 82.0273 59.8051 82.1374 59.4713 82.3576C59.1411 82.5742 58.8854 82.8583 58.7043 83.2099C58.5267 83.5579 58.4379 83.9361 58.4379 84.3445V85.2766C58.4379 85.8235 58.5338 86.2887 58.7256 86.6722C58.9209 87.0558 59.1926 87.3487 59.5406 87.5511C59.8886 87.75 60.2952 87.8494 60.7604 87.8494C61.0622 87.8494 61.3374 87.8068 61.586 87.7216C61.8346 87.6328 62.0494 87.5014 62.2306 87.3274C62.4117 87.1534 62.5502 86.9386 62.646 86.6829L64.1535 86.9545C64.0328 87.3984 63.8161 87.7873 63.5036 88.1211C63.1947 88.4513 62.8058 88.7088 62.3371 88.8935C61.8719 89.0746 61.341 89.1651 60.7444 89.1651ZM72.1529 82.8157L70.7093 83.0714C70.649 82.8867 70.5531 82.7109 70.4217 82.544C70.2939 82.3771 70.1199 82.2404 69.8997 82.1339C69.6795 82.0273 69.4043 81.9741 69.074 81.9741C68.623 81.9741 68.2466 82.0753 67.9448 82.2777C67.6429 82.4766 67.492 82.734 67.492 83.0501C67.492 83.3235 67.5932 83.5437 67.7956 83.7106C67.998 83.8775 68.3248 84.0142 68.7757 84.1207L70.0755 84.419C70.8283 84.593 71.3894 84.8612 71.7587 85.2234C72.128 85.5856 72.3127 86.0561 72.3127 86.6349C72.3127 87.125 72.1706 87.5618 71.8865 87.9453C71.606 88.3253 71.2136 88.6236 70.7093 88.8402C70.2086 89.0568 69.628 89.1651 68.9675 89.1651C68.0513 89.1651 67.3038 88.9698 66.725 88.5792C66.1461 88.185 65.791 87.6257 65.6596 86.9013L67.199 86.6669C67.2949 87.0682 67.492 87.3718 67.7903 87.5778C68.0886 87.7802 68.4775 87.8814 68.9569 87.8814C69.4789 87.8814 69.8961 87.7731 70.2086 87.5565C70.5211 87.3363 70.6774 87.0682 70.6774 86.7521C70.6774 86.4964 70.5815 86.2816 70.3897 86.1076C70.2015 85.9336 69.9121 85.8022 69.5215 85.7134L68.1365 85.4098C67.373 85.2358 66.8084 84.9588 66.4426 84.5788C66.0804 84.1989 65.8993 83.7177 65.8993 83.1353C65.8993 82.6523 66.0343 82.2298 66.3042 81.8675C66.574 81.5053 66.9469 81.223 67.4228 81.0206C67.8986 80.8146 68.4437 80.7116 69.0581 80.7116C69.9423 80.7116 70.6383 80.9034 71.1461 81.2869C71.6539 81.6669 71.9895 82.1765 72.1529 82.8157Z" fill="white"/>
<path d="M201.466 78.0909V89H199.953L194.408 80.9993H194.307V89H192.661V78.0909H194.184L199.735 86.1023H199.836V78.0909H201.466ZM207.186 89.1651C206.418 89.1651 205.749 88.9893 205.177 88.6378C204.606 88.2862 204.162 87.7944 203.846 87.1623C203.53 86.5302 203.372 85.7915 203.372 84.9464C203.372 84.0977 203.53 83.3555 203.846 82.7198C204.162 82.0842 204.606 81.5906 205.177 81.239C205.749 80.8874 206.418 80.7116 207.186 80.7116C207.953 80.7116 208.622 80.8874 209.194 81.239C209.765 81.5906 210.209 82.0842 210.525 82.7198C210.841 83.3555 210.999 84.0977 210.999 84.9464C210.999 85.7915 210.841 86.5302 210.525 87.1623C210.209 87.7944 209.765 88.2862 209.194 88.6378C208.622 88.9893 207.953 89.1651 207.186 89.1651ZM207.191 87.8281C207.688 87.8281 208.1 87.6967 208.427 87.4339C208.753 87.1712 208.995 86.8214 209.151 86.3846C209.311 85.9478 209.391 85.4666 209.391 84.9411C209.391 84.419 209.311 83.9396 209.151 83.5028C208.995 83.0625 208.753 82.7092 208.427 82.4428C208.1 82.1765 207.688 82.0433 207.191 82.0433C206.69 82.0433 206.275 82.1765 205.944 82.4428C205.618 82.7092 205.374 83.0625 205.215 83.5028C205.058 83.9396 204.98 84.419 204.98 84.9411C204.98 85.4666 205.058 85.9478 205.215 86.3846C205.374 86.8214 205.618 87.1712 205.944 87.4339C206.275 87.6967 206.69 87.8281 207.191 87.8281ZM216.596 80.8182V82.0966H212.127V80.8182H216.596ZM213.326 78.858H214.919V86.5977C214.919 86.9066 214.965 87.1392 215.057 87.2955C215.149 87.4482 215.268 87.5529 215.414 87.6097C215.563 87.663 215.725 87.6896 215.899 87.6896C216.027 87.6896 216.138 87.6808 216.234 87.663C216.33 87.6452 216.405 87.631 216.458 87.6204L216.746 88.9361C216.653 88.9716 216.522 89.0071 216.351 89.0426C216.181 89.0817 215.968 89.103 215.712 89.1065C215.293 89.1136 214.903 89.0391 214.54 88.8828C214.178 88.7266 213.885 88.4851 213.661 88.1584C213.438 87.8317 213.326 87.4215 213.326 86.9279V78.858ZM218.358 89V80.8182H219.951V89H218.358ZM219.163 79.5558C218.886 79.5558 218.648 79.4634 218.449 79.2788C218.254 79.0906 218.156 78.8668 218.156 78.6076C218.156 78.3448 218.254 78.1211 218.449 77.9364C218.648 77.7482 218.886 77.6541 219.163 77.6541C219.44 77.6541 219.676 77.7482 219.871 77.9364C220.07 78.1211 220.169 78.3448 220.169 78.6076C220.169 78.8668 220.07 79.0906 219.871 79.2788C219.676 79.4634 219.44 79.5558 219.163 79.5558ZM225.987 80.8182V82.0966H221.364V80.8182H225.987ZM222.632 89V79.87C222.632 79.3587 222.743 78.9343 222.967 78.5969C223.191 78.256 223.487 78.0021 223.857 77.8352C224.226 77.6648 224.627 77.5795 225.061 77.5795C225.38 77.5795 225.654 77.6062 225.881 77.6594C226.108 77.7092 226.277 77.7553 226.387 77.7979L226.014 79.087C225.939 79.0657 225.844 79.0408 225.726 79.0124C225.609 78.9805 225.467 78.9645 225.3 78.9645C224.913 78.9645 224.636 79.0604 224.469 79.2521C224.306 79.4439 224.224 79.7209 224.224 80.0831V89H222.632ZM227.631 89V80.8182H229.223V89H227.631ZM228.435 79.5558C228.158 79.5558 227.92 79.4634 227.721 79.2788C227.526 79.0906 227.428 78.8668 227.428 78.6076C227.428 78.3448 227.526 78.1211 227.721 77.9364C227.92 77.7482 228.158 77.6541 228.435 77.6541C228.712 77.6541 228.948 77.7482 229.144 77.9364C229.342 78.1211 229.442 78.3448 229.442 78.6076C229.442 78.8668 229.342 79.0906 229.144 79.2788C228.948 79.4634 228.712 79.5558 228.435 79.5558ZM234.812 89.1651C234.021 89.1651 233.339 88.9858 232.767 88.6271C232.199 88.2649 231.762 87.766 231.457 87.1303C231.151 86.4947 230.999 85.7667 230.999 84.9464C230.999 84.1154 231.155 83.3821 231.467 82.7464C231.78 82.1072 232.22 81.6083 232.788 81.2496C233.356 80.891 234.026 80.7116 234.796 80.7116C235.418 80.7116 235.972 80.8271 236.458 81.0579C236.945 81.2852 237.337 81.6048 237.636 82.0167C237.937 82.4286 238.117 82.9098 238.174 83.4602H236.624C236.538 83.0767 236.343 82.7464 236.038 82.4695C235.736 82.1925 235.331 82.054 234.823 82.054C234.379 82.054 233.99 82.1712 233.657 82.4055C233.326 82.6364 233.069 82.9666 232.884 83.3963C232.7 83.8224 232.607 84.3267 232.607 84.9091C232.607 85.5057 232.698 86.0206 232.879 86.4538C233.06 86.8871 233.316 87.2227 233.646 87.4606C233.98 87.6985 234.372 87.8175 234.823 87.8175C235.125 87.8175 235.398 87.7624 235.643 87.6523C235.892 87.5387 236.1 87.3771 236.267 87.1676C236.437 86.9581 236.556 86.706 236.624 86.4112H238.174C238.117 86.9403 237.945 87.4126 237.657 87.8281C237.369 88.2436 236.984 88.5703 236.501 88.8082C236.022 89.0462 235.459 89.1651 234.812 89.1651ZM242.258 89.1811C241.739 89.1811 241.271 89.0852 240.852 88.8935C240.433 88.6982 240.101 88.4158 239.856 88.0465C239.614 87.6772 239.493 87.2244 239.493 86.6882C239.493 86.2266 239.582 85.8466 239.76 85.5483C239.937 85.25 240.177 85.0138 240.479 84.8398C240.781 84.6658 241.118 84.5344 241.491 84.4457C241.864 84.3569 242.244 84.2894 242.631 84.2433C243.121 84.1864 243.519 84.1403 243.824 84.1048C244.129 84.0657 244.351 84.0036 244.49 83.9183C244.628 83.8331 244.697 83.6946 244.697 83.5028V83.4656C244.697 83.0004 244.566 82.6399 244.303 82.3842C244.044 82.1286 243.657 82.0007 243.142 82.0007C242.606 82.0007 242.183 82.1197 241.874 82.3576C241.569 82.592 241.358 82.853 241.24 83.1406L239.744 82.7997C239.921 82.3026 240.18 81.9013 240.521 81.5959C240.866 81.2869 241.262 81.0632 241.709 80.9247C242.157 80.7827 242.627 80.7116 243.121 80.7116C243.447 80.7116 243.794 80.7507 244.159 80.8288C244.529 80.9034 244.873 81.0419 245.193 81.2443C245.516 81.4467 245.781 81.7362 245.987 82.1126C246.193 82.4854 246.295 82.9702 246.295 83.5668V89H244.74V87.8814H244.676C244.573 88.0874 244.419 88.2898 244.213 88.4886C244.007 88.6875 243.742 88.8526 243.419 88.984C243.096 89.1154 242.709 89.1811 242.258 89.1811ZM242.604 87.9027C243.044 87.9027 243.421 87.8157 243.733 87.6417C244.049 87.4677 244.289 87.2404 244.452 86.9599C244.619 86.6758 244.703 86.3722 244.703 86.049V84.9943C244.646 85.0511 244.536 85.1044 244.373 85.1541C244.213 85.2003 244.03 85.2411 243.824 85.2766C243.618 85.3086 243.417 85.3388 243.222 85.3672C243.027 85.392 242.863 85.4134 242.732 85.4311C242.423 85.4702 242.141 85.5359 241.885 85.6282C241.633 85.7205 241.43 85.8537 241.278 86.0277C241.129 86.1982 241.054 86.4254 241.054 86.7095C241.054 87.1037 241.2 87.402 241.491 87.6044C241.782 87.8033 242.153 87.9027 242.604 87.9027ZM252.236 80.8182V82.0966H247.767V80.8182H252.236ZM248.966 78.858H250.558V86.5977C250.558 86.9066 250.604 87.1392 250.697 87.2955C250.789 87.4482 250.908 87.5529 251.054 87.6097C251.203 87.663 251.364 87.6896 251.538 87.6896C251.666 87.6896 251.778 87.6808 251.874 87.663C251.97 87.6452 252.044 87.631 252.098 87.6204L252.385 88.9361C252.293 88.9716 252.162 89.0071 251.991 89.0426C251.821 89.0817 251.608 89.103 251.352 89.1065C250.933 89.1136 250.542 89.0391 250.18 88.8828C249.818 88.7266 249.525 88.4851 249.301 88.1584C249.077 87.8317 248.966 87.4215 248.966 86.9279V78.858ZM253.998 89V80.8182H255.591V89H253.998ZM254.802 79.5558C254.525 79.5558 254.287 79.4634 254.088 79.2788C253.893 79.0906 253.795 78.8668 253.795 78.6076C253.795 78.3448 253.893 78.1211 254.088 77.9364C254.287 77.7482 254.525 77.6541 254.802 77.6541C255.079 77.6541 255.315 77.7482 255.511 77.9364C255.71 78.1211 255.809 78.3448 255.809 78.6076C255.809 78.8668 255.71 79.0906 255.511 79.2788C255.315 79.4634 255.079 79.5558 254.802 79.5558ZM261.18 89.1651C260.413 89.1651 259.743 88.9893 259.171 88.6378C258.6 88.2862 258.156 87.7944 257.84 87.1623C257.524 86.5302 257.366 85.7915 257.366 84.9464C257.366 84.0977 257.524 83.3555 257.84 82.7198C258.156 82.0842 258.6 81.5906 259.171 81.239C259.743 80.8874 260.413 80.7116 261.18 80.7116C261.947 80.7116 262.616 80.8874 263.188 81.239C263.76 81.5906 264.203 82.0842 264.519 82.7198C264.836 83.3555 264.994 84.0977 264.994 84.9464C264.994 85.7915 264.836 86.5302 264.519 87.1623C264.203 87.7944 263.76 88.2862 263.188 88.6378C262.616 88.9893 261.947 89.1651 261.18 89.1651ZM261.185 87.8281C261.682 87.8281 262.094 87.6967 262.421 87.4339C262.747 87.1712 262.989 86.8214 263.145 86.3846C263.305 85.9478 263.385 85.4666 263.385 84.9411C263.385 84.419 263.305 83.9396 263.145 83.5028C262.989 83.0625 262.747 82.7092 262.421 82.4428C262.094 82.1765 261.682 82.0433 261.185 82.0433C260.684 82.0433 260.269 82.1765 259.939 82.4428C259.612 82.7092 259.369 83.0625 259.209 83.5028C259.053 83.9396 258.974 84.419 258.974 84.9411C258.974 85.4666 259.053 85.9478 259.209 86.3846C259.369 86.8214 259.612 87.1712 259.939 87.4339C260.269 87.6967 260.684 87.8281 261.185 87.8281ZM268.364 84.142V89H266.771V80.8182H268.3V82.1499H268.401C268.59 81.7166 268.884 81.3686 269.286 81.1058C269.69 80.843 270.2 80.7116 270.814 80.7116C271.372 80.7116 271.86 80.8288 272.279 81.0632C272.698 81.294 273.023 81.6385 273.254 82.0966C273.485 82.5547 273.6 83.1211 273.6 83.7958V89H272.008V83.9876C272.008 83.3945 271.853 82.9311 271.544 82.5973C271.235 82.2599 270.811 82.0913 270.271 82.0913C269.902 82.0913 269.573 82.1712 269.286 82.331C269.001 82.4908 268.776 82.7251 268.609 83.0341C268.446 83.3395 268.364 83.7088 268.364 84.142Z" fill="white"/>
<path d="M411.022 81.6385H409.36C409.296 81.2834 409.177 80.9709 409.003 80.701C408.829 80.4311 408.616 80.2021 408.364 80.0138C408.112 79.8256 407.829 79.6836 407.517 79.5877C407.208 79.4918 406.879 79.4439 406.531 79.4439C405.903 79.4439 405.34 79.6019 404.843 79.918C404.349 80.234 403.958 80.6974 403.671 81.3082C403.387 81.919 403.245 82.6648 403.245 83.5455C403.245 84.4332 403.387 85.1825 403.671 85.7933C403.958 86.4041 404.351 86.8658 404.848 87.1783C405.345 87.4908 405.904 87.647 406.526 87.647C406.87 87.647 407.197 87.6009 407.506 87.5085C407.819 87.4126 408.101 87.2724 408.353 87.0877C408.605 86.9031 408.818 86.6776 408.992 86.4112C409.17 86.1413 409.292 85.8324 409.36 85.4844L411.022 85.4897C410.933 86.0259 410.761 86.5195 410.505 86.9705C410.253 87.418 409.928 87.805 409.53 88.1317C409.136 88.4549 408.685 88.7053 408.177 88.8828C407.669 89.0604 407.115 89.1491 406.515 89.1491C405.571 89.1491 404.729 88.9254 403.99 88.478C403.252 88.027 402.669 87.3825 402.243 86.5444C401.821 85.7063 401.609 84.7067 401.609 83.5455C401.609 82.3807 401.822 81.381 402.249 80.5465C402.675 79.7085 403.257 79.0657 403.996 78.6183C404.734 78.1673 405.574 77.9418 406.515 77.9418C407.094 77.9418 407.634 78.0252 408.135 78.1921C408.639 78.3555 409.092 78.5969 409.493 78.9165C409.894 79.2326 410.226 79.6197 410.489 80.0778C410.752 80.5323 410.929 81.0526 411.022 81.6385ZM414.456 84.142V89H412.863V78.0909H414.435V82.1499H414.536C414.728 81.7095 415.021 81.3597 415.415 81.1005C415.809 80.8413 416.324 80.7116 416.96 80.7116C417.521 80.7116 418.011 80.8271 418.43 81.0579C418.852 81.2887 419.179 81.6332 419.41 82.0913C419.644 82.5458 419.761 83.114 419.761 83.7958V89H418.169V83.9876C418.169 83.3874 418.014 82.9222 417.705 82.592C417.396 82.2582 416.967 82.0913 416.416 82.0913C416.04 82.0913 415.703 82.1712 415.404 82.331C415.109 82.4908 414.877 82.7251 414.706 83.0341C414.54 83.3395 414.456 83.7088 414.456 84.142ZM425.413 89.1651C424.607 89.1651 423.913 88.9929 423.33 88.6484C422.752 88.3004 422.304 87.8121 421.988 87.1836C421.676 86.5515 421.519 85.8111 421.519 84.9624C421.519 84.1243 421.676 83.3857 421.988 82.7464C422.304 82.1072 422.744 81.6083 423.309 81.2496C423.877 80.891 424.541 80.7116 425.301 80.7116C425.763 80.7116 426.21 80.788 426.644 80.9407C427.077 81.0934 427.466 81.3331 427.81 81.6598C428.155 81.9865 428.426 82.4109 428.625 82.9329C428.824 83.4513 428.923 84.0817 428.923 84.8239V85.3885H422.42V84.1953H427.363C427.363 83.7763 427.277 83.4052 427.107 83.082C426.937 82.7553 426.697 82.4979 426.388 82.3097C426.082 82.1214 425.724 82.0273 425.312 82.0273C424.864 82.0273 424.474 82.1374 424.14 82.3576C423.81 82.5742 423.554 82.8583 423.373 83.2099C423.195 83.5579 423.107 83.9361 423.107 84.3445V85.2766C423.107 85.8235 423.203 86.2887 423.394 86.6722C423.59 87.0558 423.861 87.3487 424.209 87.5511C424.557 87.75 424.964 87.8494 425.429 87.8494C425.731 87.8494 426.006 87.8068 426.255 87.7216C426.503 87.6328 426.718 87.5014 426.899 87.3274C427.08 87.1534 427.219 86.9386 427.315 86.6829L428.822 86.9545C428.701 87.3984 428.485 87.7873 428.172 88.1211C427.863 88.4513 427.475 88.7088 427.006 88.8935C426.541 89.0746 426.01 89.1651 425.413 89.1651ZM434.137 89.1651C433.345 89.1651 432.663 88.9858 432.091 88.6271C431.523 88.2649 431.086 87.766 430.781 87.1303C430.476 86.4947 430.323 85.7667 430.323 84.9464C430.323 84.1154 430.479 83.3821 430.792 82.7464C431.104 82.1072 431.545 81.6083 432.113 81.2496C432.681 80.891 433.35 80.7116 434.121 80.7116C434.742 80.7116 435.296 80.8271 435.783 81.0579C436.269 81.2852 436.662 81.6048 436.96 82.0167C437.262 82.4286 437.441 82.9098 437.498 83.4602H435.948C435.863 83.0767 435.667 82.7464 435.362 82.4695C435.06 82.1925 434.655 82.054 434.148 82.054C433.704 82.054 433.315 82.1712 432.981 82.4055C432.651 82.6364 432.393 82.9666 432.209 83.3963C432.024 83.8224 431.932 84.3267 431.932 84.9091C431.932 85.5057 432.022 86.0206 432.203 86.4538C432.384 86.8871 432.64 87.2227 432.97 87.4606C433.304 87.6985 433.697 87.8175 434.148 87.8175C434.449 87.8175 434.723 87.7624 434.968 87.6523C435.216 87.5387 435.424 87.3771 435.591 87.1676C435.762 86.9581 435.881 86.706 435.948 86.4112H437.498C437.441 86.9403 437.269 87.4126 436.981 87.8281C436.694 88.2436 436.308 88.5703 435.825 88.8082C435.346 89.0462 434.783 89.1651 434.137 89.1651ZM440.666 86.2248L440.655 84.2805H440.932L444.192 80.8182H446.099L442.381 84.7599H442.131L440.666 86.2248ZM439.201 89V78.0909H440.794V89H439.201ZM444.368 89L441.438 85.1115L442.536 83.9982L446.323 89H444.368ZM450.66 89.1651C449.893 89.1651 449.224 88.9893 448.652 88.6378C448.08 88.2862 447.637 87.7944 447.321 87.1623C447.004 86.5302 446.846 85.7915 446.846 84.9464C446.846 84.0977 447.004 83.3555 447.321 82.7198C447.637 82.0842 448.08 81.5906 448.652 81.239C449.224 80.8874 449.893 80.7116 450.66 80.7116C451.427 80.7116 452.097 80.8874 452.669 81.239C453.24 81.5906 453.684 82.0842 454 82.7198C454.316 83.3555 454.474 84.0977 454.474 84.9464C454.474 85.7915 454.316 86.5302 454 87.1623C453.684 87.7944 453.24 88.2862 452.669 88.6378C452.097 88.9893 451.427 89.1651 450.66 89.1651ZM450.666 87.8281C451.163 87.8281 451.575 87.6967 451.901 87.4339C452.228 87.1712 452.47 86.8214 452.626 86.3846C452.786 85.9478 452.866 85.4666 452.866 84.9411C452.866 84.419 452.786 83.9396 452.626 83.5028C452.47 83.0625 452.228 82.7092 451.901 82.4428C451.575 82.1765 451.163 82.0433 450.666 82.0433C450.165 82.0433 449.749 82.1765 449.419 82.4428C449.093 82.7092 448.849 83.0625 448.689 83.5028C448.533 83.9396 448.455 84.419 448.455 84.9411C448.455 85.4666 448.533 85.9478 448.689 86.3846C448.849 86.8214 449.093 87.1712 449.419 87.4339C449.749 87.6967 450.165 87.8281 450.666 87.8281ZM461.435 85.6069V80.8182H463.033V89H461.467V87.5831H461.382C461.193 88.0199 460.892 88.3839 460.476 88.6751C460.064 88.9627 459.551 89.1065 458.937 89.1065C458.411 89.1065 457.946 88.9911 457.541 88.7603C457.14 88.5259 456.824 88.1797 456.593 87.7216C456.366 87.2635 456.252 86.6971 456.252 86.0224V80.8182H457.845V85.8306C457.845 86.3881 457.999 86.832 458.308 87.1623C458.617 87.4925 459.018 87.6577 459.512 87.6577C459.81 87.6577 460.107 87.5831 460.402 87.4339C460.7 87.2848 460.947 87.0593 461.142 86.7575C461.341 86.4556 461.438 86.0721 461.435 85.6069ZM468.992 80.8182V82.0966H464.523V80.8182H468.992ZM465.722 78.858H467.314V86.5977C467.314 86.9066 467.36 87.1392 467.453 87.2955C467.545 87.4482 467.664 87.5529 467.81 87.6097C467.959 87.663 468.12 87.6896 468.294 87.6896C468.422 87.6896 468.534 87.6808 468.63 87.663C468.726 87.6452 468.8 87.631 468.854 87.6204L469.141 88.9361C469.049 88.9716 468.918 89.0071 468.747 89.0426C468.577 89.0817 468.364 89.103 468.108 89.1065C467.689 89.1136 467.298 89.0391 466.936 88.8828C466.574 88.7266 466.281 88.4851 466.057 88.1584C465.833 87.8317 465.722 87.4215 465.722 86.9279V78.858Z" fill="white"/>
<path d="M605.224 89V78.0909H609.112C609.957 78.0909 610.659 78.2365 611.216 78.5277C611.777 78.8189 612.196 79.2219 612.473 79.7369C612.75 80.2482 612.889 80.8395 612.889 81.5107C612.889 82.1783 612.748 82.766 612.468 83.2738C612.191 83.7781 611.772 84.1705 611.211 84.451C610.653 84.7315 609.952 84.8718 609.107 84.8718H606.161V83.4549H608.958C609.49 83.4549 609.923 83.3786 610.257 83.2259C610.595 83.0732 610.841 82.8512 610.998 82.56C611.154 82.2688 611.232 81.919 611.232 81.5107C611.232 81.0987 611.152 80.7418 610.992 80.44C610.836 80.1381 610.589 79.9073 610.252 79.7475C609.918 79.5842 609.48 79.5025 608.936 79.5025H606.869V89H605.224ZM610.609 84.0781L613.304 89H611.429L608.787 84.0781H610.609ZM618.187 89.1651C617.381 89.1651 616.687 88.9929 616.105 88.6484C615.526 88.3004 615.078 87.8121 614.762 87.1836C614.45 86.5515 614.294 85.8111 614.294 84.9624C614.294 84.1243 614.45 83.3857 614.762 82.7464C615.078 82.1072 615.519 81.6083 616.083 81.2496C616.652 80.891 617.316 80.7116 618.076 80.7116C618.537 80.7116 618.985 80.788 619.418 80.9407C619.851 81.0934 620.24 81.3331 620.584 81.6598C620.929 81.9865 621.201 82.4109 621.399 82.9329C621.598 83.4513 621.698 84.0817 621.698 84.8239V85.3885H615.194V84.1953H620.137C620.137 83.7763 620.052 83.4052 619.881 83.082C619.711 82.7553 619.471 82.4979 619.162 82.3097C618.857 82.1214 618.498 82.0273 618.086 82.0273C617.639 82.0273 617.248 82.1374 616.914 82.3576C616.584 82.5742 616.328 82.8583 616.147 83.2099C615.97 83.5579 615.881 83.9361 615.881 84.3445V85.2766C615.881 85.8235 615.977 86.2887 616.169 86.6722C616.364 87.0558 616.636 87.3487 616.984 87.5511C617.332 87.75 617.738 87.8494 618.203 87.8494C618.505 87.8494 618.78 87.8068 619.029 87.7216C619.278 87.6328 619.492 87.5014 619.674 87.3274C619.855 87.1534 619.993 86.9386 620.089 86.6829L621.596 86.9545C621.476 87.3984 621.259 87.7873 620.947 88.1211C620.638 88.4513 620.249 88.7088 619.78 88.8935C619.315 89.0746 618.784 89.1651 618.187 89.1651ZM628.989 92.0682V87.7269H628.893C628.797 87.9009 628.658 88.0998 628.477 88.3235C628.3 88.5472 628.055 88.7425 627.742 88.9094C627.43 89.0763 627.025 89.1598 626.528 89.1598C625.867 89.1598 625.278 88.9911 624.759 88.6538C624.244 88.3129 623.839 87.8281 623.545 87.1996C623.254 86.5675 623.108 85.8093 623.108 84.9251C623.108 84.0408 623.255 83.2844 623.55 82.6559C623.848 82.0273 624.257 81.5462 624.775 81.2124C625.294 80.8786 625.881 80.7116 626.538 80.7116C627.046 80.7116 627.455 80.7969 627.763 80.9673C628.076 81.1342 628.317 81.3295 628.488 81.5533C628.662 81.777 628.797 81.9741 628.893 82.1445H629.026V80.8182H630.581V92.0682H628.989ZM626.879 87.8015C627.337 87.8015 627.724 87.6808 628.04 87.4393C628.36 87.1942 628.602 86.8551 628.765 86.4219C628.932 85.9886 629.015 85.4844 629.015 84.9091C629.015 84.3409 628.934 83.8437 628.77 83.4176C628.607 82.9915 628.367 82.6594 628.051 82.4215C627.735 82.1836 627.344 82.0646 626.879 82.0646C626.4 82.0646 626 82.1889 625.681 82.4375C625.361 82.6861 625.12 83.0252 624.956 83.4549C624.797 83.8846 624.717 84.3693 624.717 84.9091C624.717 85.456 624.798 85.9478 624.962 86.3846C625.125 86.8214 625.366 87.1676 625.686 87.4233C626.009 87.6754 626.407 87.8015 626.879 87.8015ZM637.906 85.6069V80.8182H639.504V89H637.937V87.5831H637.852C637.664 88.0199 637.362 88.3839 636.947 88.6751C636.535 88.9627 636.022 89.1065 635.407 89.1065C634.882 89.1065 634.417 88.9911 634.012 88.7603C633.61 88.5259 633.294 88.1797 633.064 87.7216C632.836 87.2635 632.723 86.6971 632.723 86.0224V80.8182H634.315V85.8306C634.315 86.3881 634.47 86.832 634.779 87.1623C635.088 87.4925 635.489 87.6577 635.983 87.6577C636.281 87.6577 636.577 87.5831 636.872 87.4339C637.17 87.2848 637.417 87.0593 637.613 86.7575C637.811 86.4556 637.909 86.0721 637.906 85.6069ZM645.17 89.1651C644.364 89.1651 643.669 88.9929 643.087 88.6484C642.508 88.3004 642.061 87.8121 641.745 87.1836C641.432 86.5515 641.276 85.8111 641.276 84.9624C641.276 84.1243 641.432 83.3857 641.745 82.7464C642.061 82.1072 642.501 81.6083 643.066 81.2496C643.634 80.891 644.298 80.7116 645.058 80.7116C645.52 80.7116 645.967 80.788 646.4 80.9407C646.834 81.0934 647.222 81.3331 647.567 81.6598C647.911 81.9865 648.183 82.4109 648.382 82.9329C648.581 83.4513 648.68 84.0817 648.68 84.8239V85.3885H642.176V84.1953H647.119C647.119 83.7763 647.034 83.4052 646.864 83.082C646.693 82.7553 646.454 82.4979 646.145 82.3097C645.839 82.1214 645.481 82.0273 645.069 82.0273C644.621 82.0273 644.231 82.1374 643.897 82.3576C643.566 82.5742 643.311 82.8583 643.13 83.2099C642.952 83.5579 642.863 83.9361 642.863 84.3445V85.2766C642.863 85.8235 642.959 86.2887 643.151 86.6722C643.346 87.0558 643.618 87.3487 643.966 87.5511C644.314 87.75 644.721 87.8494 645.186 87.8494C645.488 87.8494 645.763 87.8068 646.011 87.7216C646.26 87.6328 646.475 87.5014 646.656 87.3274C646.837 87.1534 646.976 86.9386 647.071 86.6829L648.579 86.9545C648.458 87.3984 648.242 87.7873 647.929 88.1211C647.62 88.4513 647.231 88.7088 646.763 88.8935C646.297 89.0746 645.766 89.1651 645.17 89.1651ZM656.578 82.8157L655.135 83.0714C655.074 82.8867 654.979 82.7109 654.847 82.544C654.719 82.3771 654.545 82.2404 654.325 82.1339C654.105 82.0273 653.83 81.9741 653.499 81.9741C653.048 81.9741 652.672 82.0753 652.37 82.2777C652.068 82.4766 651.917 82.734 651.917 83.0501C651.917 83.3235 652.019 83.5437 652.221 83.7106C652.423 83.8775 652.75 84.0142 653.201 84.1207L654.501 84.419C655.254 84.593 655.815 84.8612 656.184 85.2234C656.553 85.5856 656.738 86.0561 656.738 86.6349C656.738 87.125 656.596 87.5618 656.312 87.9453C656.031 88.3253 655.639 88.6236 655.135 88.8402C654.634 89.0568 654.053 89.1651 653.393 89.1651C652.477 89.1651 651.729 88.9698 651.15 88.5792C650.572 88.185 650.216 87.6257 650.085 86.9013L651.624 86.6669C651.72 87.0682 651.917 87.3718 652.216 87.5778C652.514 87.7802 652.903 87.8814 653.382 87.8814C653.904 87.8814 654.322 87.7731 654.634 87.5565C654.947 87.3363 655.103 87.0682 655.103 86.7521C655.103 86.4964 655.007 86.2816 654.815 86.1076C654.627 85.9336 654.338 85.8022 653.947 85.7134L652.562 85.4098C651.798 85.2358 651.234 84.9588 650.868 84.5788C650.506 84.1989 650.325 83.7177 650.325 83.1353C650.325 82.6523 650.46 82.2298 650.73 81.8675C650.999 81.5053 651.372 81.223 651.848 81.0206C652.324 80.8146 652.869 80.7116 653.483 80.7116C654.368 80.7116 655.064 80.9034 655.572 81.2869C656.079 81.6669 656.415 82.1765 656.578 82.8157ZM662.308 80.8182V82.0966H657.839V80.8182H662.308ZM659.038 78.858H660.631V86.5977C660.631 86.9066 660.677 87.1392 660.769 87.2955C660.861 87.4482 660.98 87.5529 661.126 87.6097C661.275 87.663 661.437 87.6896 661.611 87.6896C661.739 87.6896 661.85 87.6808 661.946 87.663C662.042 87.6452 662.117 87.631 662.17 87.6204L662.458 88.9361C662.365 88.9716 662.234 89.0071 662.063 89.0426C661.893 89.0817 661.68 89.103 661.424 89.1065C661.005 89.1136 660.615 89.0391 660.252 88.8828C659.89 88.7266 659.597 88.4851 659.373 88.1584C659.15 87.8317 659.038 87.4215 659.038 86.9279V78.858ZM670.07 82.8157L668.626 83.0714C668.566 82.8867 668.47 82.7109 668.338 82.544C668.21 82.3771 668.036 82.2404 667.816 82.1339C667.596 82.0273 667.321 81.9741 666.991 81.9741C666.54 81.9741 666.163 82.0753 665.861 82.2777C665.56 82.4766 665.409 82.734 665.409 83.0501C665.409 83.3235 665.51 83.5437 665.712 83.7106C665.915 83.8775 666.241 84.0142 666.692 84.1207L667.992 84.419C668.745 84.593 669.306 84.8612 669.675 85.2234C670.045 85.5856 670.229 86.0561 670.229 86.6349C670.229 87.125 670.087 87.5618 669.803 87.9453C669.523 88.3253 669.13 88.6236 668.626 88.8402C668.125 89.0568 667.545 89.1651 666.884 89.1651C665.968 89.1651 665.22 88.9698 664.642 88.5792C664.063 88.185 663.708 87.6257 663.576 86.9013L665.116 86.6669C665.212 87.0682 665.409 87.3718 665.707 87.5778C666.005 87.7802 666.394 87.8814 666.873 87.8814C667.395 87.8814 667.813 87.7731 668.125 87.5565C668.438 87.3363 668.594 87.0682 668.594 86.7521C668.594 86.4964 668.498 86.2816 668.306 86.1076C668.118 85.9336 667.829 85.8022 667.438 85.7134L666.053 85.4098C665.29 85.2358 664.725 84.9588 664.359 84.5788C663.997 84.1989 663.816 83.7177 663.816 83.1353C663.816 82.6523 663.951 82.2298 664.221 81.8675C664.491 81.5053 664.864 81.223 665.339 81.0206C665.815 80.8146 666.36 80.7116 666.975 80.7116C667.859 80.7116 668.555 80.9034 669.063 81.2869C669.571 81.6669 669.906 82.1765 670.07 82.8157Z" fill="white"/>
<path d="M799.43 89V78.0909H803.318C804.167 78.0909 804.87 78.2454 805.428 78.5543C805.985 78.8633 806.402 79.2859 806.679 79.8221C806.956 80.3548 807.095 80.9549 807.095 81.6225C807.095 82.2937 806.955 82.8974 806.674 83.4336C806.397 83.9663 805.978 84.3888 805.417 84.7013C804.859 85.0103 804.158 85.1648 803.313 85.1648H800.639V83.7692H803.164C803.7 83.7692 804.135 83.6768 804.469 83.4922C804.803 83.304 805.048 83.0483 805.204 82.7251C805.36 82.402 805.438 82.0344 805.438 81.6225C805.438 81.2106 805.36 80.8448 805.204 80.5252C805.048 80.2056 804.801 79.9553 804.463 79.7741C804.13 79.593 803.689 79.5025 803.142 79.5025H801.076V89H799.43ZM811.204 89.1811C810.686 89.1811 810.217 89.0852 809.798 88.8935C809.379 88.6982 809.047 88.4158 808.802 88.0465C808.561 87.6772 808.44 87.2244 808.44 86.6882C808.44 86.2266 808.529 85.8466 808.706 85.5483C808.884 85.25 809.123 85.0138 809.425 84.8398C809.727 84.6658 810.064 84.5344 810.437 84.4457C810.81 84.3569 811.19 84.2894 811.577 84.2433C812.067 84.1864 812.465 84.1403 812.77 84.1048C813.076 84.0657 813.298 84.0036 813.436 83.9183C813.575 83.8331 813.644 83.6946 813.644 83.5028V83.4656C813.644 83.0004 813.513 82.6399 813.25 82.3842C812.991 82.1286 812.604 82.0007 812.089 82.0007C811.552 82.0007 811.13 82.1197 810.821 82.3576C810.515 82.592 810.304 82.853 810.187 83.1406L808.69 82.7997C808.868 82.3026 809.127 81.9013 809.468 81.5959C809.812 81.2869 810.208 81.0632 810.656 80.9247C811.103 80.7827 811.574 80.7116 812.067 80.7116C812.394 80.7116 812.74 80.7507 813.106 80.8288C813.475 80.9034 813.82 81.0419 814.139 81.2443C814.463 81.4467 814.727 81.7362 814.933 82.1126C815.139 82.4854 815.242 82.9702 815.242 83.5668V89H813.687V87.8814H813.623C813.52 88.0874 813.365 88.2898 813.159 88.4886C812.953 88.6875 812.689 88.8526 812.366 88.984C812.042 89.1154 811.655 89.1811 811.204 89.1811ZM811.551 87.9027C811.991 87.9027 812.367 87.8157 812.68 87.6417C812.996 87.4677 813.236 87.2404 813.399 86.9599C813.566 86.6758 813.649 86.3722 813.649 86.049V84.9943C813.593 85.0511 813.482 85.1044 813.319 85.1541C813.159 85.2003 812.976 85.2411 812.77 85.2766C812.564 85.3086 812.364 85.3388 812.169 85.3672C811.973 85.392 811.81 85.4134 811.678 85.4311C811.37 85.4702 811.087 85.5359 810.832 85.6282C810.579 85.7205 810.377 85.8537 810.224 86.0277C810.075 86.1982 810.001 86.4254 810.001 86.7095C810.001 87.1037 810.146 87.402 810.437 87.6044C810.729 87.8033 811.1 87.9027 811.551 87.9027ZM818.077 92.0682C817.839 92.0682 817.623 92.0487 817.427 92.0096C817.232 91.9741 817.086 91.935 816.991 91.8924L817.374 90.5874C817.665 90.6655 817.924 90.6992 818.152 90.6886C818.379 90.6779 818.58 90.5927 818.754 90.4329C818.931 90.2731 819.087 90.0121 819.222 89.6499L819.42 89.1065L816.426 80.8182H818.13L820.203 87.1676H820.288L822.36 80.8182H824.07L820.698 90.092C820.542 90.5181 820.343 90.8786 820.101 91.1733C819.86 91.4716 819.572 91.6953 819.238 91.8445C818.905 91.9936 818.518 92.0682 818.077 92.0682ZM825.567 89V80.8182H827.095V82.1499H827.196C827.367 81.6989 827.646 81.3473 828.033 81.0952C828.42 80.8395 828.883 80.7116 829.423 80.7116C829.97 80.7116 830.428 80.8395 830.797 81.0952C831.17 81.3509 831.445 81.7024 831.623 82.1499H831.708C831.904 81.7131 832.214 81.3651 832.64 81.1058C833.067 80.843 833.574 80.7116 834.164 80.7116C834.906 80.7116 835.511 80.9442 835.98 81.4094C836.453 81.8746 836.689 82.576 836.689 83.5135V89H835.096V83.6626C835.096 83.1087 834.945 82.7074 834.643 82.4588C834.341 82.2102 833.981 82.0859 833.562 82.0859C833.043 82.0859 832.64 82.2457 832.353 82.5653C832.065 82.8814 831.921 83.288 831.921 83.7852V89H830.334V83.5614C830.334 83.1175 830.195 82.7607 829.918 82.4908C829.641 82.2209 829.281 82.0859 828.837 82.0859C828.535 82.0859 828.257 82.1658 828.001 82.3256C827.749 82.4819 827.545 82.7003 827.388 82.9808C827.236 83.2614 827.159 83.5863 827.159 83.9556V89H825.567ZM842.35 89.1651C841.544 89.1651 840.849 88.9929 840.267 88.6484C839.688 88.3004 839.241 87.8121 838.925 87.1836C838.612 86.5515 838.456 85.8111 838.456 84.9624C838.456 84.1243 838.612 83.3857 838.925 82.7464C839.241 82.1072 839.681 81.6083 840.246 81.2496C840.814 80.891 841.478 80.7116 842.238 80.7116C842.699 80.7116 843.147 80.788 843.58 80.9407C844.013 81.0934 844.402 81.3331 844.747 81.6598C845.091 81.9865 845.363 82.4109 845.562 82.9329C845.76 83.4513 845.86 84.0817 845.86 84.8239V85.3885H839.356V84.1953H844.299C844.299 83.7763 844.214 83.4052 844.044 83.082C843.873 82.7553 843.633 82.4979 843.324 82.3097C843.019 82.1214 842.66 82.0273 842.248 82.0273C841.801 82.0273 841.41 82.1374 841.077 82.3576C840.746 82.5742 840.491 82.8583 840.31 83.2099C840.132 83.5579 840.043 83.9361 840.043 84.3445V85.2766C840.043 85.8235 840.139 86.2887 840.331 86.6722C840.526 87.0558 840.798 87.3487 841.146 87.5511C841.494 87.75 841.9 87.8494 842.366 87.8494C842.667 87.8494 842.943 87.8068 843.191 87.7216C843.44 87.6328 843.655 87.5014 843.836 87.3274C844.017 87.1534 844.155 86.9386 844.251 86.6829L845.759 86.9545C845.638 87.3984 845.421 87.7873 845.109 88.1211C844.8 88.4513 844.411 88.7088 843.942 88.8935C843.477 89.0746 842.946 89.1651 842.35 89.1651ZM849.22 84.142V89H847.627V80.8182H849.156V82.1499H849.257C849.445 81.7166 849.74 81.3686 850.141 81.1058C850.546 80.843 851.056 80.7116 851.67 80.7116C852.228 80.7116 852.716 80.8288 853.135 81.0632C853.554 81.294 853.879 81.6385 854.11 82.0966C854.34 82.5547 854.456 83.1211 854.456 83.7958V89H852.863V83.9876C852.863 83.3945 852.709 82.9311 852.4 82.5973C852.091 82.2599 851.666 82.0913 851.127 82.0913C850.757 82.0913 850.429 82.1712 850.141 82.331C849.857 82.4908 849.632 82.7251 849.465 83.0341C849.301 83.3395 849.22 83.7088 849.22 84.142ZM860.411 80.8182V82.0966H855.942V80.8182H860.411ZM857.141 78.858H858.733V86.5977C858.733 86.9066 858.779 87.1392 858.872 87.2955C858.964 87.4482 859.083 87.5529 859.229 87.6097C859.378 87.663 859.539 87.6896 859.713 87.6896C859.841 87.6896 859.953 87.6808 860.049 87.663C860.145 87.6452 860.219 87.631 860.273 87.6204L860.56 88.9361C860.468 88.9716 860.337 89.0071 860.166 89.0426C859.996 89.0817 859.783 89.103 859.527 89.1065C859.108 89.1136 858.717 89.0391 858.355 88.8828C857.993 88.7266 857.7 88.4851 857.476 88.1584C857.252 87.8317 857.141 87.4215 857.141 86.9279V78.858Z" fill="white"/>
</svg>
