<svg width="969" height="2241" viewBox="0 0 969 2241" fill="none" xmlns="http://www.w3.org/2000/svg">
<rect y="3.05176e-05" width="637" height="263" rx="8" fill="#181818"/>
<rect x="659" y="356" width="356" height="310" rx="8" transform="rotate(-90 659 356)" fill="#181818"/>
<rect x="659" y="894" width="516" height="310" rx="8" transform="rotate(-90 659 894)" fill="#181818"/>
<rect x="327" y="551" width="266" height="310" rx="8" transform="rotate(-90 327 551)" fill="#181818"/>
<rect x="4" y="894" width="321" height="633" rx="8" transform="rotate(-90 4 894)" fill="#181818"/>
<rect x="416" y="2069" width="234" height="553" rx="8" transform="rotate(-90 416 2069)" fill="#181818"/>
<rect x="415" y="2241" width="142" height="554" rx="8" transform="rotate(-90 415 2241)" fill="#181818"/>
<rect x="1" y="2241" width="406" height="385" rx="8" transform="rotate(-90 1 2241)" fill="#181818"/>
<rect x="4" y="551" width="266" height="301" rx="8" transform="rotate(-90 4 551)" fill="#181818"/>
<rect x="4" y="1602" width="678" height="965" rx="8" transform="rotate(-90 4 1602)" fill="#181818"/>
<rect x="3" y="1805" width="175" height="966" rx="8" transform="rotate(-90 3 1805)" fill="#181818"/>
</svg>
