<svg width="61" height="61" viewBox="0 0 61 61" fill="none" xmlns="http://www.w3.org/2000/svg">
<path d="M61 30.365C61 47.1351 47.3447 60.73 30.5 60.73C13.6553 60.73 0 47.1351 0 30.365C0 13.5949 13.6553 0 30.5 0C47.3447 0 61 13.5949 61 30.365ZM4.81486 30.365C4.81486 44.4877 16.3145 55.9364 30.5 55.9364C44.6855 55.9364 56.1851 44.4877 56.1851 30.365C56.1851 16.2423 44.6855 4.79355 30.5 4.79355C16.3145 4.79355 4.81486 16.2423 4.81486 30.365Z" fill="#5C5C5C"/>
<path d="M30.5 0C35.0699 -5.42539e-08 39.5813 1.02236 43.701 2.99153C47.8206 4.96069 51.4431 7.82633 54.3008 11.3767C57.1585 14.927 59.1784 19.0713 60.211 23.5032C61.2437 27.9352 61.2629 32.5415 60.2671 36.9818C59.2712 41.4221 57.2859 45.5829 54.4578 49.1566C51.6297 52.7304 48.0311 55.6258 43.928 57.6288C39.8249 59.6318 35.3221 60.6913 30.7524 60.729C26.9871 60.76 23.2556 60.0966 19.745 58.7795C18.5016 58.3131 17.9876 56.8706 18.5545 55.6697C19.1186 54.4746 20.5403 53.9725 21.7841 54.4192C24.6406 55.4451 27.6634 55.9607 30.7125 55.9356C34.5608 55.9039 38.3528 55.0116 41.8082 53.3248C45.2636 51.638 48.2941 49.1997 50.6757 46.1901C53.0574 43.1805 54.7293 39.6766 55.5679 35.9372C56.4065 32.1979 56.3904 28.3188 55.5207 24.5864C54.6511 20.8541 52.9501 17.3641 50.5435 14.3742C48.137 11.3844 45.0863 8.97113 41.617 7.31282C38.1477 5.65452 34.3484 4.79355 30.5 4.79355V0Z" fill="#D20000"/>
</svg>
