<svg width="225" height="109" viewBox="0 0 225 109" fill="none" xmlns="http://www.w3.org/2000/svg">
<path d="M3.79261 6.45455V21H1.59801V6.45455H3.79261ZM8.94176 14.5227V21H6.81818V10.0909H8.85653V11.8665H8.99148C9.24242 11.2888 9.63542 10.8248 10.1705 10.4744C10.7102 10.1241 11.3897 9.94886 12.2088 9.94886C12.9522 9.94886 13.6032 10.1051 14.1619 10.4176C14.7206 10.7254 15.1539 11.1847 15.4616 11.7955C15.7694 12.4062 15.9233 13.1615 15.9233 14.0611V21H13.7997V14.3168C13.7997 13.526 13.5938 12.9081 13.1818 12.4631C12.7699 12.0133 12.2041 11.7884 11.4844 11.7884C10.992 11.7884 10.554 11.8949 10.1705 12.108C9.79167 12.321 9.491 12.6335 9.26847 13.0455C9.05066 13.4527 8.94176 13.9451 8.94176 14.5227ZM32.168 10.2756C32.0922 9.60322 31.7797 9.08239 31.2305 8.71307C30.6812 8.33902 29.9899 8.15199 29.1566 8.15199C28.56 8.15199 28.0439 8.24669 27.6083 8.43608C27.1727 8.62074 26.8342 8.87642 26.5927 9.20312C26.3559 9.52509 26.2376 9.89205 26.2376 10.304C26.2376 10.6496 26.3181 10.9479 26.479 11.1989C26.6448 11.4498 26.8602 11.6605 27.1254 11.831C27.3952 11.9967 27.6841 12.1364 27.9918 12.25C28.2996 12.3589 28.5955 12.4489 28.8796 12.5199L30.3001 12.8892C30.7641 13.0028 31.2399 13.1567 31.7276 13.3509C32.2153 13.545 32.6675 13.8007 33.0842 14.1179C33.5008 14.4351 33.837 14.8281 34.0927 15.2969C34.3531 15.7656 34.4833 16.3267 34.4833 16.9801C34.4833 17.804 34.2702 18.5355 33.8441 19.1747C33.4227 19.8139 32.8095 20.3182 32.0046 20.6875C31.2044 21.0568 30.2362 21.2415 29.0998 21.2415C28.0108 21.2415 27.0685 21.0687 26.2731 20.723C25.4776 20.3774 24.855 19.8873 24.4052 19.2528C23.9554 18.6136 23.7068 17.8561 23.6594 16.9801H25.8612C25.9038 17.5057 26.0742 17.9437 26.3725 18.294C26.6755 18.6397 27.0614 18.8977 27.5302 19.0682C28.0037 19.2339 28.5221 19.3168 29.0856 19.3168C29.7058 19.3168 30.2575 19.2197 30.7404 19.0256C31.2281 18.8267 31.6116 18.5521 31.891 18.2017C32.1703 17.8466 32.31 17.4323 32.31 16.9588C32.31 16.5279 32.1869 16.1752 31.9407 15.9006C31.6992 15.6259 31.3701 15.3987 30.9535 15.2188C30.5415 15.0388 30.0752 14.8802 29.5543 14.7429L27.8356 14.2741C26.6708 13.9569 25.7475 13.4905 25.0657 12.875C24.3886 12.2595 24.0501 11.4451 24.0501 10.4318C24.0501 9.59375 24.2773 8.86222 24.7319 8.23722C25.1864 7.61222 25.802 7.12689 26.5785 6.78125C27.355 6.43087 28.2309 6.25568 29.2063 6.25568C30.1912 6.25568 31.06 6.4285 31.8129 6.77415C32.5704 7.11979 33.167 7.59564 33.6026 8.2017C34.0382 8.80303 34.2655 9.49432 34.2844 10.2756H32.168ZM42.0277 10.0909V11.7955H36.0689V10.0909H42.0277ZM37.6669 7.47727H39.7905V17.7969C39.7905 18.2088 39.852 18.5189 39.9751 18.7273C40.0982 18.9309 40.2569 19.0705 40.451 19.1463C40.6499 19.2173 40.8653 19.2528 41.0973 19.2528C41.2678 19.2528 41.4169 19.241 41.5447 19.2173C41.6726 19.1937 41.772 19.1747 41.843 19.1605L42.2266 20.9148C42.1035 20.9621 41.9283 21.0095 41.701 21.0568C41.4737 21.1089 41.1896 21.1373 40.8487 21.142C40.29 21.1515 39.7692 21.0521 39.2862 20.8438C38.8033 20.6354 38.4126 20.3134 38.1143 19.8778C37.8161 19.4422 37.6669 18.8954 37.6669 18.2372V7.47727ZM48.8548 21.2202C47.832 21.2202 46.9395 20.9858 46.1772 20.517C45.4149 20.0483 44.823 19.3925 44.4016 18.5497C43.9802 17.7069 43.7695 16.7221 43.7695 15.5952C43.7695 14.4635 43.9802 13.474 44.4016 12.6264C44.823 11.7789 45.4149 11.1207 46.1772 10.652C46.9395 10.1832 47.832 9.94886 48.8548 9.94886C49.8775 9.94886 50.77 10.1832 51.5323 10.652C52.2946 11.1207 52.8865 11.7789 53.3079 12.6264C53.7293 13.474 53.94 14.4635 53.94 15.5952C53.94 16.7221 53.7293 17.7069 53.3079 18.5497C52.8865 19.3925 52.2946 20.0483 51.5323 20.517C50.77 20.9858 49.8775 21.2202 48.8548 21.2202ZM48.8619 19.4375C49.5247 19.4375 50.074 19.2623 50.5096 18.9119C50.9452 18.5616 51.2672 18.0952 51.4755 17.5128C51.6886 16.9304 51.7951 16.2888 51.7951 15.5881C51.7951 14.892 51.6886 14.2528 51.4755 13.6705C51.2672 13.0833 50.9452 12.6122 50.5096 12.2571C50.074 11.902 49.5247 11.7244 48.8619 11.7244C48.1942 11.7244 47.6403 11.902 47.1999 12.2571C46.7643 12.6122 46.44 13.0833 46.2269 13.6705C46.0186 14.2528 45.9144 14.892 45.9144 15.5881C45.9144 16.2888 46.0186 16.9304 46.2269 17.5128C46.44 18.0952 46.7643 18.5616 47.1999 18.9119C47.6403 19.2623 48.1942 19.4375 48.8619 19.4375ZM56.3104 21V10.0909H58.3629V11.8239H58.4766C58.6754 11.2367 59.0258 10.7751 59.5277 10.4389C60.0343 10.098 60.6072 9.92756 61.2464 9.92756C61.379 9.92756 61.5353 9.93229 61.7152 9.94176C61.8999 9.95123 62.0443 9.96307 62.1484 9.97727V12.0085C62.0632 11.9848 61.9117 11.9588 61.6939 11.9304C61.4761 11.8973 61.2583 11.8807 61.0405 11.8807C60.5386 11.8807 60.0911 11.9872 59.6982 12.2003C59.3099 12.4086 59.0021 12.6998 58.7749 13.0739C58.5476 13.4432 58.4339 13.8646 58.4339 14.3381V21H56.3104ZM68.2972 21.2202C67.2224 21.2202 66.2968 20.9905 65.5202 20.5312C64.7485 20.0672 64.1519 19.4162 63.7305 18.5781C63.3138 17.7353 63.1055 16.7481 63.1055 15.6165C63.1055 14.4991 63.3138 13.5142 63.7305 12.6619C64.1519 11.8097 64.739 11.1444 65.4918 10.6662C66.2494 10.188 67.1348 9.94886 68.1481 9.94886C68.7636 9.94886 69.3602 10.0507 69.9379 10.2543C70.5155 10.4579 71.034 10.7775 71.4933 11.2131C71.9525 11.6487 72.3147 12.2145 72.5799 12.9105C72.8451 13.6018 72.9776 14.4422 72.9776 15.4318V16.1847H64.3058V14.5938H70.8967C70.8967 14.035 70.783 13.5402 70.5558 13.1094C70.3285 12.6738 70.0089 12.3305 69.5969 12.0795C69.1897 11.8286 68.7115 11.7031 68.1623 11.7031C67.5657 11.7031 67.0449 11.8499 66.5998 12.1435C66.1594 12.4323 65.8185 12.8111 65.5771 13.2798C65.3403 13.7438 65.2219 14.2481 65.2219 14.7926V16.0355C65.2219 16.7647 65.3498 17.3849 65.6055 17.8963C65.8659 18.4077 66.2281 18.7983 66.6921 19.0682C67.1561 19.3333 67.6983 19.4659 68.3185 19.4659C68.721 19.4659 69.088 19.4091 69.4194 19.2955C69.7508 19.1771 70.0373 19.0019 70.2788 18.7699C70.5202 18.5379 70.7049 18.2514 70.8327 17.9105L72.8427 18.2727C72.6817 18.8646 72.3929 19.383 71.9762 19.8281C71.5643 20.2685 71.0458 20.6117 70.4208 20.858C69.8005 21.0994 69.0927 21.2202 68.2972 21.2202ZM82.0685 6.45455L86.1168 18.3011H86.2802L90.3285 6.45455H92.7006L87.4663 21H84.9308L79.6964 6.45455H82.0685ZM94.6307 21V10.0909H96.7543V21H94.6307ZM95.7031 8.40767C95.3338 8.40767 95.0166 8.28456 94.7514 8.03835C94.491 7.7874 94.3608 7.48911 94.3608 7.14347C94.3608 6.79309 94.491 6.49479 94.7514 6.24858C95.0166 5.99763 95.3338 5.87216 95.7031 5.87216C96.0724 5.87216 96.3873 5.99763 96.6477 6.24858C96.9129 6.49479 97.0455 6.79309 97.0455 7.14347C97.0455 7.48911 96.9129 7.7874 96.6477 8.03835C96.3873 8.28456 96.0724 8.40767 95.7031 8.40767ZM107.786 12.7543L105.861 13.0952C105.781 12.849 105.653 12.6146 105.478 12.392C105.307 12.1695 105.075 11.9872 104.782 11.8452C104.488 11.7031 104.121 11.6321 103.681 11.6321C103.079 11.6321 102.578 11.767 102.175 12.0369C101.773 12.3021 101.571 12.6454 101.571 13.0668C101.571 13.4313 101.706 13.7249 101.976 13.9474C102.246 14.17 102.682 14.3523 103.283 14.4943L105.016 14.892C106.02 15.1241 106.768 15.4815 107.26 15.9645C107.753 16.4474 107.999 17.0748 107.999 17.8466C107.999 18.5 107.81 19.0824 107.431 19.5938C107.057 20.1004 106.533 20.4981 105.861 20.7869C105.194 21.0758 104.419 21.2202 103.539 21.2202C102.317 21.2202 101.32 20.9598 100.549 20.4389C99.7769 19.9134 99.3034 19.1676 99.1282 18.2017L101.181 17.8892C101.309 18.4242 101.571 18.8291 101.969 19.1037C102.367 19.3736 102.885 19.5085 103.525 19.5085C104.221 19.5085 104.777 19.3641 105.194 19.0753C105.61 18.7817 105.819 18.4242 105.819 18.0028C105.819 17.6619 105.691 17.3755 105.435 17.1435C105.184 16.9115 104.798 16.7363 104.277 16.6179L102.431 16.2131C101.413 15.9811 100.66 15.6117 100.172 15.1051C99.6893 14.5985 99.4478 13.9569 99.4478 13.1804C99.4478 12.5365 99.6277 11.973 99.9876 11.4901C100.347 11.0071 100.845 10.6307 101.479 10.3608C102.114 10.0862 102.84 9.94886 103.659 9.94886C104.838 9.94886 105.766 10.2045 106.444 10.7159C107.121 11.2225 107.568 11.902 107.786 12.7543ZM110.334 21V10.0909H112.457V21H110.334ZM111.406 8.40767C111.037 8.40767 110.72 8.28456 110.455 8.03835C110.194 7.7874 110.064 7.48911 110.064 7.14347C110.064 6.79309 110.194 6.49479 110.455 6.24858C110.72 5.99763 111.037 5.87216 111.406 5.87216C111.776 5.87216 112.09 5.99763 112.351 6.24858C112.616 6.49479 112.749 6.79309 112.749 7.14347C112.749 7.48911 112.616 7.7874 112.351 8.03835C112.09 8.28456 111.776 8.40767 111.406 8.40767ZM123.489 12.7543L121.564 13.0952C121.484 12.849 121.356 12.6146 121.181 12.392C121.01 12.1695 120.778 11.9872 120.485 11.8452C120.191 11.7031 119.824 11.6321 119.384 11.6321C118.783 11.6321 118.281 11.767 117.878 12.0369C117.476 12.3021 117.275 12.6454 117.275 13.0668C117.275 13.4313 117.409 13.7249 117.679 13.9474C117.949 14.17 118.385 14.3523 118.986 14.4943L120.719 14.892C121.723 15.1241 122.471 15.4815 122.963 15.9645C123.456 16.4474 123.702 17.0748 123.702 17.8466C123.702 18.5 123.513 19.0824 123.134 19.5938C122.76 20.1004 122.237 20.4981 121.564 20.7869C120.897 21.0758 120.123 21.2202 119.242 21.2202C118.02 21.2202 117.024 20.9598 116.252 20.4389C115.48 19.9134 115.007 19.1676 114.831 18.2017L116.884 17.8892C117.012 18.4242 117.275 18.8291 117.672 19.1037C118.07 19.3736 118.588 19.5085 119.228 19.5085C119.924 19.5085 120.48 19.3641 120.897 19.0753C121.313 18.7817 121.522 18.4242 121.522 18.0028C121.522 17.6619 121.394 17.3755 121.138 17.1435C120.887 16.9115 120.501 16.7363 119.98 16.6179L118.134 16.2131C117.116 15.9811 116.363 15.6117 115.875 15.1051C115.392 14.5985 115.151 13.9569 115.151 13.1804C115.151 12.5365 115.331 11.973 115.691 11.4901C116.051 11.0071 116.548 10.6307 117.182 10.3608C117.817 10.0862 118.543 9.94886 119.363 9.94886C120.542 9.94886 121.47 10.2045 122.147 10.7159C122.824 11.2225 123.271 11.902 123.489 12.7543ZM131.129 10.0909V11.7955H125.17V10.0909H131.129ZM126.768 7.47727H128.892V17.7969C128.892 18.2088 128.954 18.5189 129.077 18.7273C129.2 18.9309 129.358 19.0705 129.553 19.1463C129.751 19.2173 129.967 19.2528 130.199 19.2528C130.369 19.2528 130.518 19.241 130.646 19.2173C130.774 19.1937 130.874 19.1747 130.945 19.1605L131.328 20.9148C131.205 20.9621 131.03 21.0095 130.803 21.0568C130.575 21.1089 130.291 21.1373 129.95 21.142C129.392 21.1515 128.871 21.0521 128.388 20.8438C127.905 20.6354 127.514 20.3134 127.216 19.8778C126.918 19.4422 126.768 18.8954 126.768 18.2372V7.47727ZM141.477 12.7543L139.553 13.0952C139.472 12.849 139.344 12.6146 139.169 12.392C138.999 12.1695 138.767 11.9872 138.473 11.8452C138.179 11.7031 137.813 11.6321 137.372 11.6321C136.771 11.6321 136.269 11.767 135.866 12.0369C135.464 12.3021 135.263 12.6454 135.263 13.0668C135.263 13.4313 135.398 13.7249 135.668 13.9474C135.938 14.17 136.373 14.3523 136.974 14.4943L138.707 14.892C139.711 15.1241 140.459 15.4815 140.952 15.9645C141.444 16.4474 141.69 17.0748 141.69 17.8466C141.69 18.5 141.501 19.0824 141.122 19.5938C140.748 20.1004 140.225 20.4981 139.553 20.7869C138.885 21.0758 138.111 21.2202 137.23 21.2202C136.009 21.2202 135.012 20.9598 134.24 20.4389C133.468 19.9134 132.995 19.1676 132.82 18.2017L134.872 17.8892C135 18.4242 135.263 18.8291 135.661 19.1037C136.058 19.3736 136.577 19.5085 137.216 19.5085C137.912 19.5085 138.468 19.3641 138.885 19.0753C139.302 18.7817 139.51 18.4242 139.51 18.0028C139.51 17.6619 139.382 17.3755 139.126 17.1435C138.875 16.9115 138.49 16.7363 137.969 16.6179L136.122 16.2131C135.104 15.9811 134.351 15.6117 133.864 15.1051C133.381 14.5985 133.139 13.9569 133.139 13.1804C133.139 12.5365 133.319 11.973 133.679 11.4901C134.039 11.0071 134.536 10.6307 135.17 10.3608C135.805 10.0862 136.532 9.94886 137.351 9.94886C138.53 9.94886 139.458 10.2045 140.135 10.7159C140.812 11.2225 141.259 11.902 141.477 12.7543Z" fill="white"/>
<path d="M11.6335 96.358C9.73295 96.358 8.04545 96.0384 6.57102 95.3991C5.10511 94.7599 3.95455 93.8864 3.11932 92.7784C2.29261 91.6619 1.88352 90.3963 1.89205 88.9815C1.88352 87.8821 2.12216 86.8722 2.60795 85.9517C3.09375 85.0312 3.75 84.2642 4.5767 83.6506C5.41193 83.0284 6.34091 82.6321 7.36364 82.4616V82.2827C6.01705 81.9844 4.92614 81.2983 4.09091 80.2244C3.2642 79.142 2.85511 77.8935 2.86364 76.4787C2.85511 75.1321 3.23011 73.9304 3.98864 72.8736C4.74716 71.8168 5.78693 70.9858 7.10795 70.3807C8.42898 69.767 9.9375 69.4602 11.6335 69.4602C13.3125 69.4602 14.8082 69.767 16.1207 70.3807C17.4418 70.9858 18.4815 71.8168 19.2401 72.8736C20.0071 73.9304 20.3906 75.1321 20.3906 76.4787C20.3906 77.8935 19.9688 79.142 19.125 80.2244C18.2898 81.2983 17.2116 81.9844 15.8906 82.2827V82.4616C16.9134 82.6321 17.8338 83.0284 18.652 83.6506C19.4787 84.2642 20.1349 85.0312 20.6207 85.9517C21.1151 86.8722 21.3622 87.8821 21.3622 88.9815C21.3622 90.3963 20.9446 91.6619 20.1094 92.7784C19.2741 93.8864 18.1236 94.7599 16.6577 95.3991C15.2003 96.0384 13.5256 96.358 11.6335 96.358ZM11.6335 92.7017C12.6136 92.7017 13.4659 92.5355 14.1903 92.2031C14.9148 91.8622 15.4773 91.3849 15.8778 90.7713C16.2784 90.1577 16.483 89.4503 16.4915 88.6491C16.483 87.8139 16.2656 87.0767 15.8395 86.4375C15.4219 85.7898 14.8466 85.2827 14.1136 84.9162C13.3892 84.5497 12.5625 84.3665 11.6335 84.3665C10.696 84.3665 9.8608 84.5497 9.12784 84.9162C8.39489 85.2827 7.81534 85.7898 7.3892 86.4375C6.97159 87.0767 6.76705 87.8139 6.77557 88.6491C6.76705 89.4503 6.96307 90.1577 7.36364 90.7713C7.7642 91.3764 8.3267 91.8494 9.05114 92.1903C9.78409 92.5312 10.6449 92.7017 11.6335 92.7017ZM11.6335 80.7741C12.4347 80.7741 13.142 80.6122 13.7557 80.2884C14.3778 79.9645 14.8679 79.5128 15.2259 78.9332C15.5838 78.3537 15.767 77.6847 15.7756 76.9261C15.767 76.1761 15.5881 75.5199 15.2386 74.9574C14.8892 74.3864 14.4034 73.9474 13.7812 73.6406C13.1591 73.3253 12.4432 73.1676 11.6335 73.1676C10.8068 73.1676 10.0781 73.3253 9.44744 73.6406C8.82528 73.9474 8.33949 74.3864 7.99006 74.9574C7.64915 75.5199 7.48295 76.1761 7.49148 76.9261C7.48295 77.6847 7.65341 78.3537 8.00284 78.9332C8.3608 79.5043 8.85085 79.956 9.47301 80.2884C10.1037 80.6122 10.8239 80.7741 11.6335 80.7741ZM34.6545 69.4602C35.9073 69.4687 37.1261 69.6903 38.3107 70.125C39.5039 70.5511 40.5778 71.25 41.5323 72.2216C42.4869 73.1847 43.2454 74.4759 43.8079 76.0952C44.3704 77.7145 44.6516 79.7173 44.6516 82.1037C44.6602 84.3537 44.4215 86.3651 43.9357 88.1378C43.4585 89.902 42.7724 91.3935 41.8775 92.6122C40.9826 93.831 39.9045 94.7599 38.6431 95.3991C37.3817 96.0384 35.9627 96.358 34.386 96.358C32.7326 96.358 31.2667 96.0341 29.9883 95.3864C28.7184 94.7386 27.6914 93.8523 26.9073 92.7273C26.1232 91.6023 25.6417 90.3153 25.4627 88.8665H30.1289C30.3675 89.9062 30.8533 90.733 31.5863 91.3466C32.3278 91.9517 33.261 92.2543 34.386 92.2543C36.2013 92.2543 37.5991 91.4659 38.5792 89.8892C39.5593 88.3125 40.0494 86.1222 40.0494 83.3182H39.8704C39.4528 84.0682 38.9116 84.7159 38.2468 85.2614C37.582 85.7983 36.8278 86.2116 35.984 86.5014C35.1488 86.7912 34.2624 86.9361 33.3249 86.9361C31.7908 86.9361 30.4102 86.5696 29.1829 85.8366C27.9641 85.1037 26.9968 84.098 26.2809 82.8196C25.5735 81.5412 25.2156 80.0795 25.207 78.4347C25.207 76.7301 25.5991 75.2003 26.3832 73.8452C27.1758 72.4815 28.2795 71.4077 29.6942 70.6236C31.109 69.831 32.7624 69.4432 34.6545 69.4602ZM34.6673 73.2955C33.7468 73.2955 32.9158 73.5213 32.1744 73.973C31.4414 74.4162 30.8619 75.0213 30.4357 75.7884C30.0181 76.5469 29.8093 77.3949 29.8093 78.3324C29.8178 79.2614 30.0266 80.1051 30.4357 80.8636C30.8533 81.6222 31.4201 82.223 32.136 82.6662C32.8604 83.1094 33.6871 83.331 34.6161 83.331C35.3065 83.331 35.9499 83.1989 36.5465 82.9347C37.1431 82.6705 37.663 82.304 38.1062 81.8352C38.5579 81.358 38.9073 80.8168 39.1545 80.2116C39.4102 79.6065 39.5337 78.9673 39.5252 78.294C39.5252 77.3991 39.3121 76.5724 38.886 75.8139C38.4684 75.0554 37.8931 74.446 37.1602 73.9858C36.4357 73.5256 35.6048 73.2955 34.6673 73.2955ZM58.011 96.358C56.3065 96.358 54.7809 96.0384 53.4343 95.3991C52.0877 94.7514 51.0181 93.8651 50.2255 92.7401C49.4414 91.6151 49.0238 90.3281 48.9727 88.8793H53.5749C53.6602 89.9531 54.1246 90.831 54.9684 91.5128C55.8121 92.1861 56.8263 92.5227 58.011 92.5227C58.94 92.5227 59.7667 92.3097 60.4911 91.8835C61.2156 91.4574 61.7866 90.8651 62.2042 90.1065C62.6218 89.348 62.8263 88.483 62.8178 87.5114C62.8263 86.5227 62.6175 85.6449 62.1914 84.8778C61.7653 84.1108 61.1815 83.5099 60.44 83.0753C59.6985 82.6321 58.8462 82.4105 57.8832 82.4105C57.0991 82.402 56.3278 82.5469 55.5692 82.8452C54.8107 83.1435 54.2099 83.5355 53.7667 84.0213L49.484 83.3182L50.8519 69.8182H66.0394V73.7812H54.7766L54.0224 80.723H54.1758C54.6616 80.152 55.3477 79.679 56.234 79.304C57.1204 78.9205 58.092 78.7287 59.1488 78.7287C60.734 78.7287 62.1488 79.1037 63.3931 79.8537C64.6374 80.5952 65.6175 81.6179 66.3335 82.9219C67.0494 84.2259 67.4073 85.7173 67.4073 87.3963C67.4073 89.1264 67.0067 90.669 66.2056 92.0241C65.413 93.3707 64.3093 94.4318 62.8945 95.2074C61.4883 95.9744 59.8604 96.358 58.011 96.358ZM81.3675 96.4986C79.2624 96.4986 77.4556 95.9659 75.9471 94.9006C74.4471 93.8267 73.2923 92.2798 72.4826 90.2599C71.6815 88.2315 71.2809 85.7898 71.2809 82.9347C71.2894 80.0795 71.6942 77.6506 72.4954 75.6477C73.305 73.6364 74.4599 72.1023 75.9599 71.0455C77.4684 69.9886 79.271 69.4602 81.3675 69.4602C83.4641 69.4602 85.2667 69.9886 86.7752 71.0455C88.2837 72.1023 89.4386 73.6364 90.2397 75.6477C91.0494 77.6591 91.4542 80.0881 91.4542 82.9347C91.4542 85.7983 91.0494 88.2443 90.2397 90.2727C89.4386 92.2926 88.2837 93.8352 86.7752 94.9006C85.2752 95.9659 83.4727 96.4986 81.3675 96.4986ZM81.3675 92.4972C83.0039 92.4972 84.2951 91.6918 85.2411 90.081C86.1957 88.4616 86.6729 86.0795 86.6729 82.9347C86.6729 80.8551 86.4556 79.108 86.021 77.6932C85.5863 76.2784 84.9727 75.2131 84.18 74.4972C83.3874 73.7727 82.4499 73.4105 81.3675 73.4105C79.7397 73.4105 78.4528 74.2202 77.5067 75.8395C76.5607 77.4503 76.0835 79.8153 76.0749 82.9347C76.0664 85.0227 76.2752 86.7784 76.7013 88.2017C77.136 89.625 77.7496 90.6989 78.5423 91.4233C79.3349 92.1392 80.2766 92.4972 81.3675 92.4972Z" fill="white"/>
<path d="M169.92 18.7841V8.72727H172.463V18.7841H169.92ZM166.163 15.027V12.4844H176.22V15.027H166.163ZM183.796 21V18.7841L188.974 13.9901C189.414 13.5639 189.783 13.1804 190.082 12.8395C190.385 12.4986 190.614 12.1648 190.771 11.8381C190.927 11.5066 191.005 11.1491 191.005 10.7656C191.005 10.3395 190.908 9.97254 190.714 9.66477C190.52 9.35227 190.254 9.11316 189.918 8.94744C189.582 8.77699 189.201 8.69176 188.775 8.69176C188.33 8.69176 187.942 8.78172 187.61 8.96165C187.279 9.14157 187.023 9.39962 186.843 9.7358C186.663 10.072 186.573 10.4721 186.573 10.9361H183.654C183.654 9.98437 183.87 9.15814 184.3 8.45739C184.731 7.75663 185.335 7.21449 186.112 6.83097C186.888 6.44744 187.783 6.25568 188.796 6.25568C189.838 6.25568 190.745 6.44034 191.516 6.80966C192.293 7.17424 192.897 7.68087 193.327 8.32955C193.758 8.97822 193.974 9.72159 193.974 10.5597C193.974 11.1089 193.865 11.651 193.647 12.1861C193.434 12.7211 193.053 13.3153 192.504 13.9688C191.954 14.6174 191.18 15.3963 190.181 16.3054L188.058 18.3864V18.4858H194.165V21H183.796ZM196.394 21V18.7841L201.571 13.9901C202.012 13.5639 202.381 13.1804 202.679 12.8395C202.982 12.4986 203.212 12.1648 203.368 11.8381C203.525 11.5066 203.603 11.1491 203.603 10.7656C203.603 10.3395 203.506 9.97254 203.311 9.66477C203.117 9.35227 202.852 9.11316 202.516 8.94744C202.18 8.77699 201.799 8.69176 201.373 8.69176C200.927 8.69176 200.539 8.78172 200.208 8.96165C199.876 9.14157 199.621 9.39962 199.441 9.7358C199.261 10.072 199.171 10.4721 199.171 10.9361H196.252C196.252 9.98437 196.467 9.15814 196.898 8.45739C197.329 7.75663 197.933 7.21449 198.709 6.83097C199.486 6.44744 200.381 6.25568 201.394 6.25568C202.435 6.25568 203.342 6.44034 204.114 6.80966C204.891 7.17424 205.494 7.68087 205.925 8.32955C206.356 8.97822 206.571 9.72159 206.571 10.5597C206.571 11.1089 206.462 11.651 206.245 12.1861C206.032 12.7211 205.65 13.3153 205.101 13.9688C204.552 14.6174 203.778 15.3963 202.779 16.3054L200.655 18.3864V18.4858H206.763V21H196.394ZM216.953 18.2727V17.5057C216.953 16.9233 217.076 16.3883 217.322 15.9006C217.573 15.4081 217.936 15.0152 218.409 14.7216C218.887 14.4233 219.47 14.2741 220.156 14.2741C220.852 14.2741 221.437 14.4209 221.911 14.7145C222.389 15.008 222.749 15.401 222.99 15.8935C223.236 16.3812 223.359 16.9186 223.359 17.5057V18.2727C223.359 18.8551 223.236 19.3925 222.99 19.8849C222.744 20.3726 222.382 20.7633 221.903 21.0568C221.425 21.3551 220.843 21.5043 220.156 21.5043C219.46 21.5043 218.875 21.3551 218.402 21.0568C217.929 20.7633 217.569 20.3726 217.322 19.8849C217.076 19.3925 216.953 18.8551 216.953 18.2727ZM219.02 17.5057V18.2727C219.02 18.6089 219.1 18.9261 219.261 19.2244C219.427 19.5227 219.725 19.6719 220.156 19.6719C220.587 19.6719 220.881 19.5251 221.037 19.2315C221.198 18.938 221.278 18.6184 221.278 18.2727V17.5057C221.278 17.16 221.203 16.8381 221.051 16.5398C220.9 16.2415 220.601 16.0923 220.156 16.0923C219.73 16.0923 219.434 16.2415 219.268 16.5398C219.103 16.8381 219.02 17.16 219.02 17.5057ZM209.489 9.94886V9.18182C209.489 8.5947 209.614 8.05729 209.865 7.5696C210.116 7.07718 210.478 6.68419 210.952 6.39062C211.43 6.09706 212.008 5.95028 212.685 5.95028C213.385 5.95028 213.973 6.09706 214.446 6.39062C214.92 6.68419 215.279 7.07718 215.526 7.5696C215.772 8.05729 215.895 8.5947 215.895 9.18182V9.94886C215.895 10.536 215.769 11.0734 215.518 11.5611C215.272 12.0488 214.91 12.4394 214.432 12.733C213.958 13.0218 213.376 13.1662 212.685 13.1662C211.993 13.1662 211.409 13.0194 210.93 12.7259C210.457 12.4276 210.097 12.0369 209.851 11.554C209.609 11.0663 209.489 10.5312 209.489 9.94886ZM211.57 9.18182V9.94886C211.57 10.2945 211.65 10.6141 211.811 10.9077C211.977 11.2012 212.268 11.348 212.685 11.348C213.12 11.348 213.416 11.2012 213.572 10.9077C213.733 10.6141 213.814 10.2945 213.814 9.94886V9.18182C213.814 8.83617 213.738 8.5142 213.587 8.21591C213.435 7.91761 213.134 7.76847 212.685 7.76847C212.263 7.76847 211.972 7.91998 211.811 8.22301C211.65 8.52604 211.57 8.84564 211.57 9.18182ZM210.426 21L220.426 6.45455H222.287L212.287 21H210.426Z" fill="#48C889"/>
</svg>
