<svg width="756" height="622" viewBox="0 0 756 622" fill="none" xmlns="http://www.w3.org/2000/svg">
<path d="M76.3494 539.709L713.712 539.709" stroke="white" stroke-width="0.659216"/>
<path d="M76.3494 446.572L713.712 446.572" stroke="white" stroke-width="0.659216"/>
<path d="M76.3494 353.438L713.712 353.438" stroke="white" stroke-width="0.659216"/>
<path d="M76.3494 260.301L713.712 260.301" stroke="white" stroke-width="0.659216"/>
<path d="M76.3494 167.164L713.712 167.164" stroke="white" stroke-width="0.659216"/>
<path d="M369.508 539.861L369.508 169.019" stroke="white" stroke-width="0.659216" stroke-dasharray="5.49 5.49"/>
<path d="M419.516 539.861L419.516 169.019" stroke="white" stroke-width="0.659216" stroke-dasharray="5.49 5.49"/>
<path d="M470.588 538.006L470.588 167.164" stroke="white" stroke-width="0.659216" stroke-dasharray="5.49 5.49"/>
<path d="M524.852 538.006L524.852 167.164" stroke="white" stroke-width="0.659216" stroke-dasharray="5.49 5.49"/>
<path d="M100.315 539.861L100.315 169.019" stroke="white" stroke-width="0.659216" stroke-dasharray="5.49 5.49"/>
<path d="M152.982 538.009L152.982 167.167" stroke="white" stroke-width="0.659216" stroke-dasharray="5.49 5.49"/>
<path d="M207.247 538.009L207.247 167.167" stroke="white" stroke-width="0.659216" stroke-dasharray="5.49 5.49"/>
<path d="M261.511 538.009L261.511 167.167" stroke="white" stroke-width="0.659216" stroke-dasharray="5.49 5.49"/>
<path d="M315.775 538.009L315.775 167.167" stroke="white" stroke-width="0.659216" stroke-dasharray="5.49 5.49"/>
<path d="M578.584 538.009L578.584 167.167" stroke="white" stroke-width="0.659216" stroke-dasharray="5.49 5.49"/>
<path d="M632.317 538.009L632.317 167.167" stroke="white" stroke-width="0.659216" stroke-dasharray="5.49 5.49"/>
<path d="M687.113 538.009L687.113 167.167" stroke="white" stroke-width="0.659216" stroke-dasharray="5.49 5.49"/>
<path d="M95.2958 568.157H96.2633V573.869C96.2633 574.379 96.1697 574.812 95.9824 575.168C95.7952 575.525 95.5311 575.795 95.1904 575.98C94.8497 576.164 94.4478 576.257 93.9848 576.257C93.5478 576.257 93.159 576.177 92.8182 576.019C92.4775 575.857 92.2096 575.629 92.0145 575.332C91.8194 575.036 91.7219 574.683 91.7219 574.275H92.6739C92.6739 574.501 92.7298 574.699 92.8416 574.868C92.9561 575.034 93.1121 575.164 93.3098 575.258C93.5075 575.352 93.7325 575.398 93.9848 575.398C94.2631 575.398 94.4998 575.34 94.6949 575.223C94.89 575.106 95.0382 574.934 95.1397 574.708C95.2437 574.479 95.2958 574.199 95.2958 573.869V568.157ZM99.8411 576.288C99.4614 576.288 99.1167 576.216 98.8072 576.073C98.4977 575.928 98.2519 575.718 98.0698 575.445C97.8877 575.169 97.7967 574.837 97.7967 574.446C97.7967 574.103 97.8643 573.825 97.9996 573.611C98.1348 573.396 98.3156 573.226 98.5419 573.104C98.7682 572.982 99.0179 572.891 99.291 572.831C99.5667 572.769 99.8437 572.719 100.122 572.683C100.486 572.636 100.781 572.601 101.008 572.577C101.237 572.551 101.403 572.509 101.507 572.449C101.614 572.389 101.667 572.285 101.667 572.137V572.105C101.667 571.72 101.562 571.421 101.351 571.208C101.143 570.995 100.827 570.888 100.403 570.888C99.9634 570.888 99.6187 570.984 99.369 571.177C99.1193 571.369 98.9438 571.575 98.8423 571.793L97.9684 571.481C98.1244 571.117 98.3325 570.833 98.5926 570.631C98.8553 570.425 99.1414 570.282 99.451 570.201C99.7631 570.118 100.07 570.077 100.372 570.077C100.564 570.077 100.785 570.1 101.035 570.147C101.287 570.191 101.531 570.283 101.765 570.424C102.001 570.564 102.198 570.776 102.354 571.06C102.51 571.343 102.588 571.723 102.588 572.199V576.147H101.667V575.336H101.62C101.558 575.466 101.454 575.605 101.308 575.753C101.162 575.902 100.969 576.028 100.727 576.132C100.485 576.236 100.19 576.288 99.8411 576.288ZM99.9816 575.461C100.346 575.461 100.653 575.389 100.902 575.246C101.155 575.103 101.345 574.918 101.472 574.692C101.602 574.466 101.667 574.228 101.667 573.978V573.135C101.628 573.182 101.542 573.225 101.41 573.264C101.28 573.301 101.129 573.333 100.957 573.362C100.788 573.388 100.623 573.411 100.461 573.432C100.303 573.45 100.174 573.466 100.075 573.479C99.8359 573.51 99.6122 573.561 99.4041 573.631C99.1987 573.699 99.0322 573.801 98.9047 573.939C98.7799 574.074 98.7175 574.259 98.7175 574.493C98.7175 574.813 98.8358 575.055 99.0725 575.219C99.3118 575.38 99.6148 575.461 99.9816 575.461ZM105.189 572.542V576.147H104.268V570.155H105.158V571.091H105.236C105.377 570.787 105.59 570.542 105.876 570.357C106.162 570.17 106.531 570.077 106.984 570.077C107.39 570.077 107.745 570.16 108.049 570.326C108.353 570.49 108.59 570.74 108.759 571.075C108.928 571.408 109.013 571.83 109.013 572.339V576.147H108.092V572.402C108.092 571.931 107.97 571.564 107.725 571.302C107.481 571.036 107.145 570.904 106.719 570.904C106.425 570.904 106.162 570.967 105.931 571.095C105.702 571.222 105.521 571.408 105.388 571.653C105.256 571.897 105.189 572.194 105.189 572.542Z" fill="white"/>
<path d="M145.36 576.147V568.157H150.152V569.015H146.328V571.715H149.793V572.574H146.328V576.147H145.36ZM153.757 576.272C153.179 576.272 152.681 576.145 152.262 575.89C151.846 575.632 151.525 575.273 151.299 574.813C151.075 574.35 150.963 573.812 150.963 573.198C150.963 572.584 151.075 572.043 151.299 571.575C151.525 571.104 151.84 570.737 152.243 570.475C152.649 570.209 153.122 570.077 153.663 570.077C153.975 570.077 154.283 570.129 154.588 570.233C154.892 570.337 155.169 570.506 155.419 570.74C155.668 570.971 155.867 571.278 156.016 571.661C156.164 572.043 156.238 572.514 156.238 573.073V573.463H151.619V572.667H155.302C155.302 572.329 155.234 572.027 155.099 571.762C154.966 571.497 154.776 571.287 154.529 571.134C154.285 570.98 153.996 570.904 153.663 570.904C153.296 570.904 152.979 570.995 152.711 571.177C152.446 571.356 152.242 571.59 152.099 571.879C151.955 572.168 151.884 572.477 151.884 572.808V573.338C151.884 573.791 151.962 574.175 152.118 574.489C152.277 574.801 152.496 575.039 152.777 575.203C153.058 575.365 153.385 575.445 153.757 575.445C153.999 575.445 154.217 575.411 154.412 575.344C154.61 575.273 154.78 575.169 154.923 575.032C155.066 574.891 155.177 574.717 155.255 574.509L156.144 574.758C156.051 575.06 155.893 575.326 155.672 575.554C155.451 575.781 155.178 575.958 154.853 576.085C154.528 576.21 154.162 576.272 153.757 576.272ZM157.764 576.147V568.157H158.684V571.107H158.762C158.83 571.003 158.924 570.87 159.043 570.709C159.166 570.545 159.34 570.399 159.566 570.272C159.795 570.142 160.105 570.077 160.495 570.077C160.999 570.077 161.444 570.203 161.829 570.455C162.214 570.707 162.515 571.065 162.73 571.528C162.946 571.991 163.054 572.537 163.054 573.167C163.054 573.801 162.946 574.351 162.73 574.817C162.515 575.28 162.215 575.639 161.833 575.894C161.451 576.146 161.01 576.272 160.51 576.272C160.125 576.272 159.817 576.209 159.586 576.081C159.354 575.951 159.176 575.804 159.051 575.64C158.926 575.474 158.83 575.336 158.762 575.227H158.653V576.147H157.764ZM158.669 573.151C158.669 573.604 158.735 574.003 158.868 574.349C159 574.692 159.194 574.961 159.449 575.156C159.704 575.349 160.016 575.445 160.386 575.445C160.77 575.445 161.092 575.344 161.349 575.141C161.609 574.935 161.804 574.66 161.934 574.314C162.067 573.965 162.133 573.578 162.133 573.151C162.133 572.73 162.068 572.35 161.938 572.012C161.811 571.671 161.617 571.402 161.357 571.204C161.1 571.004 160.776 570.904 160.386 570.904C160.011 570.904 159.696 570.999 159.441 571.189C159.186 571.376 158.994 571.638 158.864 571.977C158.734 572.312 158.669 572.704 158.669 573.151Z" fill="white"/>
<path d="M199.484 568.157H200.639L203.354 574.79H203.448L206.164 568.157H207.318V576.147H206.413V570.077H206.335L203.838 576.147H202.964L200.467 570.077H200.389V576.147H199.484V568.157ZM210.897 576.288C210.517 576.288 210.173 576.216 209.863 576.073C209.554 575.928 209.308 575.718 209.126 575.445C208.944 575.169 208.853 574.837 208.853 574.446C208.853 574.103 208.92 573.825 209.056 573.611C209.191 573.396 209.372 573.226 209.598 573.104C209.824 572.982 210.074 572.891 210.347 572.831C210.623 572.769 210.9 572.719 211.178 572.683C211.542 572.636 211.837 572.601 212.064 572.577C212.293 572.551 212.459 572.509 212.563 572.449C212.67 572.389 212.723 572.285 212.723 572.137V572.105C212.723 571.72 212.618 571.421 212.407 571.208C212.199 570.995 211.883 570.888 211.459 570.888C211.019 570.888 210.675 570.984 210.425 571.177C210.175 571.369 210 571.575 209.898 571.793L209.024 571.481C209.18 571.117 209.389 570.833 209.649 570.631C209.911 570.425 210.197 570.282 210.507 570.201C210.819 570.118 211.126 570.077 211.428 570.077C211.62 570.077 211.841 570.1 212.091 570.147C212.343 570.191 212.587 570.283 212.821 570.424C213.057 570.564 213.254 570.776 213.41 571.06C213.566 571.343 213.644 571.723 213.644 572.199V576.147H212.723V575.336H212.676C212.614 575.466 212.51 575.605 212.364 575.753C212.218 575.902 212.025 576.028 211.783 576.132C211.541 576.236 211.246 576.288 210.897 576.288ZM211.038 575.461C211.402 575.461 211.709 575.389 211.958 575.246C212.211 575.103 212.401 574.918 212.528 574.692C212.658 574.466 212.723 574.228 212.723 573.978V573.135C212.684 573.182 212.598 573.225 212.466 573.264C212.336 573.301 212.185 573.333 212.013 573.362C211.844 573.388 211.679 573.411 211.518 573.432C211.359 573.45 211.23 573.466 211.131 573.479C210.892 573.51 210.668 573.561 210.46 573.631C210.255 573.699 210.088 573.801 209.961 573.939C209.836 574.074 209.773 574.259 209.773 574.493C209.773 574.813 209.892 575.055 210.129 575.219C210.368 575.38 210.671 575.461 211.038 575.461ZM215.324 576.147V570.155H216.214V571.06H216.276C216.386 570.763 216.583 570.523 216.87 570.338C217.156 570.153 217.478 570.061 217.837 570.061C217.905 570.061 217.989 570.062 218.091 570.065C218.192 570.067 218.269 570.071 218.321 570.077V571.013C218.29 571.005 218.218 570.993 218.106 570.978C217.997 570.96 217.881 570.951 217.759 570.951C217.468 570.951 217.208 571.012 216.979 571.134C216.752 571.254 216.573 571.42 216.44 571.633C216.31 571.844 216.245 572.085 216.245 572.355V576.147H215.324Z" fill="white"/>
<path d="M254.935 576.147H253.921L256.855 568.157H257.853L260.787 576.147H259.773L257.385 569.421H257.323L254.935 576.147ZM255.31 573.026H259.398V573.885H255.31V573.026ZM261.907 578.395V570.155H262.797V571.107H262.906C262.974 571.003 263.067 570.87 263.187 570.709C263.309 570.545 263.483 570.399 263.71 570.272C263.939 570.142 264.248 570.077 264.638 570.077C265.143 570.077 265.588 570.203 265.973 570.455C266.358 570.707 266.658 571.065 266.874 571.528C267.09 571.991 267.198 572.537 267.198 573.167C267.198 573.801 267.09 574.351 266.874 574.817C266.658 575.28 266.359 575.639 265.977 575.894C265.594 576.146 265.153 576.272 264.654 576.272C264.269 576.272 263.961 576.209 263.729 576.081C263.498 575.951 263.32 575.804 263.195 575.64C263.07 575.474 262.974 575.336 262.906 575.227H262.828V578.395H261.907ZM262.812 573.151C262.812 573.604 262.879 574.003 263.011 574.349C263.144 574.692 263.338 574.961 263.593 575.156C263.848 575.349 264.16 575.445 264.529 575.445C264.914 575.445 265.235 575.344 265.493 575.141C265.753 574.935 265.948 574.66 266.078 574.314C266.211 573.965 266.277 573.578 266.277 573.151C266.277 572.73 266.212 572.35 266.082 572.012C265.954 571.671 265.761 571.402 265.501 571.204C265.243 571.004 264.919 570.904 264.529 570.904C264.154 570.904 263.84 570.999 263.585 571.189C263.33 571.376 263.137 571.638 263.007 571.977C262.877 572.312 262.812 572.704 262.812 573.151ZM268.602 576.147V570.155H269.492V571.06H269.554C269.664 570.763 269.861 570.523 270.147 570.338C270.433 570.153 270.756 570.061 271.115 570.061C271.183 570.061 271.267 570.062 271.369 570.065C271.47 570.067 271.547 570.071 271.599 570.077V571.013C271.568 571.005 271.496 570.993 271.384 570.978C271.275 570.96 271.159 570.951 271.037 570.951C270.746 570.951 270.486 571.012 270.257 571.134C270.03 571.254 269.851 571.42 269.718 571.633C269.588 571.844 269.523 572.085 269.523 572.355V576.147H268.602Z" fill="white"/>
<path d="M307.731 568.157H308.886L311.601 574.79H311.695L314.41 568.157H315.565V576.147H314.66V570.077H314.582L312.085 576.147H311.211L308.714 570.077H308.636V576.147H307.731V568.157ZM319.144 576.288C318.764 576.288 318.42 576.216 318.11 576.073C317.801 575.928 317.555 575.718 317.373 575.445C317.191 575.169 317.1 574.837 317.1 574.446C317.1 574.103 317.167 573.825 317.302 573.611C317.438 573.396 317.618 573.226 317.845 573.104C318.071 572.982 318.321 572.891 318.594 572.831C318.87 572.769 319.147 572.719 319.425 572.683C319.789 572.636 320.084 572.601 320.311 572.577C320.539 572.551 320.706 572.509 320.81 572.449C320.917 572.389 320.97 572.285 320.97 572.137V572.105C320.97 571.72 320.865 571.421 320.654 571.208C320.446 570.995 320.13 570.888 319.706 570.888C319.266 570.888 318.922 570.984 318.672 571.177C318.422 571.369 318.247 571.575 318.145 571.793L317.271 571.481C317.427 571.117 317.635 570.833 317.895 570.631C318.158 570.425 318.444 570.282 318.754 570.201C319.066 570.118 319.373 570.077 319.675 570.077C319.867 570.077 320.088 570.1 320.338 570.147C320.59 570.191 320.833 570.283 321.067 570.424C321.304 570.564 321.501 570.776 321.657 571.06C321.813 571.343 321.891 571.723 321.891 572.199V576.147H320.97V575.336H320.923C320.861 575.466 320.757 575.605 320.611 575.753C320.465 575.902 320.272 576.028 320.03 576.132C319.788 576.236 319.493 576.288 319.144 576.288ZM319.284 575.461C319.649 575.461 319.956 575.389 320.205 575.246C320.458 575.103 320.647 574.918 320.775 574.692C320.905 574.466 320.97 574.228 320.97 573.978V573.135C320.931 573.182 320.845 573.225 320.712 573.264C320.582 573.301 320.432 573.333 320.26 573.362C320.091 573.388 319.926 573.411 319.764 573.432C319.606 573.45 319.477 573.466 319.378 573.479C319.139 573.51 318.915 573.561 318.707 573.631C318.502 573.699 318.335 573.801 318.208 573.939C318.083 574.074 318.02 574.259 318.02 574.493C318.02 574.813 318.139 575.055 318.375 575.219C318.615 575.38 318.918 575.461 319.284 575.461ZM323.95 578.395C323.794 578.395 323.655 578.382 323.532 578.356C323.41 578.332 323.326 578.309 323.279 578.286L323.513 577.474C323.736 577.531 323.934 577.552 324.106 577.536C324.278 577.521 324.43 577.444 324.562 577.306C324.698 577.171 324.821 576.951 324.933 576.647L325.105 576.179L322.889 570.155H323.887L325.542 574.93H325.604L327.258 570.155H328.257L325.713 577.021C325.599 577.331 325.457 577.587 325.288 577.79C325.119 577.996 324.923 578.148 324.699 578.247C324.478 578.345 324.228 578.395 323.95 578.395Z" fill="white"/>
<path d="M366.913 568.157H367.881V573.869C367.881 574.379 367.787 574.812 367.6 575.168C367.413 575.525 367.149 575.795 366.808 575.98C366.467 576.164 366.065 576.257 365.602 576.257C365.165 576.257 364.776 576.177 364.436 576.019C364.095 575.857 363.827 575.629 363.632 575.332C363.437 575.036 363.339 574.683 363.339 574.275H364.291C364.291 574.501 364.347 574.699 364.459 574.868C364.574 575.034 364.73 575.164 364.927 575.258C365.125 575.352 365.35 575.398 365.602 575.398C365.881 575.398 366.117 575.34 366.312 575.223C366.507 575.106 366.656 574.934 366.757 574.708C366.861 574.479 366.913 574.199 366.913 573.869V568.157ZM373.472 573.697V570.155H374.393V576.147H373.472V575.133H373.409C373.269 575.437 373.05 575.696 372.754 575.909C372.457 576.12 372.083 576.225 371.63 576.225C371.256 576.225 370.923 576.144 370.631 575.98C370.34 575.813 370.111 575.564 369.945 575.231C369.778 574.895 369.695 574.472 369.695 573.963V570.155H370.616V573.9C370.616 574.337 370.738 574.686 370.983 574.946C371.23 575.206 371.544 575.336 371.927 575.336C372.156 575.336 372.388 575.277 372.625 575.16C372.864 575.043 373.065 574.864 373.226 574.622C373.39 574.38 373.472 574.072 373.472 573.697ZM377 572.542V576.147H376.079V570.155H376.969V571.091H377.047C377.187 570.787 377.4 570.542 377.687 570.357C377.973 570.17 378.342 570.077 378.795 570.077C379.2 570.077 379.555 570.16 379.86 570.326C380.164 570.49 380.401 570.74 380.57 571.075C380.739 571.408 380.823 571.83 380.823 572.339V576.147H379.903V572.402C379.903 571.931 379.78 571.564 379.536 571.302C379.291 571.036 378.956 570.904 378.529 570.904C378.235 570.904 377.973 570.967 377.741 571.095C377.512 571.222 377.331 571.408 377.199 571.653C377.066 571.897 377 572.194 377 572.542Z" fill="white"/>
<path d="M420.037 568.157H421.004V573.869C421.004 574.379 420.911 574.812 420.723 575.168C420.536 575.525 420.272 575.795 419.931 575.98C419.591 576.164 419.189 576.257 418.726 576.257C418.289 576.257 417.9 576.177 417.559 576.019C417.218 575.857 416.951 575.629 416.755 575.332C416.56 575.036 416.463 574.683 416.463 574.275H417.415C417.415 574.501 417.471 574.699 417.583 574.868C417.697 575.034 417.853 575.164 418.051 575.258C418.248 575.352 418.473 575.398 418.726 575.398C419.004 575.398 419.241 575.34 419.436 575.223C419.631 575.106 419.779 574.934 419.881 574.708C419.985 574.479 420.037 574.199 420.037 573.869V568.157ZM426.595 573.697V570.155H427.516V576.147H426.595V575.133H426.533C426.392 575.437 426.174 575.696 425.877 575.909C425.581 576.12 425.206 576.225 424.754 576.225C424.379 576.225 424.046 576.144 423.755 575.98C423.464 575.813 423.235 575.564 423.068 575.231C422.902 574.895 422.819 574.472 422.819 573.963V570.155H423.739V573.9C423.739 574.337 423.862 574.686 424.106 574.946C424.353 575.206 424.668 575.336 425.05 575.336C425.279 575.336 425.512 575.277 425.749 575.16C425.988 575.043 426.188 574.864 426.35 574.622C426.513 574.38 426.595 574.072 426.595 573.697ZM430.123 568.157V576.147H429.203V568.157H430.123Z" fill="white"/>
<path d="M466.429 576.147H465.415L468.349 568.157H469.348L472.282 576.147H471.267L468.879 569.421H468.817L466.429 576.147ZM466.804 573.026H470.893V573.885H466.804V573.026ZM477.178 573.697V570.155H478.099V576.147H477.178V575.133H477.116C476.975 575.437 476.757 575.696 476.46 575.909C476.164 576.12 475.789 576.225 475.337 576.225C474.962 576.225 474.629 576.144 474.338 575.98C474.046 575.813 473.817 575.564 473.651 575.231C473.485 574.895 473.401 574.472 473.401 573.963V570.155H474.322V573.9C474.322 574.337 474.444 574.686 474.689 574.946C474.936 575.206 475.251 575.336 475.633 575.336C475.862 575.336 476.095 575.277 476.331 575.16C476.571 575.043 476.771 574.864 476.932 574.622C477.096 574.38 477.178 574.072 477.178 573.697ZM482.204 578.52C481.76 578.52 481.377 578.462 481.057 578.348C480.737 578.236 480.471 578.088 480.257 577.903C480.047 577.721 479.879 577.526 479.754 577.318L480.488 576.803C480.571 576.912 480.676 577.037 480.804 577.177C480.931 577.321 481.105 577.444 481.326 577.548C481.55 577.655 481.843 577.708 482.204 577.708C482.688 577.708 483.087 577.591 483.402 577.357C483.717 577.123 483.874 576.756 483.874 576.257V575.039H483.796C483.729 575.149 483.632 575.284 483.507 575.445C483.385 575.604 483.208 575.746 482.977 575.87C482.748 575.993 482.438 576.054 482.048 576.054C481.564 576.054 481.13 575.939 480.745 575.71C480.363 575.482 480.06 575.149 479.836 574.712C479.615 574.275 479.504 573.744 479.504 573.12C479.504 572.506 479.612 571.971 479.828 571.516C480.044 571.058 480.345 570.705 480.73 570.455C481.114 570.203 481.559 570.077 482.064 570.077C482.454 570.077 482.764 570.142 482.992 570.272C483.224 570.399 483.401 570.545 483.523 570.709C483.648 570.87 483.744 571.003 483.812 571.107H483.905V570.155H484.795V576.319C484.795 576.834 484.678 577.253 484.444 577.575C484.212 577.901 483.9 578.139 483.507 578.289C483.117 578.443 482.683 578.52 482.204 578.52ZM482.173 575.227C482.542 575.227 482.855 575.142 483.109 574.973C483.364 574.804 483.558 574.561 483.691 574.243C483.823 573.926 483.89 573.546 483.89 573.104C483.89 572.672 483.825 572.291 483.695 571.961C483.565 571.631 483.372 571.372 483.117 571.185C482.862 570.997 482.548 570.904 482.173 570.904C481.783 570.904 481.458 571.003 481.198 571.2C480.94 571.398 480.746 571.663 480.616 571.996C480.489 572.329 480.425 572.698 480.425 573.104C480.425 573.52 480.49 573.888 480.62 574.208C480.753 574.526 480.948 574.775 481.206 574.957C481.466 575.137 481.788 575.227 482.173 575.227Z" fill="white"/>
<path d="M525.595 570.155C525.548 569.759 525.358 569.452 525.025 569.234C524.692 569.015 524.284 568.906 523.8 568.906C523.446 568.906 523.137 568.963 522.871 569.078C522.609 569.192 522.403 569.35 522.255 569.55C522.109 569.75 522.036 569.978 522.036 570.233C522.036 570.446 522.087 570.629 522.189 570.783C522.293 570.934 522.425 571.06 522.587 571.161C522.748 571.26 522.917 571.342 523.094 571.407C523.271 571.469 523.433 571.52 523.581 571.559L524.393 571.778C524.601 571.832 524.833 571.908 525.088 572.004C525.345 572.1 525.591 572.232 525.825 572.398C526.062 572.562 526.257 572.773 526.41 573.03C526.564 573.288 526.64 573.604 526.64 573.978C526.64 574.41 526.527 574.8 526.301 575.149C526.077 575.497 525.749 575.774 525.318 575.98C524.889 576.185 524.367 576.288 523.753 576.288C523.181 576.288 522.685 576.196 522.267 576.011C521.85 575.826 521.523 575.569 521.283 575.238C521.047 574.908 520.913 574.524 520.882 574.087H521.88C521.906 574.389 522.008 574.639 522.185 574.837C522.364 575.032 522.59 575.177 522.864 575.274C523.139 575.367 523.436 575.414 523.753 575.414C524.123 575.414 524.454 575.354 524.748 575.234C525.042 575.112 525.275 574.943 525.446 574.727C525.618 574.509 525.704 574.254 525.704 573.963C525.704 573.697 525.63 573.481 525.482 573.315C525.333 573.148 525.138 573.013 524.896 572.909C524.654 572.805 524.393 572.714 524.112 572.636L523.129 572.355C522.505 572.176 522.01 571.919 521.646 571.586C521.282 571.254 521.1 570.818 521.1 570.279C521.1 569.832 521.221 569.442 521.463 569.109C521.707 568.773 522.035 568.513 522.446 568.329C522.86 568.141 523.321 568.048 523.831 568.048C524.346 568.048 524.804 568.14 525.205 568.325C525.605 568.507 525.922 568.757 526.157 569.074C526.393 569.391 526.518 569.751 526.531 570.155H525.595ZM530.619 576.272C530.042 576.272 529.543 576.145 529.125 575.89C528.709 575.632 528.387 575.273 528.161 574.813C527.937 574.35 527.825 573.812 527.825 573.198C527.825 572.584 527.937 572.043 528.161 571.575C528.387 571.104 528.702 570.737 529.105 570.475C529.511 570.209 529.984 570.077 530.525 570.077C530.838 570.077 531.146 570.129 531.45 570.233C531.754 570.337 532.031 570.506 532.281 570.74C532.531 570.971 532.73 571.278 532.878 571.661C533.026 572.043 533.1 572.514 533.1 573.073V573.463H528.481V572.667H532.164C532.164 572.329 532.096 572.027 531.961 571.762C531.829 571.497 531.639 571.287 531.392 571.134C531.147 570.98 530.858 570.904 530.525 570.904C530.159 570.904 529.841 570.995 529.573 571.177C529.308 571.356 529.104 571.59 528.961 571.879C528.818 572.168 528.746 572.477 528.746 572.808V573.338C528.746 573.791 528.824 574.175 528.98 574.489C529.139 574.801 529.359 575.039 529.64 575.203C529.921 575.365 530.247 575.445 530.619 575.445C530.861 575.445 531.079 575.411 531.274 575.344C531.472 575.273 531.643 575.169 531.786 575.032C531.929 574.891 532.039 574.717 532.117 574.509L533.007 574.758C532.913 575.06 532.756 575.326 532.535 575.554C532.314 575.781 532.041 575.958 531.715 576.085C531.39 576.21 531.025 576.272 530.619 576.272ZM534.501 578.395V570.155H535.391V571.107H535.5C535.568 571.003 535.661 570.87 535.781 570.709C535.903 570.545 536.077 570.399 536.304 570.272C536.533 570.142 536.842 570.077 537.232 570.077C537.737 570.077 538.182 570.203 538.567 570.455C538.952 570.707 539.252 571.065 539.468 571.528C539.684 571.991 539.792 572.537 539.792 573.167C539.792 573.801 539.684 574.351 539.468 574.817C539.252 575.28 538.953 575.639 538.571 575.894C538.188 576.146 537.747 576.272 537.248 576.272C536.863 576.272 536.555 576.209 536.323 576.081C536.092 575.951 535.914 575.804 535.789 575.64C535.664 575.474 535.568 575.336 535.5 575.227H535.422V578.395H534.501ZM535.406 573.151C535.406 573.604 535.473 574.003 535.605 574.349C535.738 574.692 535.932 574.961 536.187 575.156C536.442 575.349 536.754 575.445 537.123 575.445C537.508 575.445 537.829 575.344 538.087 575.141C538.347 574.935 538.542 574.66 538.672 574.314C538.805 573.965 538.871 573.578 538.871 573.151C538.871 572.73 538.806 572.35 538.676 572.012C538.548 571.671 538.355 571.402 538.095 571.204C537.837 571.004 537.513 570.904 537.123 570.904C536.748 570.904 536.434 570.999 536.179 571.189C535.924 571.376 535.731 571.638 535.601 571.977C535.471 572.312 535.406 572.704 535.406 573.151Z" fill="white"/>
<path d="M583.09 572.152C583.09 572.995 582.938 573.723 582.634 574.337C582.33 574.951 581.912 575.424 581.382 575.757C580.851 576.09 580.245 576.257 579.563 576.257C578.882 576.257 578.276 576.09 577.745 575.757C577.215 575.424 576.797 574.951 576.493 574.337C576.188 573.723 576.036 572.995 576.036 572.152C576.036 571.309 576.188 570.581 576.493 569.967C576.797 569.353 577.215 568.88 577.745 568.547C578.276 568.214 578.882 568.048 579.563 568.048C580.245 568.048 580.851 568.214 581.382 568.547C581.912 568.88 582.33 569.353 582.634 569.967C582.938 570.581 583.09 571.309 583.09 572.152ZM582.154 572.152C582.154 571.46 582.038 570.876 581.807 570.4C581.578 569.924 581.267 569.564 580.874 569.32C580.484 569.075 580.047 568.953 579.563 568.953C579.08 568.953 578.641 569.075 578.249 569.32C577.858 569.564 577.548 569.924 577.316 570.4C577.087 570.876 576.973 571.46 576.973 572.152C576.973 572.844 577.087 573.428 577.316 573.904C577.548 574.38 577.858 574.74 578.249 574.985C578.641 575.229 579.08 575.352 579.563 575.352C580.047 575.352 580.484 575.229 580.874 574.985C581.267 574.74 581.578 574.38 581.807 573.904C582.038 573.428 582.154 572.844 582.154 572.152ZM587.027 576.272C586.465 576.272 585.982 576.14 585.576 575.874C585.17 575.609 584.858 575.244 584.639 574.778C584.421 574.312 584.312 573.78 584.312 573.182C584.312 572.574 584.423 572.036 584.647 571.571C584.873 571.103 585.188 570.737 585.591 570.475C585.997 570.209 586.471 570.077 587.012 570.077C587.433 570.077 587.813 570.155 588.151 570.311C588.489 570.467 588.766 570.685 588.982 570.966C589.198 571.247 589.332 571.575 589.384 571.949H588.463C588.393 571.676 588.237 571.434 587.995 571.224C587.755 571.01 587.433 570.904 587.027 570.904C586.668 570.904 586.353 570.997 586.083 571.185C585.815 571.369 585.606 571.631 585.455 571.969C585.307 572.304 585.232 572.698 585.232 573.151C585.232 573.614 585.305 574.017 585.451 574.361C585.599 574.704 585.807 574.97 586.075 575.16C586.346 575.35 586.663 575.445 587.027 575.445C587.266 575.445 587.484 575.404 587.679 575.32C587.874 575.237 588.039 575.117 588.174 574.961C588.309 574.805 588.406 574.618 588.463 574.4H589.384C589.332 574.753 589.203 575.072 588.997 575.355C588.795 575.636 588.525 575.86 588.19 576.027C587.857 576.19 587.469 576.272 587.027 576.272ZM593.336 570.155V570.935H590.23V570.155H593.336ZM591.136 568.719H592.056V574.431C592.056 574.691 592.094 574.886 592.169 575.016C592.248 575.143 592.346 575.229 592.466 575.274C592.588 575.315 592.717 575.336 592.852 575.336C592.954 575.336 593.037 575.331 593.102 575.32C593.167 575.307 593.219 575.297 593.258 575.289L593.445 576.116C593.383 576.14 593.296 576.163 593.184 576.186C593.072 576.212 592.93 576.225 592.759 576.225C592.499 576.225 592.244 576.17 591.994 576.058C591.747 575.946 591.541 575.776 591.377 575.547C591.216 575.318 591.136 575.029 591.136 574.68V568.719Z" fill="white"/>
<path d="M635.808 568.157V576.147H634.872L630.518 569.874H630.439V576.147H629.472V568.157H630.408L634.778 574.446H634.856V568.157H635.808ZM640.054 576.272C639.513 576.272 639.038 576.144 638.63 575.886C638.224 575.629 637.907 575.268 637.678 574.805C637.452 574.342 637.338 573.801 637.338 573.182C637.338 572.558 637.452 572.013 637.678 571.547C637.907 571.082 638.224 570.72 638.63 570.463C639.038 570.205 639.513 570.077 640.054 570.077C640.595 570.077 641.068 570.205 641.474 570.463C641.883 570.72 642.2 571.082 642.426 571.547C642.655 572.013 642.77 572.558 642.77 573.182C642.77 573.801 642.655 574.342 642.426 574.805C642.2 575.268 641.883 575.629 641.474 575.886C641.068 576.144 640.595 576.272 640.054 576.272ZM640.054 575.445C640.465 575.445 640.803 575.34 641.068 575.129C641.334 574.918 641.53 574.641 641.658 574.298C641.785 573.955 641.849 573.583 641.849 573.182C641.849 572.782 641.785 572.408 641.658 572.062C641.53 571.717 641.334 571.437 641.068 571.224C640.803 571.01 640.465 570.904 640.054 570.904C639.643 570.904 639.305 571.01 639.04 571.224C638.774 571.437 638.578 571.717 638.45 572.062C638.323 572.408 638.259 572.782 638.259 573.182C638.259 573.583 638.323 573.955 638.45 574.298C638.578 574.641 638.774 574.918 639.04 575.129C639.305 575.34 639.643 575.445 640.054 575.445ZM648.861 570.155L646.645 576.147H645.708L643.492 570.155H644.491L646.145 574.93H646.208L647.862 570.155H648.861Z" fill="white"/>
<path d="M687.061 576.147H684.595V568.157H687.17C687.945 568.157 688.609 568.317 689.16 568.637C689.712 568.954 690.134 569.411 690.428 570.006C690.722 570.599 690.869 571.309 690.869 572.137C690.869 572.969 690.721 573.686 690.424 574.286C690.128 574.885 689.696 575.345 689.129 575.668C688.562 575.987 687.873 576.147 687.061 576.147ZM685.563 575.289H686.999C687.659 575.289 688.207 575.162 688.641 574.907C689.076 574.652 689.399 574.289 689.613 573.818C689.826 573.347 689.933 572.787 689.933 572.137C689.933 571.492 689.827 570.936 689.617 570.471C689.406 570.002 689.091 569.643 688.672 569.394C688.254 569.141 687.732 569.015 687.108 569.015H685.563V575.289ZM694.88 576.272C694.302 576.272 693.804 576.145 693.386 575.89C692.969 575.632 692.648 575.273 692.422 574.813C692.198 574.35 692.086 573.812 692.086 573.198C692.086 572.584 692.198 572.043 692.422 571.575C692.648 571.104 692.963 570.737 693.366 570.475C693.772 570.209 694.245 570.077 694.786 570.077C695.098 570.077 695.407 570.129 695.711 570.233C696.015 570.337 696.292 570.506 696.542 570.74C696.792 570.971 696.991 571.278 697.139 571.661C697.287 572.043 697.361 572.514 697.361 573.073V573.463H692.742V572.667H696.425C696.425 572.329 696.357 572.027 696.222 571.762C696.089 571.497 695.9 571.287 695.652 571.134C695.408 570.98 695.119 570.904 694.786 570.904C694.42 570.904 694.102 570.995 693.834 571.177C693.569 571.356 693.365 571.59 693.222 571.879C693.079 572.168 693.007 572.477 693.007 572.808V573.338C693.007 573.791 693.085 574.175 693.241 574.489C693.4 574.801 693.62 575.039 693.901 575.203C694.182 575.365 694.508 575.445 694.88 575.445C695.122 575.445 695.34 575.411 695.535 575.344C695.733 575.273 695.903 575.169 696.047 575.032C696.19 574.891 696.3 574.717 696.378 574.509L697.268 574.758C697.174 575.06 697.017 575.326 696.796 575.554C696.575 575.781 696.301 575.958 695.976 576.085C695.651 576.21 695.286 576.272 694.88 576.272ZM701.197 576.272C700.635 576.272 700.151 576.14 699.745 575.874C699.339 575.609 699.027 575.244 698.809 574.778C698.59 574.312 698.481 573.78 698.481 573.182C698.481 572.574 698.593 572.036 698.817 571.571C699.043 571.103 699.358 570.737 699.761 570.475C700.167 570.209 700.64 570.077 701.181 570.077C701.602 570.077 701.982 570.155 702.32 570.311C702.658 570.467 702.935 570.685 703.151 570.966C703.367 571.247 703.501 571.575 703.553 571.949H702.632C702.562 571.676 702.406 571.434 702.164 571.224C701.925 571.01 701.602 570.904 701.197 570.904C700.838 570.904 700.523 570.997 700.252 571.185C699.985 571.369 699.775 571.631 699.624 571.969C699.476 572.304 699.402 572.698 699.402 573.151C699.402 573.614 699.475 574.017 699.62 574.361C699.769 574.704 699.977 574.97 700.245 575.16C700.515 575.35 700.832 575.445 701.197 575.445C701.436 575.445 701.653 575.404 701.848 575.32C702.043 575.237 702.208 575.117 702.344 574.961C702.479 574.805 702.575 574.618 702.632 574.4H703.553C703.501 574.753 703.372 575.072 703.167 575.355C702.964 575.636 702.695 575.86 702.359 576.027C702.026 576.19 701.639 576.272 701.197 576.272Z" fill="white"/>
<path d="M31.9176 28V10.5455H38.1392C39.4915 10.5455 40.6136 10.7784 41.5057 11.2443C42.4034 11.7102 43.0739 12.3551 43.517 13.179C43.9602 13.9972 44.1818 14.9432 44.1818 16.017C44.1818 17.0852 43.9574 18.0256 43.5085 18.8381C43.0653 19.6449 42.3949 20.2727 41.4972 20.7216C40.6051 21.1705 39.483 21.3949 38.1307 21.3949H33.4176V19.1278H37.892C38.7443 19.1278 39.4375 19.0057 39.9716 18.7614C40.5114 18.517 40.9062 18.1619 41.1562 17.696C41.4062 17.2301 41.5312 16.6705 41.5312 16.017C41.5312 15.358 41.4034 14.7869 41.1477 14.304C40.8977 13.821 40.5028 13.4517 39.9631 13.196C39.429 12.9347 38.7273 12.804 37.858 12.804H34.5511V28H31.9176ZM40.5341 20.125L44.8466 28H41.8466L37.6193 20.125H40.5341ZM52.6598 28.2642C51.37 28.2642 50.2592 27.9886 49.3274 27.4375C48.4013 26.8807 47.6854 26.0994 47.1797 25.0938C46.6797 24.0824 46.4297 22.8977 46.4297 21.5398C46.4297 20.1989 46.6797 19.017 47.1797 17.9943C47.6854 16.9716 48.3899 16.1733 49.2933 15.5994C50.2024 15.0256 51.2649 14.7386 52.4808 14.7386C53.2195 14.7386 53.9354 14.8608 54.6286 15.1051C55.3217 15.3494 55.9439 15.733 56.495 16.2557C57.0462 16.7784 57.4808 17.4574 57.799 18.2926C58.1172 19.1222 58.2763 20.1307 58.2763 21.3182V22.2216H47.87V20.3125H55.7791C55.7791 19.642 55.6428 19.0483 55.37 18.5312C55.0973 18.0085 54.7138 17.5966 54.2195 17.2955C53.7308 16.9943 53.157 16.8438 52.4979 16.8438C51.782 16.8438 51.157 17.0199 50.6229 17.3722C50.0945 17.7187 49.6854 18.1733 49.3956 18.7358C49.1115 19.2926 48.9695 19.8977 48.9695 20.5511V22.0426C48.9695 22.9176 49.1229 23.6619 49.4297 24.2756C49.7422 24.8892 50.1768 25.358 50.7337 25.6818C51.2905 26 51.9411 26.1591 52.6854 26.1591C53.1683 26.1591 53.6087 26.0909 54.0064 25.9545C54.4041 25.8125 54.7479 25.6023 55.0376 25.3239C55.3274 25.0455 55.549 24.7017 55.7024 24.2926L58.1143 24.7273C57.9212 25.4375 57.5746 26.0597 57.0746 26.5938C56.5803 27.1222 55.9581 27.5341 55.2081 27.8295C54.4638 28.1193 53.6143 28.2642 52.6598 28.2642ZM71.9276 14.9091L67.1804 28H64.4531L59.6974 14.9091H62.4332L65.7486 24.983H65.8849L69.1918 14.9091H71.9276ZM79.5192 28.2642C78.2294 28.2642 77.1186 27.9886 76.1868 27.4375C75.2607 26.8807 74.5447 26.0994 74.0391 25.0938C73.5391 24.0824 73.2891 22.8977 73.2891 21.5398C73.2891 20.1989 73.5391 19.017 74.0391 17.9943C74.5447 16.9716 75.2493 16.1733 76.1527 15.5994C77.0618 15.0256 78.1243 14.7386 79.3402 14.7386C80.0788 14.7386 80.7947 14.8608 81.4879 15.1051C82.1811 15.3494 82.8033 15.733 83.3544 16.2557C83.9055 16.7784 84.3402 17.4574 84.6584 18.2926C84.9766 19.1222 85.1357 20.1307 85.1357 21.3182V22.2216H74.7294V20.3125H82.6385C82.6385 19.642 82.5021 19.0483 82.2294 18.5312C81.9567 18.0085 81.5732 17.5966 81.0788 17.2955C80.5902 16.9943 80.0163 16.8438 79.3572 16.8438C78.6413 16.8438 78.0163 17.0199 77.4822 17.3722C76.9538 17.7187 76.5447 18.1733 76.255 18.7358C75.9709 19.2926 75.8288 19.8977 75.8288 20.5511V22.0426C75.8288 22.9176 75.9822 23.6619 76.2891 24.2756C76.6016 24.8892 77.0362 25.358 77.593 25.6818C78.1499 26 78.8004 26.1591 79.5447 26.1591C80.0277 26.1591 80.468 26.0909 80.8658 25.9545C81.2635 25.8125 81.6072 25.6023 81.897 25.3239C82.1868 25.0455 82.4084 24.7017 82.5618 24.2926L84.9737 24.7273C84.7805 25.4375 84.4339 26.0597 83.9339 26.5938C83.4396 27.1222 82.8175 27.5341 82.0675 27.8295C81.3232 28.1193 80.4737 28.2642 79.5192 28.2642ZM90.5114 20.2273V28H87.9631V14.9091H90.4091V17.0398H90.571C90.8722 16.3466 91.3438 15.7898 91.9858 15.3693C92.6335 14.9489 93.4489 14.7386 94.4318 14.7386C95.3239 14.7386 96.1051 14.9261 96.7756 15.3011C97.446 15.6705 97.9659 16.2216 98.3352 16.9545C98.7045 17.6875 98.8892 18.5937 98.8892 19.6733V28H96.3409V19.9801C96.3409 19.0312 96.0938 18.2898 95.5994 17.7557C95.1051 17.2159 94.4261 16.946 93.5625 16.946C92.9716 16.946 92.446 17.0739 91.9858 17.3295C91.5313 17.5852 91.1705 17.9602 90.9034 18.4545C90.642 18.9432 90.5114 19.5341 90.5114 20.2273ZM110.599 22.571V14.9091H113.156V28H110.651V25.733H110.514C110.213 26.4318 109.73 27.0142 109.065 27.4801C108.406 27.9403 107.585 28.1705 106.602 28.1705C105.761 28.1705 105.017 27.9858 104.369 27.6165C103.727 27.2415 103.222 26.6875 102.852 25.9545C102.489 25.2216 102.307 24.3153 102.307 23.2358V14.9091H104.855V22.929C104.855 23.821 105.102 24.5312 105.597 25.0597C106.091 25.5881 106.733 25.8523 107.523 25.8523C108 25.8523 108.474 25.733 108.946 25.4943C109.423 25.2557 109.818 24.8949 110.131 24.4119C110.449 23.929 110.605 23.3153 110.599 22.571ZM122.222 28.2642C120.933 28.2642 119.822 27.9886 118.89 27.4375C117.964 26.8807 117.248 26.0994 116.742 25.0938C116.242 24.0824 115.992 22.8977 115.992 21.5398C115.992 20.1989 116.242 19.017 116.742 17.9943C117.248 16.9716 117.952 16.1733 118.856 15.5994C119.765 15.0256 120.827 14.7386 122.043 14.7386C122.782 14.7386 123.498 14.8608 124.191 15.1051C124.884 15.3494 125.506 15.733 126.058 16.2557C126.609 16.7784 127.043 17.4574 127.362 18.2926C127.68 19.1222 127.839 20.1307 127.839 21.3182V22.2216H117.433V20.3125H125.342C125.342 19.642 125.205 19.0483 124.933 18.5312C124.66 18.0085 124.276 17.5966 123.782 17.2955C123.293 16.9943 122.719 16.8438 122.06 16.8438C121.344 16.8438 120.719 17.0199 120.185 17.3722C119.657 17.7187 119.248 18.1733 118.958 18.7358C118.674 19.2926 118.532 19.8977 118.532 20.5511V22.0426C118.532 22.9176 118.685 23.6619 118.992 24.2756C119.305 24.8892 119.739 25.358 120.296 25.6818C120.853 26 121.504 26.1591 122.248 26.1591C122.731 26.1591 123.171 26.0909 123.569 25.9545C123.967 25.8125 124.31 25.6023 124.6 25.3239C124.89 25.0455 125.112 24.7017 125.265 24.2926L127.677 24.7273C127.484 25.4375 127.137 26.0597 126.637 26.5938C126.143 27.1222 125.521 27.5341 124.771 27.8295C124.026 28.1193 123.177 28.2642 122.222 28.2642ZM137.222 28V10.5455H139.771V17.0312H139.924C140.072 16.7585 140.285 16.4432 140.563 16.0852C140.842 15.7273 141.228 15.4148 141.722 15.1477C142.217 14.875 142.87 14.7386 143.683 14.7386C144.739 14.7386 145.683 15.0057 146.512 15.5398C147.342 16.0739 147.992 16.8437 148.464 17.8494C148.941 18.8551 149.18 20.0653 149.18 21.4801C149.18 22.8949 148.944 24.108 148.472 25.1193C148.001 26.125 147.353 26.9006 146.529 27.446C145.705 27.9858 144.765 28.2557 143.708 28.2557C142.913 28.2557 142.262 28.1222 141.756 27.8551C141.256 27.5881 140.864 27.2756 140.58 26.9176C140.296 26.5597 140.077 26.2415 139.924 25.9631H139.711V28H137.222ZM139.719 21.4545C139.719 22.375 139.853 23.1818 140.12 23.875C140.387 24.5682 140.773 25.1108 141.279 25.5028C141.785 25.8892 142.404 26.0824 143.137 26.0824C143.898 26.0824 144.535 25.8807 145.046 25.4773C145.558 25.0682 145.944 24.5142 146.205 23.8153C146.472 23.1165 146.606 22.3295 146.606 21.4545C146.606 20.5909 146.475 19.8153 146.214 19.1278C145.958 18.4403 145.572 17.8977 145.055 17.5C144.543 17.1023 143.904 16.9034 143.137 16.9034C142.398 16.9034 141.773 17.0937 141.262 17.4744C140.756 17.8551 140.373 18.3864 140.112 19.0682C139.85 19.75 139.719 20.5455 139.719 21.4545ZM153.207 32.9091C152.826 32.9091 152.479 32.8778 152.167 32.8153C151.854 32.7585 151.621 32.696 151.468 32.6278L152.082 30.5398C152.548 30.6648 152.962 30.7188 153.326 30.7017C153.69 30.6847 154.011 30.5483 154.289 30.2926C154.573 30.0369 154.823 29.6193 155.039 29.0398L155.354 28.1705L150.565 14.9091H153.292L156.607 25.0682H156.744L160.059 14.9091H162.795L157.4 29.7472C157.15 30.429 156.832 31.0057 156.445 31.4773C156.059 31.9545 155.599 32.3125 155.065 32.5511C154.531 32.7898 153.911 32.9091 153.207 32.9091ZM177.055 28.2642C175.788 28.2642 174.697 27.9773 173.783 27.4034C172.874 26.8239 172.175 26.0256 171.686 25.0085C171.197 23.9915 170.953 22.8267 170.953 21.5142C170.953 20.1847 171.203 19.0114 171.703 17.9943C172.203 16.9716 172.908 16.1733 173.817 15.5994C174.726 15.0256 175.797 14.7386 177.03 14.7386C178.024 14.7386 178.911 14.9233 179.689 15.2926C180.467 15.6562 181.095 16.1676 181.572 16.8267C182.055 17.4858 182.342 18.2557 182.433 19.1364H179.953C179.817 18.5227 179.504 17.9943 179.016 17.5511C178.533 17.108 177.885 16.8864 177.072 16.8864C176.362 16.8864 175.74 17.0739 175.206 17.4489C174.678 17.8182 174.266 18.3466 173.97 19.0341C173.675 19.7159 173.527 20.5227 173.527 21.4545C173.527 22.4091 173.672 23.233 173.962 23.9261C174.251 24.6193 174.661 25.1562 175.189 25.5369C175.723 25.9176 176.351 26.108 177.072 26.108C177.555 26.108 177.993 26.0199 178.385 25.8438C178.783 25.6619 179.115 25.4034 179.382 25.0682C179.655 24.733 179.845 24.3295 179.953 23.858H182.433C182.342 24.7045 182.067 25.4602 181.607 26.125C181.146 26.7898 180.53 27.3125 179.757 27.6932C178.99 28.0739 178.089 28.2642 177.055 28.2642ZM193.451 22.571V14.9091H196.008V28H193.502V25.733H193.366C193.065 26.4318 192.582 27.0142 191.917 27.4801C191.258 27.9403 190.437 28.1705 189.454 28.1705C188.613 28.1705 187.869 27.9858 187.221 27.6165C186.579 27.2415 186.073 26.6875 185.704 25.9545C185.34 25.2216 185.158 24.3153 185.158 23.2358V14.9091H187.707V22.929C187.707 23.821 187.954 24.5312 188.448 25.0597C188.942 25.5881 189.585 25.8523 190.374 25.8523C190.852 25.8523 191.326 25.733 191.798 25.4943C192.275 25.2557 192.67 24.8949 192.982 24.4119C193.3 23.929 193.457 23.3153 193.451 22.571ZM209.241 18.1051L206.932 18.5142C206.835 18.2187 206.682 17.9375 206.472 17.6705C206.267 17.4034 205.989 17.1847 205.636 17.0142C205.284 16.8437 204.844 16.7585 204.315 16.7585C203.594 16.7585 202.991 16.9205 202.509 17.2443C202.026 17.5625 201.784 17.9744 201.784 18.4801C201.784 18.9176 201.946 19.2699 202.27 19.5369C202.594 19.804 203.116 20.0227 203.838 20.1932L205.918 20.6705C207.122 20.9489 208.02 21.3778 208.611 21.9574C209.202 22.5369 209.497 23.2898 209.497 24.2159C209.497 25 209.27 25.6989 208.815 26.3125C208.366 26.9205 207.739 27.3977 206.932 27.7443C206.131 28.0909 205.202 28.2642 204.145 28.2642C202.679 28.2642 201.483 27.9517 200.557 27.3267C199.631 26.696 199.063 25.8011 198.852 24.642L201.315 24.267C201.469 24.9091 201.784 25.3949 202.261 25.7244C202.739 26.0483 203.361 26.2102 204.128 26.2102C204.963 26.2102 205.631 26.0369 206.131 25.6903C206.631 25.3381 206.881 24.9091 206.881 24.4034C206.881 23.9943 206.727 23.6506 206.42 23.3722C206.119 23.0937 205.656 22.8835 205.031 22.7415L202.815 22.2557C201.594 21.9773 200.69 21.5341 200.105 20.9261C199.526 20.3182 199.236 19.5483 199.236 18.6165C199.236 17.8437 199.452 17.1676 199.884 16.5881C200.315 16.0085 200.912 15.5568 201.673 15.233C202.435 14.9034 203.307 14.7386 204.29 14.7386C205.705 14.7386 206.818 15.0455 207.631 15.6591C208.443 16.267 208.98 17.0824 209.241 18.1051ZM218.41 14.9091V16.9545H211.259V14.9091H218.41ZM213.177 11.7727H215.725V24.1562C215.725 24.6506 215.799 25.0227 215.947 25.2727C216.094 25.517 216.285 25.6847 216.518 25.7756C216.756 25.8608 217.015 25.9034 217.293 25.9034C217.498 25.9034 217.677 25.8892 217.83 25.8608C217.984 25.8324 218.103 25.8097 218.188 25.7926L218.648 27.8977C218.501 27.9545 218.29 28.0114 218.018 28.0682C217.745 28.1307 217.404 28.1648 216.995 28.1705C216.325 28.1818 215.7 28.0625 215.12 27.8125C214.54 27.5625 214.072 27.1761 213.714 26.6534C213.356 26.1307 213.177 25.4744 213.177 24.6847V11.7727ZM226.602 28.2642C225.375 28.2642 224.304 27.983 223.389 27.4205C222.474 26.858 221.764 26.071 221.259 25.0597C220.753 24.0483 220.5 22.8665 220.5 21.5142C220.5 20.1562 220.753 18.9687 221.259 17.9517C221.764 16.9347 222.474 16.1449 223.389 15.5824C224.304 15.0199 225.375 14.7386 226.602 14.7386C227.83 14.7386 228.901 15.0199 229.815 15.5824C230.73 16.1449 231.44 16.9347 231.946 17.9517C232.452 18.9687 232.705 20.1562 232.705 21.5142C232.705 22.8665 232.452 24.0483 231.946 25.0597C231.44 26.071 230.73 26.858 229.815 27.4205C228.901 27.983 227.83 28.2642 226.602 28.2642ZM226.611 26.125C227.406 26.125 228.065 25.9148 228.588 25.4943C229.111 25.0739 229.497 24.5142 229.747 23.8153C230.003 23.1165 230.131 22.3466 230.131 21.5057C230.131 20.6705 230.003 19.9034 229.747 19.2045C229.497 18.5 229.111 17.9347 228.588 17.5085C228.065 17.0824 227.406 16.8693 226.611 16.8693C225.81 16.8693 225.145 17.0824 224.616 17.5085C224.094 17.9347 223.705 18.5 223.449 19.2045C223.199 19.9034 223.074 20.6705 223.074 21.5057C223.074 22.3466 223.199 23.1165 223.449 23.8153C223.705 24.5142 224.094 25.0739 224.616 25.4943C225.145 25.9148 225.81 26.125 226.611 26.125ZM235.549 28V14.9091H237.995V17.0398H238.157C238.43 16.3182 238.876 15.7557 239.495 15.3523C240.114 14.9432 240.856 14.7386 241.719 14.7386C242.594 14.7386 243.327 14.9432 243.918 15.3523C244.515 15.7614 244.955 16.3239 245.239 17.0398H245.376C245.688 16.3409 246.185 15.7841 246.867 15.3693C247.549 14.9489 248.362 14.7386 249.305 14.7386C250.492 14.7386 251.461 15.1108 252.211 15.8551C252.967 16.5994 253.344 17.7216 253.344 19.2216V28H250.796V19.4602C250.796 18.5739 250.555 17.9318 250.072 17.5341C249.589 17.1364 249.012 16.9375 248.342 16.9375C247.512 16.9375 246.867 17.1932 246.407 17.7045C245.947 18.2102 245.717 18.8608 245.717 19.6562V28H243.177V19.2983C243.177 18.5881 242.955 18.017 242.512 17.5852C242.069 17.1534 241.492 16.9375 240.782 16.9375C240.299 16.9375 239.853 17.0653 239.444 17.321C239.04 17.571 238.714 17.9205 238.464 18.3693C238.219 18.8182 238.097 19.3381 238.097 19.929V28H235.549ZM262.402 28.2642C261.112 28.2642 260.001 27.9886 259.07 27.4375C258.143 26.8807 257.428 26.0994 256.922 25.0938C256.422 24.0824 256.172 22.8977 256.172 21.5398C256.172 20.1989 256.422 19.017 256.922 17.9943C257.428 16.9716 258.132 16.1733 259.036 15.5994C259.945 15.0256 261.007 14.7386 262.223 14.7386C262.962 14.7386 263.678 14.8608 264.371 15.1051C265.064 15.3494 265.686 15.733 266.237 16.2557C266.788 16.7784 267.223 17.4574 267.541 18.2926C267.859 19.1222 268.018 20.1307 268.018 21.3182V22.2216H257.612V20.3125H265.521C265.521 19.642 265.385 19.0483 265.112 18.5312C264.839 18.0085 264.456 17.5966 263.962 17.2955C263.473 16.9943 262.899 16.8438 262.24 16.8438C261.524 16.8438 260.899 17.0199 260.365 17.3722C259.837 17.7187 259.428 18.1733 259.138 18.7358C258.854 19.2926 258.712 19.8977 258.712 20.5511V22.0426C258.712 22.9176 258.865 23.6619 259.172 24.2756C259.484 24.8892 259.919 25.358 260.476 25.6818C261.033 26 261.683 26.1591 262.428 26.1591C262.911 26.1591 263.351 26.0909 263.749 25.9545C264.146 25.8125 264.49 25.6023 264.78 25.3239C265.07 25.0455 265.291 24.7017 265.445 24.2926L267.857 24.7273C267.663 25.4375 267.317 26.0597 266.817 26.5938C266.322 27.1222 265.7 27.5341 264.95 27.8295C264.206 28.1193 263.357 28.2642 262.402 28.2642ZM270.846 28V14.9091H273.309V16.9886H273.445C273.684 16.2841 274.104 15.7301 274.707 15.3267C275.315 14.9176 276.002 14.7131 276.769 14.7131C276.928 14.7131 277.116 14.7187 277.332 14.7301C277.553 14.7415 277.727 14.7557 277.852 14.7727V17.2102C277.749 17.1818 277.567 17.1506 277.306 17.1165C277.045 17.0767 276.783 17.0568 276.522 17.0568C275.92 17.0568 275.383 17.1847 274.911 17.4403C274.445 17.6903 274.076 18.0398 273.803 18.4886C273.531 18.9318 273.394 19.4375 273.394 20.0057V28H270.846ZM292.519 14.9091V16.9545H285.369V14.9091H292.519ZM287.286 11.7727H289.835V24.1562C289.835 24.6506 289.908 25.0227 290.056 25.2727C290.204 25.517 290.394 25.6847 290.627 25.7756C290.866 25.8608 291.124 25.9034 291.403 25.9034C291.607 25.9034 291.786 25.8892 291.94 25.8608C292.093 25.8324 292.212 25.8097 292.298 25.7926L292.758 27.8977C292.61 27.9545 292.4 28.0114 292.127 28.0682C291.854 28.1307 291.513 28.1648 291.104 28.1705C290.434 28.1818 289.809 28.0625 289.229 27.8125C288.65 27.5625 288.181 27.1761 287.823 26.6534C287.465 26.1307 287.286 25.4744 287.286 24.6847V11.7727ZM296.949 32.9091C296.568 32.9091 296.222 32.8778 295.909 32.8153C295.597 32.7585 295.364 32.696 295.21 32.6278L295.824 30.5398C296.29 30.6648 296.705 30.7188 297.068 30.7017C297.432 30.6847 297.753 30.5483 298.031 30.2926C298.315 30.0369 298.565 29.6193 298.781 29.0398L299.097 28.1705L294.307 14.9091H297.034L300.349 25.0682H300.486L303.801 14.9091H306.537L301.142 29.7472C300.892 30.429 300.574 31.0057 300.188 31.4773C299.801 31.9545 299.341 32.3125 298.807 32.5511C298.273 32.7898 297.653 32.9091 296.949 32.9091ZM308.932 32.9091V14.9091H311.42V17.0312H311.634C311.781 16.7585 311.994 16.4432 312.273 16.0852C312.551 15.7273 312.938 15.4148 313.432 15.1477C313.926 14.875 314.58 14.7386 315.392 14.7386C316.449 14.7386 317.392 15.0057 318.222 15.5398C319.051 16.0739 319.702 16.8437 320.173 17.8494C320.651 18.8551 320.889 20.0653 320.889 21.4801C320.889 22.8949 320.653 24.108 320.182 25.1193C319.71 26.125 319.063 26.9006 318.239 27.446C317.415 27.9858 316.474 28.2557 315.418 28.2557C314.622 28.2557 313.972 28.1222 313.466 27.8551C312.966 27.5881 312.574 27.2756 312.29 26.9176C312.006 26.5597 311.787 26.2415 311.634 25.9631H311.48V32.9091H308.932ZM311.429 21.4545C311.429 22.375 311.563 23.1818 311.83 23.875C312.097 24.5682 312.483 25.1108 312.989 25.5028C313.494 25.8892 314.114 26.0824 314.847 26.0824C315.608 26.0824 316.244 25.8807 316.756 25.4773C317.267 25.0682 317.653 24.5142 317.915 23.8153C318.182 23.1165 318.315 22.3295 318.315 21.4545C318.315 20.5909 318.185 19.8153 317.923 19.1278C317.668 18.4403 317.281 17.8977 316.764 17.5C316.253 17.1023 315.614 16.9034 314.847 16.9034C314.108 16.9034 313.483 17.0937 312.972 17.4744C312.466 17.8551 312.082 18.3864 311.821 19.0682C311.56 19.75 311.429 20.5455 311.429 21.4545ZM329.386 28.2642C328.097 28.2642 326.986 27.9886 326.054 27.4375C325.128 26.8807 324.412 26.0994 323.906 25.0938C323.406 24.0824 323.156 22.8977 323.156 21.5398C323.156 20.1989 323.406 19.017 323.906 17.9943C324.412 16.9716 325.116 16.1733 326.02 15.5994C326.929 15.0256 327.991 14.7386 329.207 14.7386C329.946 14.7386 330.662 14.8608 331.355 15.1051C332.048 15.3494 332.67 15.733 333.222 16.2557C333.773 16.7784 334.207 17.4574 334.526 18.2926C334.844 19.1222 335.003 20.1307 335.003 21.3182V22.2216H324.597V20.3125H332.506C332.506 19.642 332.369 19.0483 332.097 18.5312C331.824 18.0085 331.44 17.5966 330.946 17.2955C330.457 16.9943 329.884 16.8438 329.224 16.8438C328.509 16.8438 327.884 17.0199 327.349 17.3722C326.821 17.7187 326.412 18.1733 326.122 18.7358C325.838 19.2926 325.696 19.8977 325.696 20.5511V22.0426C325.696 22.9176 325.849 23.6619 326.156 24.2756C326.469 24.8892 326.903 25.358 327.46 25.6818C328.017 26 328.668 26.1591 329.412 26.1591C329.895 26.1591 330.335 26.0909 330.733 25.9545C331.131 25.8125 331.474 25.6023 331.764 25.3239C332.054 25.0455 332.276 24.7017 332.429 24.2926L334.841 24.7273C334.648 25.4375 334.301 26.0597 333.801 26.5938C333.307 27.1222 332.685 27.5341 331.935 27.8295C331.19 28.1193 330.341 28.2642 329.386 28.2642Z" fill="white"/>
<path d="M37.6409 70.779V46.8075H39.1766V70.779H37.6409ZM42.8098 53.9989C42.6974 53.0501 42.2417 52.3134 41.4426 51.7891C40.6436 51.2647 39.6635 51.0025 38.5024 51.0025C37.6534 51.0025 36.9105 51.1398 36.2738 51.4145C35.6433 51.6892 35.1501 52.0669 34.7943 52.5475C34.4447 53.0282 34.2699 53.5744 34.2699 54.1862C34.2699 54.6981 34.3917 55.1382 34.6351 55.5065C34.8848 55.8686 35.2032 56.1714 35.5902 56.4148C35.9773 56.652 36.383 56.8487 36.8075 57.0047C37.232 57.1546 37.6222 57.2763 37.978 57.3699L39.9257 57.8943C40.4251 58.0254 40.9807 58.2064 41.5925 58.4374C42.2105 58.6684 42.8004 58.9836 43.3622 59.3832C43.9303 59.7764 44.3985 60.2821 44.7668 60.9001C45.1351 61.5181 45.3193 62.2766 45.3193 63.1755C45.3193 64.2118 45.0477 65.1482 44.5046 65.9847C43.9678 66.8212 43.1812 67.486 42.1449 67.9792C41.1149 68.4724 39.8633 68.7189 38.39 68.7189C37.0167 68.7189 35.8274 68.4973 34.8224 68.0541C33.8236 67.6109 33.037 66.9929 32.4627 66.2001C31.8946 65.4072 31.5731 64.4865 31.4982 63.4377H33.8954C33.9578 64.1619 34.2013 64.7611 34.6258 65.2356C35.0565 65.7038 35.5996 66.0534 36.2551 66.2843C36.9168 66.5091 37.6284 66.6214 38.39 66.6214C39.2765 66.6214 40.0724 66.4778 40.7778 66.1907C41.4832 65.8973 42.0419 65.4915 42.4539 64.9734C42.866 64.449 43.072 63.8372 43.072 63.1381C43.072 62.5013 42.894 61.9832 42.5382 61.5837C42.1824 61.1841 41.7142 60.8595 41.1336 60.6098C40.5531 60.3601 39.9257 60.1416 39.2515 59.9544L36.8918 59.2802C35.3936 58.8494 34.2075 58.2345 33.3335 57.4355C32.4596 56.6364 32.0226 55.5908 32.0226 54.2986C32.0226 53.2249 32.3129 52.2885 32.8934 51.4894C33.4802 50.6841 34.2668 50.0599 35.2531 49.6166C36.2457 49.1672 37.3538 48.9424 38.5773 48.9424C39.8133 48.9424 40.912 49.1641 41.8734 49.6073C42.8347 50.0443 43.5963 50.6435 44.1582 51.4051C44.7262 52.1667 45.0259 53.0313 45.0571 53.9989H42.8098ZM48.8003 68.3818V66.6963L55.1303 59.7671C55.8731 58.9555 56.4849 58.2501 56.9656 57.6508C57.4463 57.0453 57.8021 56.4772 58.0331 55.9466C58.2703 55.4098 58.3889 54.8479 58.3889 54.2611C58.3889 53.5869 58.2266 53.0032 57.902 52.5101C57.5836 52.0169 57.1466 51.6361 56.591 51.3677C56.0355 51.0993 55.4112 50.965 54.7183 50.965C53.9816 50.965 53.3387 51.118 52.7893 51.4239C52.2462 51.7235 51.8248 52.1449 51.5252 52.688C51.2318 53.2311 51.0851 53.8678 51.0851 54.5982H48.8752C48.8752 53.4746 49.1343 52.4882 49.6524 51.6392C50.1705 50.7903 50.876 50.1285 51.7686 49.6541C52.6676 49.1797 53.6758 48.9424 54.7932 48.9424C55.9168 48.9424 56.9125 49.1797 57.7803 49.6541C58.648 50.1285 59.3284 50.7684 59.8216 51.5737C60.3147 52.379 60.5613 53.2748 60.5613 54.2611C60.5613 54.9665 60.4333 55.6563 60.1774 56.3305C59.9277 56.9985 59.4907 57.7445 58.8665 58.5685C58.2484 59.3863 57.3901 60.3851 56.2914 61.5649L51.984 66.172V66.3218H60.8984V68.3818H48.8003ZM63.9042 64.449V62.5388L72.3317 49.2046H73.7176V52.1636H72.7812L66.4137 62.2391V62.389H77.7627V64.449H63.9042ZM72.931 68.3818V63.8685V62.9789V49.2046H75.1409V68.3818H72.931ZM87.5269 68.644C86.1161 68.644 84.9144 68.2601 83.9218 67.4923C82.9293 66.7182 82.1708 65.5976 81.6464 64.1306C81.122 62.6574 80.8598 60.8783 80.8598 58.7932C80.8598 56.7207 81.122 54.9509 81.6464 53.4839C82.177 52.0107 82.9386 50.887 83.9312 50.1129C84.93 49.3326 86.1286 48.9424 87.5269 48.9424C88.9253 48.9424 90.1207 49.3326 91.1133 50.1129C92.1121 50.887 92.8737 52.0107 93.3981 53.4839C93.9287 54.9509 94.194 56.7207 94.194 58.7932C94.194 60.8783 93.9318 62.6574 93.4074 64.1306C92.883 65.5976 92.1246 66.7182 91.132 67.4923C90.1394 68.2601 88.9377 68.644 87.5269 68.644ZM87.5269 66.584C88.9253 66.584 90.0115 65.9098 90.7855 64.5614C91.5596 63.213 91.9467 61.2903 91.9467 58.7932C91.9467 57.1327 91.7687 55.7188 91.4129 54.5514C91.0633 53.384 90.5577 52.4945 89.896 51.8827C89.2405 51.2709 88.4508 50.965 87.5269 50.965C86.1411 50.965 85.058 51.6486 84.2777 53.0157C83.4973 54.3766 83.1072 56.3024 83.1072 58.7932C83.1072 60.4538 83.282 61.8646 83.6315 63.0257C83.9811 64.1868 84.4837 65.0701 85.1391 65.6757C85.8008 66.2812 86.5968 66.584 87.5269 66.584ZM98.7308 68.5317C98.2688 68.5317 97.8724 68.3662 97.5416 68.0354C97.2107 67.7045 97.0453 67.3081 97.0453 66.8462C97.0453 66.3842 97.2107 65.9878 97.5416 65.657C97.8724 65.3261 98.2688 65.1607 98.7308 65.1607C99.1927 65.1607 99.5891 65.3261 99.92 65.657C100.251 65.9878 100.416 66.3842 100.416 66.8462C100.416 67.152 100.338 67.433 100.182 67.6889C100.032 67.9449 99.8295 68.1509 99.5735 68.3069C99.3238 68.4567 99.0429 68.5317 98.7308 68.5317ZM109.895 68.644C108.609 68.644 107.473 68.4162 106.486 67.9605C105.506 67.4985 104.742 66.8649 104.192 66.0596C103.643 65.2481 103.371 64.3242 103.378 63.2879C103.371 62.4764 103.531 61.7272 103.855 61.0406C104.18 60.3476 104.623 59.7702 105.185 59.3082C105.753 58.8401 106.387 58.5435 107.086 58.4187V58.3063C106.168 58.0691 105.438 57.5541 104.895 56.7613C104.351 55.9622 104.083 55.0539 104.089 54.0364C104.083 53.0625 104.33 52.1917 104.829 51.4239C105.328 50.656 106.015 50.0505 106.889 49.6073C107.769 49.1641 108.771 48.9424 109.895 48.9424C111.006 48.9424 111.999 49.1641 112.873 49.6073C113.747 50.0505 114.433 50.656 114.933 51.4239C115.438 52.1917 115.694 53.0625 115.7 54.0364C115.694 55.0539 115.416 55.9622 114.867 56.7613C114.324 57.5541 113.603 58.0691 112.704 58.3063V58.4187C113.397 58.5435 114.021 58.8401 114.577 59.3082C115.132 59.7702 115.576 60.3476 115.906 61.0406C116.237 61.7272 116.406 62.4764 116.412 63.2879C116.406 64.3242 116.125 65.2481 115.569 66.0596C115.02 66.8649 114.255 67.4985 113.275 67.9605C112.301 68.4162 111.175 68.644 109.895 68.644ZM109.895 66.584C110.763 66.584 111.512 66.4435 112.142 66.1626C112.773 65.8817 113.26 65.4853 113.603 64.9734C113.946 64.4615 114.121 63.8622 114.127 63.1755C114.121 62.4514 113.934 61.8115 113.565 61.2559C113.197 60.7003 112.695 60.2634 112.058 59.945C111.427 59.6266 110.706 59.4674 109.895 59.4674C109.077 59.4674 108.347 59.6266 107.704 59.945C107.067 60.2634 106.564 60.7003 106.196 61.2559C105.834 61.8115 105.656 62.4514 105.662 63.1755C105.656 63.8622 105.822 64.4615 106.159 64.9734C106.502 65.4853 106.992 65.8817 107.629 66.1626C108.266 66.4435 109.021 66.584 109.895 66.584ZM109.895 57.4823C110.582 57.4823 111.19 57.345 111.721 57.0703C112.258 56.7956 112.679 56.4117 112.985 55.9185C113.291 55.4254 113.447 54.8479 113.453 54.1862C113.447 53.537 113.294 52.972 112.994 52.4914C112.695 52.0044 112.28 51.6299 111.749 51.3677C111.218 51.0993 110.6 50.965 109.895 50.965C109.177 50.965 108.55 51.0993 108.013 51.3677C107.476 51.6299 107.061 52.0044 106.767 52.4914C106.474 52.972 106.33 53.537 106.337 54.1862C106.33 54.8479 106.477 55.4254 106.777 55.9185C107.083 56.4117 107.504 56.7956 108.041 57.0703C108.578 57.345 109.196 57.4823 109.895 57.4823ZM120.338 68.3818V49.2046H122.66V58.7183H122.885L131.5 49.2046H134.534L126.481 57.8568L134.534 68.3818H131.724L125.057 59.4674L122.66 62.1642V68.3818H120.338Z" fill="#48C889"/>
<rect x="142.592" y="49.4937" width="58.2308" height="19.7765" rx="2.19739" fill="#05C168" fill-opacity="0.2"/>
<rect x="142.922" y="49.8233" width="57.5715" height="19.1173" rx="1.86778" stroke="#05C168" stroke-opacity="0.2" stroke-width="0.659216"/>
<path d="M189.104 62.3116L194.963 56.4519" stroke="#14CA74" stroke-width="0.878955" stroke-linecap="round" stroke-linejoin="round"/>
<path d="M194.963 61.9766V56.452H189.439" stroke="#14CA74" stroke-width="0.878955" stroke-linecap="round" stroke-linejoin="round"/>
<g filter="url(#filter0_d_10_218)">
<rect x="548.029" y="55.4557" width="124.152" height="32.9608" rx="4.39477" fill="#0F0F0F" shape-rendering="crispEdges"/>
<rect x="558.428" y="67.4083" width="9.96467" height="10.0213" rx="1.09869" stroke="white" stroke-width="0.878955"/>
<path d="M558.428 70.7573H568.392V76.33C568.392 76.9368 567.901 77.4287 567.294 77.4287H559.526C558.92 77.4287 558.428 76.9368 558.428 76.33V70.7573Z" fill="white" stroke="white" stroke-width="0.878955"/>
<path d="M566.174 66.4426V68.2595" stroke="white" stroke-width="0.878955" stroke-linecap="round" stroke-linejoin="round"/>
<path d="M560.724 66.4426V68.2595" stroke="white" stroke-width="0.878955" stroke-linecap="round" stroke-linejoin="round"/>
<g opacity="0.8">
<path d="M652.404 70.2881L655.7 73.5842L658.996 70.2881" stroke="white" stroke-width="1.09869" stroke-linecap="round" stroke-linejoin="round"/>
</g>
</g>
<rect x="241.002" y="56.3572" width="7.69086" height="7.69086" rx="3.84543" fill="#F22989"/>
<path d="M260.485 58.709H259.518C259.461 58.4307 259.36 58.1862 259.217 57.9755C259.077 57.7649 258.905 57.588 258.702 57.4449C258.502 57.2993 258.28 57.19 258.035 57.1172C257.791 57.0444 257.536 57.0079 257.27 57.0079C256.787 57.0079 256.348 57.1302 255.956 57.3747C255.565 57.6192 255.255 57.9794 255.023 58.4554C254.794 58.9314 254.68 59.5154 254.68 60.2073C254.68 60.8992 254.794 61.4831 255.023 61.9591C255.255 62.4351 255.565 62.7953 255.956 63.0398C256.348 63.2843 256.787 63.4066 257.27 63.4066C257.536 63.4066 257.791 63.3702 258.035 63.2973C258.28 63.2245 258.502 63.1166 258.702 62.9735C258.905 62.8278 259.077 62.6497 259.217 62.439C259.36 62.2257 259.461 61.9812 259.518 61.7055H260.485C260.413 62.1139 260.28 62.4793 260.087 62.8018C259.895 63.1244 259.656 63.3988 259.369 63.6251C259.083 63.8488 258.762 64.0191 258.406 64.1362C258.052 64.2532 257.674 64.3118 257.27 64.3118C256.589 64.3118 255.983 64.1453 255.452 63.8124C254.922 63.4794 254.504 63.006 254.2 62.3922C253.896 61.7783 253.743 61.05 253.743 60.2073C253.743 59.3645 253.896 58.6362 254.2 58.0224C254.504 57.4085 254.922 56.9351 255.452 56.6022C255.983 56.2692 256.589 56.1028 257.27 56.1028C257.674 56.1028 258.052 56.1613 258.406 56.2783C258.762 56.3954 259.083 56.5671 259.369 56.7934C259.656 57.017 259.895 57.2902 260.087 57.6127C260.28 57.9326 260.413 58.2981 260.485 58.709ZM265.701 61.7523V58.2096H266.622V64.2025H265.701V63.1881H265.638C265.498 63.4924 265.279 63.7512 264.983 63.9645C264.686 64.1752 264.312 64.2805 263.859 64.2805C263.485 64.2805 263.152 64.1986 262.86 64.0347C262.569 63.8683 262.34 63.6186 262.174 63.2856C262.007 62.9501 261.924 62.5274 261.924 62.0176V58.2096H262.845V61.9552C262.845 62.3922 262.967 62.7407 263.212 63.0008C263.459 63.2609 263.773 63.391 264.156 63.391C264.385 63.391 264.617 63.3325 264.854 63.2154C265.093 63.0984 265.294 62.9189 265.455 62.677C265.619 62.4351 265.701 62.1269 265.701 61.7523ZM268.308 64.2025V58.2096H269.198V59.1148H269.26C269.369 58.8183 269.567 58.5777 269.853 58.393C270.139 58.2083 270.462 58.116 270.821 58.116C270.888 58.116 270.973 58.1173 271.074 58.1199C271.176 58.1225 271.252 58.1264 271.305 58.1316V59.068C271.273 59.0602 271.202 59.0485 271.09 59.0329C270.981 59.0147 270.865 59.0056 270.743 59.0056C270.451 59.0056 270.191 59.0667 269.962 59.1889C269.736 59.3086 269.557 59.4751 269.424 59.6884C269.294 59.899 269.229 60.1396 269.229 60.4101V64.2025H268.308ZM272.396 64.2025V58.2096H273.286V59.1148H273.348C273.457 58.8183 273.655 58.5777 273.941 58.393C274.227 58.2083 274.55 58.116 274.909 58.116C274.976 58.116 275.061 58.1173 275.162 58.1199C275.264 58.1225 275.34 58.1264 275.392 58.1316V59.068C275.361 59.0602 275.29 59.0485 275.178 59.0329C275.069 59.0147 274.953 59.0056 274.831 59.0056C274.539 59.0056 274.279 59.0667 274.05 59.1889C273.824 59.3086 273.645 59.4751 273.512 59.6884C273.382 59.899 273.317 60.1396 273.317 60.4101V64.2025H272.396ZM278.814 64.3274C278.237 64.3274 277.739 64.1999 277.32 63.945C276.904 63.6875 276.582 63.3286 276.356 62.8682C276.132 62.4052 276.021 61.8667 276.021 61.2529C276.021 60.639 276.132 60.098 276.356 59.6298C276.582 59.159 276.897 58.7923 277.3 58.5296C277.706 58.2643 278.179 58.1316 278.721 58.1316C279.033 58.1316 279.341 58.1836 279.645 58.2877C279.95 58.3917 280.227 58.5608 280.476 58.7949C280.726 59.0264 280.925 59.3333 281.073 59.7157C281.221 60.098 281.296 60.5688 281.296 61.128V61.5182H276.676V60.7223H280.359C280.359 60.3841 280.292 60.0824 280.156 59.8171C280.024 59.5518 279.834 59.3424 279.587 59.1889C279.342 59.0355 279.053 58.9587 278.721 58.9587C278.354 58.9587 278.036 59.0498 277.769 59.2319C277.503 59.4113 277.299 59.6454 277.156 59.9342C277.013 60.2229 276.941 60.5324 276.941 60.8627V61.3934C276.941 61.8459 277.019 62.2296 277.175 62.5443C277.334 62.8565 277.554 63.0945 277.835 63.2583C278.116 63.4196 278.442 63.5002 278.814 63.5002C279.056 63.5002 279.275 63.4664 279.47 63.3988C279.667 63.3286 279.838 63.2245 279.981 63.0867C280.124 62.9462 280.234 62.7719 280.312 62.5638L281.202 62.8135C281.108 63.1153 280.951 63.3806 280.73 63.6095C280.509 63.8358 280.236 64.0126 279.91 64.1401C279.585 64.2649 279.22 64.3274 278.814 64.3274ZM283.617 60.5974V64.2025H282.696V58.2096H283.586V59.146H283.664C283.804 58.8417 284.018 58.5972 284.304 58.4125C284.59 58.2252 284.959 58.1316 285.412 58.1316C285.818 58.1316 286.173 58.2148 286.477 58.3813C286.781 58.5452 287.018 58.7949 287.187 59.1304C287.356 59.4634 287.441 59.8847 287.441 60.3945V64.2025H286.52V60.457C286.52 59.9862 286.398 59.6194 286.153 59.3567C285.909 59.0914 285.573 58.9587 285.146 58.9587C284.853 58.9587 284.59 59.0225 284.358 59.1499C284.129 59.2774 283.949 59.4634 283.816 59.7079C283.683 59.9524 283.617 60.2489 283.617 60.5974ZM291.729 58.2096V58.99H288.624V58.2096H291.729ZM289.529 56.7738H290.45V62.4858C290.45 62.7459 290.487 62.941 290.563 63.071C290.641 63.1985 290.74 63.2843 290.859 63.3286C290.982 63.3702 291.11 63.391 291.246 63.391C291.347 63.391 291.43 63.3858 291.495 63.3754C291.56 63.3624 291.612 63.352 291.651 63.3442L291.839 64.1713C291.776 64.1947 291.689 64.2181 291.577 64.2415C291.465 64.2675 291.324 64.2805 291.152 64.2805C290.892 64.2805 290.637 64.2246 290.387 64.1128C290.14 64.0009 289.935 63.8306 289.771 63.6017C289.61 63.3728 289.529 63.0841 289.529 62.7355V56.7738ZM298.639 64.3274C298.077 64.3274 297.594 64.1947 297.188 63.9294C296.782 63.6641 296.47 63.2986 296.251 62.833C296.033 62.3675 295.924 61.8355 295.924 61.2373C295.924 60.6286 296.036 60.0915 296.259 59.6259C296.486 59.1577 296.8 58.7923 297.203 58.5296C297.609 58.2643 298.083 58.1316 298.624 58.1316C299.045 58.1316 299.425 58.2096 299.763 58.3657C300.101 58.5218 300.378 58.7403 300.594 59.0212C300.81 59.3021 300.944 59.6298 300.996 60.0044H300.075C300.005 59.7313 299.849 59.4894 299.607 59.2787C299.368 59.0654 299.045 58.9587 298.639 58.9587C298.28 58.9587 297.966 59.0524 297.695 59.2397C297.427 59.4243 297.218 59.6857 297.067 60.0239C296.919 60.3594 296.844 60.7535 296.844 61.2061C296.844 61.6691 296.917 62.0722 297.063 62.4156C297.211 62.7589 297.419 63.0255 297.687 63.2154C297.958 63.4053 298.275 63.5002 298.639 63.5002C298.879 63.5002 299.096 63.4586 299.291 63.3754C299.486 63.2921 299.651 63.1725 299.786 63.0164C299.922 62.8604 300.018 62.6731 300.075 62.4546H300.996C300.944 62.8083 300.815 63.127 300.61 63.4105C300.407 63.6914 300.137 63.9151 299.802 64.0816C299.469 64.2454 299.081 64.3274 298.639 64.3274ZM303.263 56.212V64.2025H302.342V56.212H303.263ZM304.949 64.2025V58.2096H305.87V64.2025H304.949ZM305.417 57.2108C305.238 57.2108 305.083 57.1497 304.953 57.0275C304.826 56.9052 304.762 56.7582 304.762 56.5866C304.762 56.4149 304.826 56.2679 304.953 56.1457C305.083 56.0234 305.238 55.9623 305.417 55.9623C305.597 55.9623 305.75 56.0234 305.878 56.1457C306.008 56.2679 306.073 56.4149 306.073 56.5866C306.073 56.7582 306.008 56.9052 305.878 57.0275C305.75 57.1497 305.597 57.2108 305.417 57.2108ZM310.069 64.3274C309.492 64.3274 308.993 64.1999 308.575 63.945C308.158 63.6875 307.837 63.3286 307.611 62.8682C307.387 62.4052 307.275 61.8667 307.275 61.2529C307.275 60.639 307.387 60.098 307.611 59.6298C307.837 59.159 308.152 58.7923 308.555 58.5296C308.961 58.2643 309.434 58.1316 309.975 58.1316C310.287 58.1316 310.596 58.1836 310.9 58.2877C311.204 58.3917 311.481 58.5608 311.731 58.7949C311.981 59.0264 312.18 59.3333 312.328 59.7157C312.476 60.098 312.55 60.5688 312.55 61.128V61.5182H307.931V60.7223H311.614C311.614 60.3841 311.546 60.0824 311.411 59.8171C311.278 59.5518 311.089 59.3424 310.841 59.1889C310.597 59.0355 310.308 58.9587 309.975 58.9587C309.609 58.9587 309.291 59.0498 309.023 59.2319C308.758 59.4113 308.554 59.6454 308.411 59.9342C308.268 60.2229 308.196 60.5324 308.196 60.8627V61.3934C308.196 61.8459 308.274 62.2296 308.43 62.5443C308.589 62.8565 308.809 63.0945 309.09 63.2583C309.371 63.4196 309.697 63.5002 310.069 63.5002C310.311 63.5002 310.529 63.4664 310.724 63.3988C310.922 63.3286 311.092 63.2245 311.236 63.0867C311.379 62.9462 311.489 62.7719 311.567 62.5638L312.457 62.8135C312.363 63.1153 312.206 63.3806 311.985 63.6095C311.764 63.8358 311.49 64.0126 311.165 64.1401C310.84 64.2649 310.475 64.3274 310.069 64.3274ZM314.872 60.5974V64.2025H313.951V58.2096H314.841V59.146H314.919C315.059 58.8417 315.272 58.5972 315.559 58.4125C315.845 58.2252 316.214 58.1316 316.667 58.1316C317.072 58.1316 317.427 58.2148 317.732 58.3813C318.036 58.5452 318.273 58.7949 318.442 59.1304C318.611 59.4634 318.695 59.8847 318.695 60.3945V64.2025H317.775V60.457C317.775 59.9862 317.652 59.6194 317.408 59.3567C317.163 59.0914 316.828 58.9587 316.401 58.9587C316.107 58.9587 315.845 59.0225 315.613 59.1499C315.384 59.2774 315.203 59.4634 315.071 59.7079C314.938 59.9524 314.872 60.2489 314.872 60.5974ZM322.984 58.2096V58.99H319.879V58.2096H322.984ZM320.784 56.7738H321.705V62.4858C321.705 62.7459 321.742 62.941 321.818 63.071C321.896 63.1985 321.995 63.2843 322.114 63.3286C322.236 63.3702 322.365 63.391 322.5 63.391C322.602 63.391 322.685 63.3858 322.75 63.3754C322.815 63.3624 322.867 63.352 322.906 63.3442L323.094 64.1713C323.031 64.1947 322.944 64.2181 322.832 64.2415C322.72 64.2675 322.579 64.2805 322.407 64.2805C322.147 64.2805 321.892 64.2246 321.642 64.1128C321.395 64.0009 321.19 63.8306 321.026 63.6017C320.864 63.3728 320.784 63.0841 320.784 62.7355V56.7738ZM328.507 59.5518L327.68 59.7859C327.628 59.648 327.551 59.5141 327.45 59.384C327.351 59.2514 327.216 59.1421 327.044 59.0563C326.872 58.9705 326.652 58.9275 326.385 58.9275C326.018 58.9275 325.712 59.0121 325.468 59.1811C325.226 59.3476 325.105 59.5596 325.105 59.8171C325.105 60.046 325.188 60.2268 325.355 60.3594C325.521 60.4921 325.781 60.6026 326.135 60.6911L327.024 60.9096C327.56 61.0396 327.959 61.2386 328.222 61.5065C328.485 61.7718 328.616 62.1139 328.616 62.5326C328.616 62.876 328.517 63.1829 328.32 63.4534C328.125 63.7239 327.852 63.9372 327.5 64.0933C327.149 64.2493 326.741 64.3274 326.275 64.3274C325.664 64.3274 325.158 64.1947 324.758 63.9294C324.357 63.6641 324.103 63.2765 323.997 62.7667L324.871 62.5482C324.954 62.8708 325.111 63.1127 325.343 63.2739C325.577 63.4352 325.883 63.5158 326.26 63.5158C326.689 63.5158 327.03 63.4248 327.282 63.2427C327.537 63.058 327.664 62.837 327.664 62.5794C327.664 62.3714 327.591 62.1971 327.446 62.0566C327.3 61.9136 327.076 61.8069 326.775 61.7367L325.776 61.5026C325.227 61.3725 324.824 61.171 324.566 60.8978C324.311 60.6221 324.184 60.2775 324.184 59.8639C324.184 59.5258 324.279 59.2267 324.469 58.9666C324.661 58.7064 324.923 58.5023 325.253 58.354C325.586 58.2057 325.963 58.1316 326.385 58.1316C326.978 58.1316 327.443 58.2617 327.781 58.5218C328.122 58.7819 328.364 59.1252 328.507 59.5518Z" fill="#979797"/>
<rect x="347.667" y="56.3572" width="7.69086" height="7.69086" rx="3.84543" fill="#8280FF"/>
<path d="M365.09 58.2096C365.043 57.8143 364.853 57.5073 364.52 57.2889C364.188 57.0704 363.779 56.9611 363.295 56.9611C362.942 56.9611 362.632 57.0183 362.367 57.1328C362.104 57.2472 361.899 57.4046 361.75 57.6049C361.605 57.8052 361.532 58.0328 361.532 58.2877C361.532 58.501 361.583 58.6843 361.684 58.8378C361.788 58.9887 361.921 59.1148 362.082 59.2163C362.243 59.3151 362.412 59.397 362.589 59.4621C362.766 59.5245 362.929 59.5752 363.077 59.6142L363.888 59.8327C364.096 59.8873 364.328 59.9628 364.583 60.059C364.84 60.1552 365.086 60.2866 365.32 60.4531C365.557 60.6169 365.752 60.8276 365.906 61.0851C366.059 61.3426 366.136 61.6587 366.136 62.0332C366.136 62.465 366.023 62.8552 365.796 63.2037C365.573 63.5522 365.245 63.8293 364.813 64.0347C364.384 64.2402 363.862 64.343 363.249 64.343C362.676 64.343 362.181 64.2506 361.762 64.066C361.346 63.8813 361.018 63.6238 360.779 63.2934C360.542 62.9631 360.408 62.5794 360.377 62.1425H361.376C361.402 62.4442 361.503 62.6939 361.68 62.8916C361.86 63.0867 362.086 63.2323 362.359 63.3286C362.635 63.4222 362.931 63.469 363.249 63.469C363.618 63.469 363.95 63.4092 364.243 63.2895C364.537 63.1673 364.77 62.9982 364.942 62.7823C365.113 62.5638 365.199 62.3089 365.199 62.0176C365.199 61.7523 365.125 61.5364 364.977 61.3699C364.829 61.2035 364.634 61.0682 364.392 60.9642C364.15 60.8601 363.888 60.7691 363.607 60.6911L362.624 60.4101C362 60.2307 361.506 59.9745 361.142 59.6415C360.778 59.3086 360.595 58.8729 360.595 58.3345C360.595 57.8871 360.716 57.4969 360.958 57.164C361.203 56.8285 361.531 56.5684 361.941 56.3837C362.355 56.1964 362.817 56.1028 363.327 56.1028C363.842 56.1028 364.299 56.1951 364.7 56.3798C365.1 56.5619 365.418 56.8116 365.652 57.1289C365.889 57.4462 366.013 57.8065 366.026 58.2096H365.09ZM371.379 61.7523V58.2096H372.299V64.2025H371.379V63.1881H371.316C371.176 63.4924 370.957 63.7512 370.661 63.9645C370.364 64.1752 369.99 64.2805 369.537 64.2805C369.162 64.2805 368.829 64.1986 368.538 64.0347C368.247 63.8683 368.018 63.6186 367.851 63.2856C367.685 62.9501 367.602 62.5274 367.602 62.0176V58.2096H368.523V61.9552C368.523 62.3922 368.645 62.7407 368.889 63.0008C369.136 63.2609 369.451 63.391 369.833 63.391C370.062 63.391 370.295 63.3325 370.532 63.2154C370.771 63.0984 370.971 62.9189 371.133 62.677C371.297 62.4351 371.379 62.1269 371.379 61.7523ZM374.111 64.2025V56.212H375.031V59.1616H375.109C375.177 59.0576 375.271 58.9249 375.39 58.7637C375.513 58.5998 375.687 58.4541 375.913 58.3267C376.142 58.1966 376.452 58.1316 376.842 58.1316C377.346 58.1316 377.791 58.2578 378.176 58.5101C378.561 58.7624 378.861 59.12 379.077 59.583C379.293 60.046 379.401 60.5922 379.401 61.2217C379.401 61.8563 379.293 62.4065 379.077 62.8721C378.861 63.3351 378.562 63.694 378.18 63.9489C377.798 64.2012 377.357 64.3274 376.857 64.3274C376.472 64.3274 376.164 64.2636 375.933 64.1362C375.701 64.0061 375.523 63.8592 375.398 63.6953C375.273 63.5288 375.177 63.391 375.109 63.2817H375V64.2025H374.111ZM375.016 61.2061C375.016 61.6587 375.082 62.0579 375.215 62.4039C375.347 62.7472 375.541 63.0164 375.796 63.2115C376.051 63.404 376.363 63.5002 376.732 63.5002C377.117 63.5002 377.439 63.3988 377.696 63.1959C377.956 62.9904 378.151 62.7147 378.281 62.3688C378.414 62.0202 378.48 61.6327 378.48 61.2061C378.48 60.7847 378.415 60.4049 378.285 60.0668C378.158 59.7261 377.964 59.4569 377.704 59.2592C377.446 59.0589 377.123 58.9587 376.732 58.9587C376.358 58.9587 376.043 59.0537 375.788 59.2436C375.533 59.4308 375.341 59.6936 375.211 60.0317C375.081 60.3672 375.016 60.7587 375.016 61.2061ZM385.055 59.5518L384.227 59.7859C384.175 59.648 384.099 59.5141 383.997 59.384C383.898 59.2514 383.763 59.1421 383.592 59.0563C383.42 58.9705 383.2 58.9275 382.932 58.9275C382.565 58.9275 382.26 59.0121 382.015 59.1811C381.773 59.3476 381.652 59.5596 381.652 59.8171C381.652 60.046 381.736 60.2268 381.902 60.3594C382.069 60.4921 382.329 60.6026 382.682 60.6911L383.572 60.9096C384.108 61.0396 384.507 61.2386 384.77 61.5065C385.033 61.7718 385.164 62.1139 385.164 62.5326C385.164 62.876 385.065 63.1829 384.867 63.4534C384.672 63.7239 384.399 63.9372 384.048 64.0933C383.697 64.2493 383.289 64.3274 382.823 64.3274C382.212 64.3274 381.706 64.1947 381.305 63.9294C380.905 63.6641 380.651 63.2765 380.544 62.7667L381.418 62.5482C381.502 62.8708 381.659 63.1127 381.89 63.2739C382.125 63.4352 382.43 63.5158 382.807 63.5158C383.236 63.5158 383.577 63.4248 383.83 63.2427C384.084 63.058 384.212 62.837 384.212 62.5794C384.212 62.3714 384.139 62.1971 383.993 62.0566C383.848 61.9136 383.624 61.8069 383.322 61.7367L382.324 61.5026C381.775 61.3725 381.372 61.171 381.114 60.8978C380.859 60.6221 380.732 60.2775 380.732 59.8639C380.732 59.5258 380.827 59.2267 381.016 58.9666C381.209 58.7064 381.47 58.5023 381.801 58.354C382.134 58.2057 382.511 58.1316 382.932 58.1316C383.525 58.1316 383.991 58.2617 384.329 58.5218C384.67 58.7819 384.912 59.1252 385.055 59.5518ZM388.985 64.3274C388.423 64.3274 387.939 64.1947 387.533 63.9294C387.127 63.6641 386.815 63.2986 386.597 62.833C386.378 62.3675 386.269 61.8355 386.269 61.2373C386.269 60.6286 386.381 60.0915 386.605 59.6259C386.831 59.1577 387.146 58.7923 387.549 58.5296C387.955 58.2643 388.428 58.1316 388.969 58.1316C389.39 58.1316 389.77 58.2096 390.108 58.3657C390.446 58.5218 390.723 58.7403 390.939 59.0212C391.155 59.3021 391.289 59.6298 391.341 60.0044H390.42C390.35 59.7313 390.194 59.4894 389.952 59.2787C389.713 59.0654 389.39 58.9587 388.985 58.9587C388.626 58.9587 388.311 59.0524 388.04 59.2397C387.772 59.4243 387.563 59.6857 387.412 60.0239C387.264 60.3594 387.19 60.7535 387.19 61.2061C387.19 61.6691 387.263 62.0722 387.408 62.4156C387.557 62.7589 387.765 63.0255 388.033 63.2154C388.303 63.4053 388.62 63.5002 388.985 63.5002C389.224 63.5002 389.441 63.4586 389.636 63.3754C389.831 63.2921 389.996 63.1725 390.132 63.0164C390.267 62.8604 390.363 62.6731 390.42 62.4546H391.341C391.289 62.8083 391.16 63.127 390.955 63.4105C390.752 63.6914 390.483 63.9151 390.147 64.0816C389.814 64.2454 389.427 64.3274 388.985 64.3274ZM392.687 64.2025V58.2096H393.577V59.1148H393.639C393.748 58.8183 393.946 58.5777 394.232 58.393C394.518 58.2083 394.841 58.116 395.2 58.116C395.267 58.116 395.352 58.1173 395.453 58.1199C395.555 58.1225 395.632 58.1264 395.684 58.1316V59.068C395.652 59.0602 395.581 59.0485 395.469 59.0329C395.36 59.0147 395.244 59.0056 395.122 59.0056C394.83 59.0056 394.57 59.0667 394.341 59.1889C394.115 59.3086 393.936 59.4751 393.803 59.6884C393.673 59.899 393.608 60.1396 393.608 60.4101V64.2025H392.687ZM396.775 64.2025V58.2096H397.696V64.2025H396.775ZM397.243 57.2108C397.064 57.2108 396.909 57.1497 396.779 57.0275C396.652 56.9052 396.588 56.7582 396.588 56.5866C396.588 56.4149 396.652 56.2679 396.779 56.1457C396.909 56.0234 397.064 55.9623 397.243 55.9623C397.423 55.9623 397.576 56.0234 397.704 56.1457C397.834 56.2679 397.899 56.4149 397.899 56.5866C397.899 56.7582 397.834 56.9052 397.704 57.0275C397.576 57.1497 397.423 57.2108 397.243 57.2108ZM399.507 64.2025V56.212H400.428V59.1616H400.506C400.574 59.0576 400.667 58.9249 400.787 58.7637C400.909 58.5998 401.083 58.4541 401.31 58.3267C401.539 58.1966 401.848 58.1316 402.238 58.1316C402.743 58.1316 403.188 58.2578 403.573 58.5101C403.958 58.7624 404.258 59.12 404.474 59.583C404.69 60.046 404.798 60.5922 404.798 61.2217C404.798 61.8563 404.69 62.4065 404.474 62.8721C404.258 63.3351 403.959 63.694 403.577 63.9489C403.194 64.2012 402.753 64.3274 402.254 64.3274C401.869 64.3274 401.561 64.2636 401.329 64.1362C401.098 64.0061 400.92 63.8592 400.795 63.6953C400.67 63.5288 400.574 63.391 400.506 63.2817H400.397V64.2025H399.507ZM400.412 61.2061C400.412 61.6587 400.479 62.0579 400.611 62.4039C400.744 62.7472 400.938 63.0164 401.193 63.2115C401.448 63.404 401.76 63.5002 402.129 63.5002C402.514 63.5002 402.835 63.3988 403.093 63.1959C403.353 62.9904 403.548 62.7147 403.678 62.3688C403.811 62.0202 403.877 61.6327 403.877 61.2061C403.877 60.7847 403.812 60.4049 403.682 60.0668C403.554 59.7261 403.361 59.4569 403.101 59.2592C402.843 59.0589 402.519 58.9587 402.129 58.9587C401.755 58.9587 401.44 59.0537 401.185 59.2436C400.93 59.4308 400.737 59.6936 400.607 60.0317C400.477 60.3672 400.412 60.7587 400.412 61.2061ZM408.719 64.3274C408.141 64.3274 407.643 64.1999 407.225 63.945C406.808 63.6875 406.487 63.3286 406.261 62.8682C406.037 62.4052 405.925 61.8667 405.925 61.2529C405.925 60.639 406.037 60.098 406.261 59.6298C406.487 59.159 406.802 58.7923 407.205 58.5296C407.611 58.2643 408.084 58.1316 408.625 58.1316C408.937 58.1316 409.246 58.1836 409.55 58.2877C409.854 58.3917 410.131 58.5608 410.381 58.7949C410.631 59.0264 410.83 59.3333 410.978 59.7157C411.126 60.098 411.2 60.5688 411.2 61.128V61.5182H406.581V60.7223H410.264C410.264 60.3841 410.196 60.0824 410.061 59.8171C409.928 59.5518 409.739 59.3424 409.491 59.1889C409.247 59.0355 408.958 58.9587 408.625 58.9587C408.258 58.9587 407.941 59.0498 407.673 59.2319C407.408 59.4113 407.204 59.6454 407.061 59.9342C406.918 60.2229 406.846 60.5324 406.846 60.8627V61.3934C406.846 61.8459 406.924 62.2296 407.08 62.5443C407.239 62.8565 407.459 63.0945 407.74 63.2583C408.02 63.4196 408.347 63.5002 408.719 63.5002C408.961 63.5002 409.179 63.4664 409.374 63.3988C409.572 63.3286 409.742 63.2245 409.885 63.0867C410.029 62.9462 410.139 62.7719 410.217 62.5638L411.107 62.8135C411.013 63.1153 410.856 63.3806 410.635 63.6095C410.413 63.8358 410.14 64.0126 409.815 64.1401C409.49 64.2649 409.125 64.3274 408.719 64.3274ZM412.601 64.2025V58.2096H413.491V59.1148H413.553C413.662 58.8183 413.86 58.5777 414.146 58.393C414.432 58.2083 414.755 58.116 415.114 58.116C415.181 58.116 415.266 58.1173 415.367 58.1199C415.469 58.1225 415.545 58.1264 415.597 58.1316V59.068C415.566 59.0602 415.495 59.0485 415.383 59.0329C415.274 59.0147 415.158 59.0056 415.036 59.0056C414.744 59.0056 414.484 59.0667 414.255 59.1889C414.029 59.3086 413.85 59.4751 413.717 59.6884C413.587 59.899 413.522 60.1396 413.522 60.4101V64.2025H412.601ZM420.934 59.5518L420.107 59.7859C420.055 59.648 419.978 59.5141 419.877 59.384C419.778 59.2514 419.642 59.1421 419.471 59.0563C419.299 58.9705 419.079 58.9275 418.811 58.9275C418.445 58.9275 418.139 59.0121 417.894 59.1811C417.653 59.3476 417.532 59.5596 417.532 59.8171C417.532 60.046 417.615 60.2268 417.781 60.3594C417.948 60.4921 418.208 60.6026 418.562 60.6911L419.451 60.9096C419.987 61.0396 420.386 61.2386 420.649 61.5065C420.912 61.7718 421.043 62.1139 421.043 62.5326C421.043 62.876 420.944 63.1829 420.747 63.4534C420.551 63.7239 420.278 63.9372 419.927 64.0933C419.576 64.2493 419.168 64.3274 418.702 64.3274C418.091 64.3274 417.585 64.1947 417.184 63.9294C416.784 63.6641 416.53 63.2765 416.424 62.7667L417.298 62.5482C417.381 62.8708 417.538 63.1127 417.77 63.2739C418.004 63.4352 418.309 63.5158 418.687 63.5158C419.116 63.5158 419.456 63.4248 419.709 63.2427C419.964 63.058 420.091 62.837 420.091 62.5794C420.091 62.3714 420.018 62.1971 419.873 62.0566C419.727 61.9136 419.503 61.8069 419.202 61.7367L418.203 61.5026C417.654 61.3725 417.251 61.171 416.993 60.8978C416.738 60.6221 416.611 60.2775 416.611 59.8639C416.611 59.5258 416.706 59.2267 416.896 58.9666C417.088 58.7064 417.35 58.5023 417.68 58.354C418.013 58.2057 418.39 58.1316 418.811 58.1316C419.404 58.1316 419.87 58.2617 420.208 58.5218C420.549 58.7819 420.791 59.1252 420.934 59.5518Z" fill="#979797"/>
<path d="M51.076 258.918C50.5402 258.918 50.0668 258.823 49.6558 258.633C49.2475 258.44 48.9288 258.176 48.6999 257.841C48.471 257.503 48.3579 257.118 48.3605 256.686C48.3579 256.348 48.4242 256.036 48.5595 255.749C48.6947 255.461 48.8794 255.22 49.1135 255.028C49.3502 254.833 49.6142 254.709 49.9055 254.657V254.61C49.5232 254.511 49.2188 254.297 48.9925 253.966C48.7663 253.634 48.6544 253.255 48.657 252.831C48.6544 252.425 48.7571 252.062 48.9652 251.743C49.1733 251.423 49.4594 251.17 49.8236 250.986C50.1903 250.801 50.6078 250.709 51.076 250.709C51.539 250.709 51.9526 250.801 52.3167 250.986C52.6809 251.17 52.967 251.423 53.1751 251.743C53.3858 252.062 53.4924 252.425 53.495 252.831C53.4924 253.255 53.3767 253.634 53.1478 253.966C52.9215 254.297 52.621 254.511 52.2465 254.61V254.657C52.5352 254.709 52.7953 254.833 53.0268 255.028C53.2583 255.22 53.443 255.461 53.5808 255.749C53.7187 256.036 53.7889 256.348 53.7915 256.686C53.7889 257.118 53.6719 257.503 53.4404 257.841C53.2115 258.176 52.8929 258.44 52.4845 258.633C52.0787 258.823 51.6092 258.918 51.076 258.918ZM51.076 258.059C51.4376 258.059 51.7497 258.001 52.0124 257.884C52.2751 257.767 52.478 257.601 52.621 257.388C52.7641 257.175 52.8369 256.925 52.8395 256.639C52.8369 256.337 52.7589 256.071 52.6054 255.839C52.452 255.608 52.2426 255.426 51.9773 255.293C51.7146 255.16 51.4141 255.094 51.076 255.094C50.7353 255.094 50.4309 255.16 50.163 255.293C49.8977 255.426 49.6883 255.608 49.5349 255.839C49.384 256.071 49.3099 256.337 49.3125 256.639C49.3099 256.925 49.3788 257.175 49.5193 257.388C49.6623 257.601 49.8665 257.767 50.1318 257.884C50.3971 258.001 50.7119 258.059 51.076 258.059ZM51.076 254.267C51.3621 254.267 51.6157 254.21 51.8368 254.095C52.0605 253.981 52.2361 253.821 52.3635 253.615C52.491 253.41 52.556 253.169 52.5586 252.894C52.556 252.623 52.4923 252.388 52.3674 252.187C52.2426 251.984 52.0696 251.828 51.8485 251.719C51.6274 251.607 51.3699 251.551 51.076 251.551C50.7769 251.551 50.5155 251.607 50.2918 251.719C50.0681 251.828 49.8951 251.984 49.7729 252.187C49.6506 252.388 49.5908 252.623 49.5934 252.894C49.5908 253.169 49.6519 253.41 49.7768 253.615C49.9042 253.821 50.0798 253.981 50.3035 254.095C50.5272 254.21 50.7847 254.267 51.076 254.267ZM57.8931 258.918C57.3053 258.918 56.8045 258.758 56.391 258.438C55.9774 258.115 55.6614 257.648 55.4429 257.037C55.2244 256.423 55.1151 255.682 55.1151 254.813C55.1151 253.95 55.2244 253.212 55.4429 252.601C55.664 251.987 55.9813 251.519 56.3949 251.196C56.811 250.871 57.3105 250.709 57.8931 250.709C58.4757 250.709 58.9738 250.871 59.3874 251.196C59.8036 251.519 60.1209 251.987 60.3394 252.601C60.5605 253.212 60.671 253.95 60.671 254.813C60.671 255.682 60.5618 256.423 60.3433 257.037C60.1248 257.648 59.8088 258.115 59.3952 258.438C58.9816 258.758 58.4809 258.918 57.8931 258.918ZM57.8931 258.059C58.4757 258.059 58.9283 257.778 59.2509 257.216C59.5734 256.655 59.7347 255.854 59.7347 254.813C59.7347 254.121 59.6605 253.532 59.5123 253.046C59.3666 252.559 59.1559 252.189 58.8802 251.934C58.6071 251.679 58.2781 251.551 57.8931 251.551C57.3157 251.551 56.8644 251.836 56.5392 252.406C56.2141 252.973 56.0515 253.775 56.0515 254.813C56.0515 255.505 56.1244 256.093 56.27 256.577C56.4157 257.06 56.6251 257.428 56.8982 257.681C57.1739 257.933 57.5055 258.059 57.8931 258.059ZM62.2941 258.808V250.818H63.2617V254.782H63.3554L66.9448 250.818H68.209L64.8536 254.423L68.209 258.808H67.0385L64.2605 255.094L63.2617 256.218V258.808H62.2941Z" fill="white"/>
<path d="M48.0503 351.31V350.514L51.5617 344.958H52.1391V346.191H51.749L49.0959 350.389V350.451H53.8246V351.31H48.0503ZM51.8114 352.948V351.068V350.697V344.958H52.7322V352.948H51.8114ZM57.893 353.057C57.3052 353.057 56.8045 352.898 56.3909 352.578C55.9774 352.255 55.6613 351.788 55.4428 351.177C55.2243 350.563 55.1151 349.822 55.1151 348.953C55.1151 348.089 55.2243 347.352 55.4428 346.741C55.6639 346.127 55.9813 345.659 56.3948 345.336C56.811 345.011 57.3104 344.848 57.893 344.848C58.4757 344.848 58.9738 345.011 59.3874 345.336C59.8035 345.659 60.1209 346.127 60.3394 346.741C60.5604 347.352 60.671 348.089 60.671 348.953C60.671 349.822 60.5617 350.563 60.3433 351.177C60.1248 351.788 59.8087 352.255 59.3952 352.578C58.9816 352.898 58.4809 353.057 57.893 353.057ZM57.893 352.199C58.4757 352.199 58.9283 351.918 59.2508 351.356C59.5733 350.795 59.7346 349.993 59.7346 348.953C59.7346 348.261 59.6605 347.672 59.5122 347.186C59.3666 346.699 59.1559 346.329 58.8802 346.074C58.607 345.819 58.278 345.691 57.893 345.691C57.3156 345.691 56.8643 345.976 56.5392 346.546C56.2141 347.113 56.0515 347.915 56.0515 348.953C56.0515 349.645 56.1243 350.233 56.27 350.717C56.4156 351.2 56.625 351.568 56.8981 351.821C57.1739 352.073 57.5055 352.199 57.893 352.199ZM62.2941 352.948V344.958H63.2617V348.922H63.3553L66.9448 344.958H68.2089L64.8535 348.563L68.2089 352.948H67.0384L64.2605 349.234L63.2617 350.358V352.948H62.2941Z" fill="white"/>
<path d="M48.6345 445.658V444.956L51.272 442.069C51.5815 441.731 51.8364 441.437 52.0367 441.187C52.237 440.935 52.3853 440.698 52.4815 440.477C52.5804 440.253 52.6298 440.019 52.6298 439.775C52.6298 439.494 52.5621 439.251 52.4269 439.045C52.2942 438.84 52.1122 438.681 51.8807 438.569C51.6492 438.457 51.3891 438.401 51.1003 438.401C50.7934 438.401 50.5255 438.465 50.2966 438.593C50.0703 438.717 49.8947 438.893 49.7699 439.119C49.6476 439.346 49.5865 439.611 49.5865 439.915H48.6657C48.6657 439.447 48.7737 439.036 48.9896 438.682C49.2055 438.329 49.4994 438.053 49.8713 437.855C50.2459 437.658 50.666 437.559 51.1316 437.559C51.5997 437.559 52.0146 437.658 52.3762 437.855C52.7377 438.053 53.0212 438.32 53.2267 438.655C53.4322 438.991 53.5349 439.364 53.5349 439.775C53.5349 440.069 53.4816 440.356 53.375 440.637C53.2709 440.915 53.0889 441.226 52.8288 441.57C52.5712 441.91 52.2136 442.326 51.7558 442.818L49.9611 444.738V444.8H53.6754V445.658H48.6345ZM57.893 445.768C57.3052 445.768 56.8045 445.608 56.3909 445.288C55.9774 444.965 55.6613 444.498 55.4428 443.887C55.2243 443.273 55.1151 442.532 55.1151 441.663C55.1151 440.8 55.2243 440.062 55.4428 439.451C55.6639 438.837 55.9813 438.369 56.3948 438.046C56.811 437.721 57.3104 437.559 57.893 437.559C58.4757 437.559 58.9738 437.721 59.3874 438.046C59.8035 438.369 60.1209 438.837 60.3394 439.451C60.5604 440.062 60.671 440.8 60.671 441.663C60.671 442.532 60.5617 443.273 60.3433 443.887C60.1248 444.498 59.8087 444.965 59.3952 445.288C58.9816 445.608 58.4809 445.768 57.893 445.768ZM57.893 444.909C58.4757 444.909 58.9283 444.628 59.2508 444.067C59.5733 443.505 59.7346 442.704 59.7346 441.663C59.7346 440.971 59.6605 440.382 59.5122 439.896C59.3666 439.409 59.1559 439.039 58.8802 438.784C58.607 438.529 58.278 438.401 57.893 438.401C57.3156 438.401 56.8643 438.686 56.5392 439.256C56.2141 439.823 56.0515 440.625 56.0515 441.663C56.0515 442.355 56.1243 442.943 56.27 443.427C56.4156 443.911 56.625 444.279 56.8981 444.531C57.1739 444.783 57.5055 444.909 57.893 444.909ZM62.2941 445.658V437.668H63.2617V441.632H63.3553L66.9448 437.668H68.2089L64.8535 441.273L68.2089 445.658H67.0384L64.2605 441.944L63.2617 443.068V445.658H62.2941Z" fill="white"/>
<path d="M57.893 538.478C57.3052 538.478 56.8045 538.318 56.3909 537.998C55.9774 537.675 55.6613 537.209 55.4428 536.597C55.2243 535.983 55.1151 535.242 55.1151 534.373C55.1151 533.51 55.2243 532.772 55.4428 532.161C55.6639 531.547 55.9813 531.079 56.3948 530.757C56.811 530.431 57.3104 530.269 57.893 530.269C58.4757 530.269 58.9738 530.431 59.3874 530.757C59.8035 531.079 60.1209 531.547 60.3394 532.161C60.5604 532.772 60.671 533.51 60.671 534.373C60.671 535.242 60.5617 535.983 60.3433 536.597C60.1248 537.209 59.8087 537.675 59.3952 537.998C58.9816 538.318 58.4809 538.478 57.893 538.478ZM57.893 537.62C58.4757 537.62 58.9283 537.339 59.2508 536.777C59.5733 536.215 59.7346 535.414 59.7346 534.373C59.7346 533.682 59.6605 533.092 59.5122 532.606C59.3666 532.12 59.1559 531.749 58.8802 531.494C58.607 531.239 58.278 531.112 57.893 531.112C57.3156 531.112 56.8643 531.396 56.5392 531.966C56.2141 532.533 56.0515 533.336 56.0515 534.373C56.0515 535.065 56.1243 535.653 56.27 536.137C56.4156 536.621 56.625 536.989 56.8981 537.241C57.1739 537.493 57.5055 537.62 57.893 537.62ZM62.2941 538.369V530.378H63.2617V534.342H63.3553L66.9448 530.378H68.2089L64.8535 533.983L68.2089 538.369H67.0384L64.2605 534.654L63.2617 535.778V538.369H62.2941Z" fill="white"/>
<path d="M46.1218 158.02V166.01H45.1542V159.034H45.1074L43.1566 160.329V159.346L45.1542 158.02H46.1218ZM51.0261 166.119C50.4383 166.119 49.9376 165.959 49.524 165.639C49.1104 165.317 48.7944 164.85 48.5759 164.239C48.3574 163.625 48.2482 162.884 48.2482 162.015C48.2482 161.151 48.3574 160.414 48.5759 159.803C48.797 159.189 49.1143 158.72 49.5279 158.398C49.9441 158.073 50.4435 157.91 51.0261 157.91C51.6087 157.91 52.1069 158.073 52.5204 158.398C52.9366 158.72 53.2539 159.189 53.4724 159.803C53.6935 160.414 53.8041 161.151 53.8041 162.015C53.8041 162.884 53.6948 163.625 53.4763 164.239C53.2578 164.85 52.9418 165.317 52.5282 165.639C52.1147 165.959 51.6139 166.119 51.0261 166.119ZM51.0261 165.261C51.6087 165.261 52.0613 164.98 52.3839 164.418C52.7064 163.856 52.8677 163.055 52.8677 162.015C52.8677 161.323 52.7935 160.734 52.6453 160.247C52.4996 159.761 52.2889 159.39 52.0132 159.135C51.7401 158.88 51.4111 158.753 51.0261 158.753C50.4487 158.753 49.9974 159.038 49.6722 159.607C49.3471 160.174 49.1845 160.977 49.1845 162.015C49.1845 162.707 49.2574 163.294 49.403 163.778C49.5487 164.262 49.7581 164.63 50.0312 164.882C50.3069 165.135 50.6385 165.261 51.0261 165.261ZM57.8929 166.119C57.3051 166.119 56.8044 165.959 56.3908 165.639C55.9772 165.317 55.6612 164.85 55.4427 164.239C55.2242 163.625 55.115 162.884 55.115 162.015C55.115 161.151 55.2242 160.414 55.4427 159.803C55.6638 159.189 55.9812 158.72 56.3947 158.398C56.8109 158.073 57.3103 157.91 57.8929 157.91C58.4756 157.91 58.9737 158.073 59.3873 158.398C59.8034 158.72 60.1208 159.189 60.3393 159.803C60.5603 160.414 60.6709 161.151 60.6709 162.015C60.6709 162.884 60.5616 163.625 60.3432 164.239C60.1247 164.85 59.8086 165.317 59.3951 165.639C58.9815 165.959 58.4808 166.119 57.8929 166.119ZM57.8929 165.261C58.4756 165.261 58.9282 164.98 59.2507 164.418C59.5732 163.856 59.7345 163.055 59.7345 162.015C59.7345 161.323 59.6604 160.734 59.5121 160.247C59.3664 159.761 59.1558 159.39 58.88 159.135C58.6069 158.88 58.2779 158.753 57.8929 158.753C57.3155 158.753 56.8642 159.038 56.5391 159.607C56.2139 160.174 56.0514 160.977 56.0514 162.015C56.0514 162.707 56.1242 163.294 56.2699 163.778C56.4155 164.262 56.6249 164.63 56.898 164.882C57.1737 165.135 57.5054 165.261 57.8929 165.261ZM62.294 166.01V158.02H63.2616V161.984H63.3552L66.9447 158.02H68.2088L64.8534 161.625L68.2088 166.01H67.0383L64.2604 162.296L63.2616 163.419V166.01H62.294Z" fill="white"/>
<rect width="8" height="70" rx="4" transform="matrix(1 0 0 -1 96 458)" fill="#8280FF"/>
<rect x="150.928" y="299.908" width="7.96586" height="83.9296" rx="3.98293" fill="#8280FF"/>
<path d="M203 242C203 239.791 204.791 238 207 238C209.209 238 211 239.791 211 242V400C211 402.209 209.209 404 207 404C204.791 404 203 402.209 203 400V242Z" fill="#8280FF"/>
<path d="M258 400.5C258 402.433 259.567 404 261.5 404C263.433 404 265 402.433 265 400.5V306.5C265 304.567 263.433 303 261.5 303C259.567 303 258 304.567 258 306.5V400.5Z" fill="#8280FF"/>
<rect x="312" y="341" width="8" height="105" rx="4" fill="#8280FF"/>
<path d="M366 315.5C366 313.567 367.567 312 369.5 312C371.433 312 373 313.567 373 315.5V419.5C373 421.433 371.433 423 369.5 423C367.567 423 366 421.433 366 419.5V315.5Z" fill="#8280FF"/>
<rect x="415.534" y="458.457" width="7.96586" height="31.3053" rx="3.98293" fill="#00B69B"/>
<rect x="466.603" y="331.901" width="7.96586" height="18.2148" rx="3.98293" fill="#00B69B"/>
<path d="M466.603 234.429C466.603 232.229 468.386 230.446 470.586 230.446C472.786 230.446 474.569 232.229 474.569 234.429V349.919C474.569 352.118 472.786 353.902 470.586 353.902C468.386 353.902 466.603 352.118 466.603 349.919V234.429Z" fill="#8280FF"/>
<path d="M521 460C521 462.209 522.791 464 525 464C527.209 464 529 462.209 529 460V386C529 383.791 527.209 382 525 382C522.791 382 521 383.791 521 386V460Z" fill="#8280FF"/>
<path d="M575 522C575 524.209 576.791 526 579 526C581.209 526 583 524.209 583 522V341C583 338.791 581.209 337 579 337C576.791 337 575 338.791 575 341V522Z" fill="#8280FF"/>
<path d="M628 342C628 339.791 629.791 338 632 338C634.209 338 636 339.791 636 342V430C636 432.209 634.209 434 632 434C629.791 434 628 432.209 628 430V342Z" fill="#8280FF"/>
<path d="M683.129 413.791C683.129 415.991 684.912 417.774 687.112 417.774C689.311 417.774 691.095 415.991 691.095 413.791V316.058C691.095 313.858 689.311 312.075 687.112 312.075C684.912 312.075 683.129 313.858 683.129 316.058V413.791Z" fill="#8280FF"/>
<rect x="415.534" y="458.457" width="7.96586" height="81.2534" rx="3.98293" fill="#F22989"/>
<rect x="466.383" y="341" width="7.98943" height="199" rx="3.99472" fill="#F22989"/>
<rect x="521.31" y="446" width="7.98943" height="94" rx="3.99472" fill="#F22989"/>
<rect x="365.517" y="396" width="7.98943" height="144" rx="3.99472" fill="#F22989"/>
<rect x="257.659" y="360" width="7.98943" height="180" rx="3.99472" fill="#F22989"/>
<rect x="202.732" y="350" width="7.98943" height="190" rx="3.99472" fill="#F22989"/>
<rect x="150.801" y="379" width="7.98943" height="161" rx="3.99472" fill="#F22989"/>
<rect x="96.3313" y="446.574" width="7.96586" height="93.2868" rx="3.98293" fill="#F22989"/>
<rect x="574.6" y="504.604" width="7.96586" height="35.2563" rx="3.98293" fill="#F22989"/>
<rect x="628.169" y="404" width="7.98943" height="136" rx="3.99472" fill="#F22989"/>
<rect x="683.096" y="413" width="7.98943" height="127" rx="3.99472" fill="#F22989"/>
<rect x="311.794" y="395.774" width="7.96586" height="144.086" rx="3.98293" fill="#F22989"/>
<defs>
<filter id="filter0_d_10_218" x="548.029" y="55.4557" width="126.152" height="34.9608" filterUnits="userSpaceOnUse" color-interpolation-filters="sRGB">
<feFlood flood-opacity="0" result="BackgroundImageFix"/>
<feColorMatrix in="SourceAlpha" type="matrix" values="0 0 0 0 0 0 0 0 0 0 0 0 0 0 0 0 0 0 127 0" result="hardAlpha"/>
<feOffset dx="1" dy="1"/>
<feGaussianBlur stdDeviation="0.5"/>
<feComposite in2="hardAlpha" operator="out"/>
<feColorMatrix type="matrix" values="0 0 0 0 0.06125 0 0 0 0 0.0969792 0 0 0 0 0.204167 0 0 0 0.4 0"/>
<feBlend mode="normal" in2="BackgroundImageFix" result="effect1_dropShadow_10_218"/>
<feBlend mode="normal" in="SourceGraphic" in2="effect1_dropShadow_10_218" result="shape"/>
</filter>
</defs>
</svg>
