<svg width="58" height="16" viewBox="0 0 58 16" fill="none" xmlns="http://www.w3.org/2000/svg">
<path d="M3.75714 12.8339V2.77708H6.29975V12.8339H3.75714ZM3.3319e-05 9.07679V6.53418H10.0569V9.07679H3.3319e-05ZM17.6332 15.0498V12.8339L22.8108 8.03986C23.2511 7.61372 23.6204 7.2302 23.9187 6.88929C24.2217 6.54838 24.4514 6.21458 24.6076 5.88787C24.7639 5.55643 24.842 5.19895 24.842 4.81543C24.842 4.38929 24.7449 4.02234 24.5508 3.71458C24.3567 3.40208 24.0915 3.16297 23.7554 2.99725C23.4192 2.82679 23.038 2.74157 22.6119 2.74157C22.1668 2.74157 21.7786 2.83153 21.4471 3.01145C21.1157 3.19138 20.86 3.44943 20.6801 3.7856C20.5002 4.12177 20.4102 4.52187 20.4102 4.98588H17.4912C17.4912 4.03418 17.7066 3.20795 18.1375 2.50719C18.5683 1.80643 19.172 1.26429 19.9485 0.88077C20.7251 0.497247 21.6199 0.305486 22.6332 0.305486C23.6749 0.305486 24.5816 0.490145 25.3534 0.859463C26.1299 1.22405 26.7336 1.73068 27.1645 2.37935C27.5953 3.02802 27.8108 3.7714 27.8108 4.60946C27.8108 5.15871 27.7019 5.70085 27.4841 6.23588C27.271 6.77092 26.8898 7.36515 26.3406 8.01855C25.7913 8.66723 25.0172 9.44611 24.0181 10.3552L21.8946 12.4362V12.5356H28.0025V15.0498H17.6332ZM30.2309 15.0498V12.8339L35.4084 8.03986C35.8488 7.61372 36.2181 7.2302 36.5164 6.88929C36.8194 6.54838 37.049 6.21458 37.2053 5.88787C37.3615 5.55643 37.4397 5.19895 37.4397 4.81543C37.4397 4.38929 37.3426 4.02234 37.1485 3.71458C36.9543 3.40208 36.6892 3.16297 36.353 2.99725C36.0168 2.82679 35.6357 2.74157 35.2096 2.74157C34.7645 2.74157 34.3762 2.83153 34.0448 3.01145C33.7133 3.19138 33.4577 3.44943 33.2777 3.7856C33.0978 4.12177 33.0078 4.52187 33.0078 4.98588H30.0888C30.0888 4.03418 30.3042 3.20795 30.7351 2.50719C31.166 1.80643 31.7697 1.26429 32.5462 0.88077C33.3227 0.497247 34.2176 0.305486 35.2309 0.305486C36.2725 0.305486 37.1792 0.490145 37.951 0.859463C38.7275 1.22405 39.3312 1.73068 39.7621 2.37935C40.193 3.02802 40.4084 3.7714 40.4084 4.60946C40.4084 5.15871 40.2995 5.70085 40.0817 6.23588C39.8686 6.77092 39.4875 7.36515 38.9382 8.01855C38.389 8.66723 37.6149 9.44611 36.6158 10.3552L34.4922 12.4362V12.5356H40.6002V15.0498H30.2309ZM50.7902 12.3225V11.5555C50.7902 10.9731 50.9133 10.4381 51.1595 9.95037C51.4104 9.45795 51.7726 9.06496 52.2461 8.7714C52.7243 8.4731 53.3067 8.32395 53.9933 8.32395C54.6893 8.32395 55.2741 8.47073 55.7475 8.76429C56.2258 9.05785 56.5856 9.45085 56.8271 9.94327C57.0733 10.431 57.1964 10.9684 57.1964 11.5555V12.3225C57.1964 12.9049 57.0733 13.4423 56.8271 13.9347C56.5809 14.4224 56.2187 14.8131 55.7404 15.1066C55.2622 15.4049 54.6798 15.5541 53.9933 15.5541C53.2973 15.5541 52.7125 15.4049 52.239 15.1066C51.7655 14.8131 51.4057 14.4224 51.1595 13.9347C50.9133 13.4423 50.7902 12.9049 50.7902 12.3225ZM52.8569 11.5555V12.3225C52.8569 12.6587 52.9374 12.9759 53.0984 13.2742C53.2641 13.5725 53.5624 13.7217 53.9933 13.7217C54.4242 13.7217 54.7177 13.5749 54.874 13.2813C55.035 12.9878 55.1154 12.6682 55.1154 12.3225V11.5555C55.1154 11.2098 55.0397 10.8879 54.8882 10.5896C54.7367 10.2913 54.4384 10.1421 53.9933 10.1421C53.5672 10.1421 53.2712 10.2913 53.1055 10.5896C52.9398 10.8879 52.8569 11.2098 52.8569 11.5555ZM43.3257 3.99867V3.23162C43.3257 2.6445 43.4511 2.1071 43.7021 1.61941C43.953 1.12698 44.3153 0.73399 44.7887 0.44043C45.267 0.146869 45.8446 8.84533e-05 46.5217 8.84533e-05C47.2225 8.84533e-05 47.8096 0.146869 48.2831 0.44043C48.7565 0.73399 49.1164 1.12698 49.3626 1.61941C49.6088 2.1071 49.7319 2.6445 49.7319 3.23162V3.99867C49.7319 4.58579 49.6064 5.12319 49.3555 5.61088C49.1093 6.09857 48.7471 6.4892 48.2689 6.78276C47.7954 7.07158 47.213 7.216 46.5217 7.216C45.8304 7.216 45.2457 7.06922 44.7674 6.77566C44.2939 6.47736 43.9341 6.08674 43.6879 5.60378C43.4464 5.11609 43.3257 4.58105 43.3257 3.99867ZM45.4066 3.23162V3.99867C45.4066 4.34431 45.4871 4.66391 45.6481 4.95747C45.8138 5.25104 46.105 5.39782 46.5217 5.39782C46.9573 5.39782 47.2532 5.25104 47.4095 4.95747C47.5705 4.66391 47.651 4.34431 47.651 3.99867V3.23162C47.651 2.88598 47.5752 2.56401 47.4237 2.26571C47.2722 1.96742 46.9715 1.81827 46.5217 1.81827C46.1003 1.81827 45.8091 1.96979 45.6481 2.27282C45.4871 2.57585 45.4066 2.89545 45.4066 3.23162ZM44.2632 15.0498L54.2632 0.50435H56.124L46.124 15.0498H44.2632Z" fill="#48C889"/>
</svg>
