<svg width="90" height="28" viewBox="0 0 90 28" fill="none" xmlns="http://www.w3.org/2000/svg">
<path d="M9.75437 26.9234C7.8538 26.9234 6.1663 26.6038 4.69187 25.9646C3.22596 25.3254 2.0754 24.4518 1.24017 23.3438C0.413463 22.2274 0.00437242 20.9617 0.0128951 19.547C0.00437242 18.4475 0.243009 17.4376 0.728804 16.5171C1.2146 15.5967 1.87085 14.8296 2.69755 14.216C3.53278 13.5938 4.46176 13.1975 5.48449 13.0271V12.8481C4.1379 12.5498 3.04699 11.8637 2.21176 10.7899C1.38505 9.70747 0.975963 8.45889 0.984486 7.04412C0.975963 5.69753 1.35096 4.49583 2.10949 3.43901C2.86801 2.38219 3.90778 1.55122 5.2288 0.946111C6.54983 0.332474 8.05835 0.025656 9.75437 0.025656C11.4333 0.025656 12.9291 0.332474 14.2416 0.946111C15.5626 1.55122 16.6024 2.38219 17.3609 3.43901C18.128 4.49583 18.5115 5.69753 18.5115 7.04412C18.5115 8.45889 18.0896 9.70747 17.2458 10.7899C16.4106 11.8637 15.3325 12.5498 14.0115 12.8481V13.0271C15.0342 13.1975 15.9547 13.5938 16.7728 14.216C17.5995 14.8296 18.2558 15.5967 18.7416 16.5171C19.2359 17.4376 19.4831 18.4475 19.4831 19.547C19.4831 20.9617 19.0655 22.2274 18.2302 23.3438C17.395 24.4518 16.2444 25.3254 14.7785 25.9646C13.3211 26.6038 11.6464 26.9234 9.75437 26.9234ZM9.75437 23.2671C10.7345 23.2671 11.5868 23.1009 12.3112 22.7686C13.0356 22.4276 13.5981 21.9504 13.9987 21.3367C14.3993 20.7231 14.6038 20.0157 14.6123 19.2146C14.6038 18.3793 14.3865 17.6421 13.9603 17.0029C13.5427 16.3552 12.9674 15.8481 12.2345 15.4816C11.5101 15.1151 10.6833 14.9319 9.75437 14.9319C8.81687 14.9319 7.98165 15.1151 7.24869 15.4816C6.51574 15.8481 5.93619 16.3552 5.51005 17.0029C5.09244 17.6421 4.8879 18.3793 4.89642 19.2146C4.8879 20.0157 5.08392 20.7231 5.48449 21.3367C5.88505 21.9418 6.44755 22.4149 7.17199 22.7558C7.90494 23.0967 8.76574 23.2671 9.75437 23.2671ZM9.75437 11.3396C10.5555 11.3396 11.2629 11.1776 11.8765 10.8538C12.4987 10.5299 12.9887 10.0782 13.3467 9.49867C13.7047 8.91912 13.8879 8.25009 13.8964 7.49157C13.8879 6.74157 13.7089 6.08532 13.3595 5.52282C13.0101 4.95179 12.5243 4.51287 11.9021 4.20605C11.2799 3.89071 10.564 3.73304 9.75437 3.73304C8.92767 3.73304 8.19898 3.89071 7.56829 4.20605C6.94613 4.51287 6.46034 4.95179 6.11091 5.52282C5.77 6.08532 5.6038 6.74157 5.61233 7.49157C5.6038 8.25009 5.77426 8.91912 6.12369 9.49867C6.48165 10.0697 6.9717 10.5214 7.59386 10.8538C8.22454 11.1776 8.94471 11.3396 9.75437 11.3396ZM32.7753 0.025656C34.0282 0.034179 35.2469 0.25577 36.4316 0.69043C37.6248 1.11657 38.6986 1.81543 39.6532 2.78702C40.6077 3.75009 41.3662 5.04128 41.9287 6.6606C42.4912 8.27992 42.7725 10.2828 42.7725 12.6691C42.781 14.9191 42.5424 16.9305 42.0566 18.7032C41.5793 20.4674 40.8932 21.9589 39.9983 23.1776C39.1034 24.3964 38.0253 25.3254 36.764 25.9646C35.5026 26.6038 34.0836 26.9234 32.5069 26.9234C30.8534 26.9234 29.3875 26.5995 28.1091 25.9518C26.8392 25.3041 25.8123 24.4177 25.0282 23.2927C24.2441 22.1677 23.7625 20.8808 23.5836 19.4319H28.2498C28.4884 20.4717 28.9742 21.2984 29.7071 21.912C30.4486 22.5171 31.3819 22.8197 32.5069 22.8197C34.3222 22.8197 35.7199 22.0313 36.7 20.4546C37.6802 18.8779 38.1702 16.6876 38.1702 13.8836H37.9912C37.5736 14.6336 37.0324 15.2813 36.3677 15.8268C35.7029 16.3637 34.9486 16.7771 34.1049 17.0668C33.2696 17.3566 32.3833 17.5015 31.4458 17.5015C29.9117 17.5015 28.531 17.135 27.3037 16.4021C26.085 15.6691 25.1177 14.6634 24.4017 13.385C23.6944 12.1066 23.3364 10.645 23.3279 9.00009C23.3279 7.29554 23.7199 5.76571 24.504 4.4106C25.2966 3.04696 26.4003 1.9731 27.8151 1.18901C29.2299 0.396394 30.8833 0.00861001 32.7753 0.025656ZM32.7881 3.86088C31.8677 3.86088 31.0367 4.08674 30.2952 4.53844C29.5623 4.98162 28.9827 5.58674 28.5566 6.35378C28.139 7.1123 27.9302 7.96032 27.9302 8.89782C27.9387 9.82679 28.1475 10.6705 28.5566 11.4291C28.9742 12.1876 29.5409 12.7884 30.2569 13.2316C30.9813 13.6748 31.808 13.8964 32.737 13.8964C33.4273 13.8964 34.0708 13.7643 34.6674 13.5001C35.264 13.2359 35.7838 12.8694 36.227 12.4007C36.6787 11.9234 37.0282 11.3822 37.2753 10.7771C37.531 10.172 37.6546 9.53276 37.6461 8.85946C37.6461 7.96458 37.433 7.13787 37.0069 6.37935C36.5892 5.62083 36.014 5.01145 35.281 4.55122C34.5566 4.091 33.7256 3.86088 32.7881 3.86088ZM56.1319 26.9234C54.4273 26.9234 52.9017 26.6038 51.5552 25.9646C50.2086 25.3169 49.139 24.4305 48.3463 23.3055C47.5623 22.1805 47.1446 20.8936 47.0935 19.4447H51.6958C51.781 20.5186 52.2455 21.3964 53.0892 22.0782C53.933 22.7515 54.9472 23.0882 56.1319 23.0882C57.0608 23.0882 57.8875 22.8751 58.612 22.449C59.3364 22.0228 59.9074 21.4305 60.325 20.672C60.7427 19.9134 60.9472 19.0484 60.9387 18.0768C60.9472 17.0882 60.7384 16.2103 60.3123 15.4433C59.8861 14.6762 59.3023 14.0754 58.5608 13.6407C57.8194 13.1975 56.9671 12.9759 56.004 12.9759C55.2199 12.9674 54.4486 13.1123 53.6901 13.4106C52.9316 13.7089 52.3307 14.1009 51.8875 14.5867L47.6049 13.8836L48.9728 0.383611H64.1603V4.34668H52.8975L52.1432 11.2884H52.2966C52.7824 10.7174 53.4685 10.2444 54.3549 9.86941C55.2412 9.48588 56.2128 9.29412 57.2696 9.29412C58.8549 9.29412 60.2696 9.66912 61.514 10.4191C62.7583 11.1606 63.7384 12.1833 64.4543 13.4873C65.1702 14.7913 65.5282 16.2828 65.5282 17.9617C65.5282 19.6918 65.1276 21.2345 64.3265 22.5896C63.5338 23.9362 62.4302 24.9972 61.0154 25.7728C59.6091 26.5399 57.9813 26.9234 56.1319 26.9234ZM79.4884 27.064C77.3833 27.064 75.5765 26.5313 74.0679 25.466C72.5679 24.3921 71.4131 22.8453 70.6034 20.8254C69.8023 18.797 69.4017 16.3552 69.4017 13.5001C69.4103 10.645 69.8151 8.216 70.6162 6.21316C71.4259 4.20179 72.5807 2.6677 74.0807 1.61088C75.5892 0.554065 77.3918 0.025656 79.4884 0.025656C81.585 0.025656 83.3875 0.554065 84.8961 1.61088C86.4046 2.6677 87.5594 4.20179 88.3606 6.21316C89.1702 8.22452 89.575 10.6535 89.575 13.5001C89.575 16.3637 89.1702 18.8097 88.3606 20.8382C87.5594 22.858 86.4046 24.4007 84.8961 25.466C83.3961 26.5313 81.5935 27.064 79.4884 27.064ZM79.4884 23.0626C81.1248 23.0626 82.4159 22.2572 83.362 20.6464C84.3165 19.0271 84.7938 16.645 84.7938 13.5001C84.7938 11.4205 84.5765 9.67338 84.1418 8.25861C83.7071 6.84384 83.0935 5.7785 82.3009 5.06259C81.5083 4.33816 80.5708 3.97594 79.4884 3.97594C77.8606 3.97594 76.5736 4.7856 75.6276 6.40492C74.6816 8.01571 74.2043 10.3808 74.1958 13.5001C74.1873 15.5882 74.3961 17.3438 74.8222 18.7671C75.2569 20.1904 75.8705 21.2643 76.6631 21.9887C77.4557 22.7046 78.3975 23.0626 79.4884 23.0626Z" fill="white"/>
</svg>
