<svg width="141" height="16" viewBox="0 0 141 16" fill="none" xmlns="http://www.w3.org/2000/svg">
<path d="M2.19471 0.582475V15.1279H0.000111014V0.582475H2.19471ZM7.34386 8.65066V15.1279H5.22028V4.21884H7.25863V5.99441H7.39358C7.64452 5.41676 8.03752 4.95274 8.57255 4.60236C9.11233 4.25198 9.79178 4.07679 10.6109 4.07679C11.3543 4.07679 12.0053 4.23304 12.564 4.54554C13.1227 4.85331 13.556 5.31259 13.8637 5.92338C14.1715 6.53418 14.3254 7.28939 14.3254 8.18901V15.1279H12.2018V8.44469C12.2018 7.65397 11.9958 7.03607 11.5839 6.591C11.172 6.14119 10.6062 5.91628 9.88647 5.91628C9.39405 5.91628 8.95608 6.02282 8.57255 6.23588C8.19377 6.44895 7.8931 6.76145 7.67057 7.17338C7.45276 7.58058 7.34386 8.07301 7.34386 8.65066ZM30.5701 4.4035C30.4943 3.73115 30.1818 3.21032 29.6326 2.841C29.0833 2.46694 28.392 2.27992 27.5587 2.27992C26.9621 2.27992 26.446 2.37462 26.0104 2.56401C25.5748 2.74867 25.2363 3.00435 24.9948 3.33105C24.758 3.65302 24.6397 4.01997 24.6397 4.43191C24.6397 4.77755 24.7202 5.07585 24.8811 5.32679C25.0469 5.57774 25.2623 5.78844 25.5275 5.9589C25.7973 6.12461 26.0862 6.26429 26.3939 6.37793C26.7017 6.48683 26.9976 6.57679 27.2817 6.64782L28.7022 7.01713C29.1662 7.13077 29.642 7.28465 30.1297 7.47878C30.6174 7.67291 31.0696 7.92859 31.4863 8.24583C31.9029 8.56306 32.2391 8.95605 32.4948 9.4248C32.7552 9.89355 32.8854 10.4546 32.8854 11.108C32.8854 11.9319 32.6723 12.6634 32.2462 13.3026C31.8248 13.9419 31.2116 14.4461 30.4067 14.8154C29.6065 15.1847 28.6383 15.3694 27.5019 15.3694C26.4129 15.3694 25.4706 15.1966 24.6752 14.8509C23.8797 14.5053 23.2571 14.0152 22.8073 13.3808C22.3575 12.7416 22.1089 11.984 22.0615 11.108H24.2633C24.3059 11.6336 24.4763 12.0716 24.7746 12.422C25.0776 12.7676 25.4635 13.0257 25.9323 13.1961C26.4058 13.3618 26.9242 13.4447 27.4877 13.4447C28.1079 13.4447 28.6596 13.3476 29.1425 13.1535C29.6302 12.9546 30.0137 12.68 30.2931 12.3296C30.5724 11.9745 30.7121 11.5602 30.7121 11.0867C30.7121 10.6559 30.589 10.3031 30.3428 10.0285C30.1013 9.75388 29.7722 9.5266 29.3556 9.34668C28.9436 9.16676 28.4773 9.00814 27.9564 8.87083L26.2377 8.40208C25.0729 8.08484 24.1496 7.61846 23.4678 7.00293C22.7907 6.3874 22.4522 5.57301 22.4522 4.55975C22.4522 3.72168 22.6794 2.99014 23.134 2.36514C23.5885 1.74014 24.2041 1.25482 24.9806 0.90918C25.7571 0.558801 26.633 0.383611 27.6084 0.383611C28.5933 0.383611 29.4621 0.556433 30.215 0.902077C30.9725 1.24772 31.5691 1.72357 32.0047 2.32963C32.4403 2.93096 32.6676 3.62225 32.6865 4.4035H30.5701ZM40.4298 4.21884V5.92338H34.471V4.21884H40.4298ZM36.069 1.6052H38.1926V11.9248C38.1926 12.3367 38.2541 12.6469 38.3772 12.8552C38.5003 13.0588 38.659 13.1985 38.8531 13.2742C39.052 13.3453 39.2674 13.3808 39.4994 13.3808C39.6699 13.3808 39.819 13.3689 39.9468 13.3453C40.0747 13.3216 40.1741 13.3026 40.2451 13.2884L40.6287 15.0427C40.5056 15.0901 40.3304 15.1374 40.1031 15.1847C39.8758 15.2368 39.5917 15.2652 39.2508 15.27C38.6921 15.2794 38.1713 15.18 37.6883 14.9717C37.2054 14.7633 36.8147 14.4414 36.5164 14.0058C36.2182 13.5702 36.069 13.0233 36.069 12.3651V1.6052ZM47.2569 15.3481C46.2341 15.3481 45.3416 15.1137 44.5793 14.645C43.817 14.1762 43.2251 13.5204 42.8037 12.6776C42.3823 11.8348 42.1716 10.85 42.1716 9.7231C42.1716 8.59147 42.3823 7.60189 42.8037 6.75435C43.2251 5.90681 43.817 5.24867 44.5793 4.77992C45.3416 4.31117 46.2341 4.07679 47.2569 4.07679C48.2796 4.07679 49.1721 4.31117 49.9344 4.77992C50.6967 5.24867 51.2886 5.90681 51.71 6.75435C52.1314 7.60189 52.3421 8.59147 52.3421 9.7231C52.3421 10.85 52.1314 11.8348 51.71 12.6776C51.2886 13.5204 50.6967 14.1762 49.9344 14.645C49.1721 15.1137 48.2796 15.3481 47.2569 15.3481ZM47.264 13.5654C47.9268 13.5654 48.4761 13.3902 48.9117 13.0399C49.3473 12.6895 49.6693 12.2231 49.8776 11.6407C50.0907 11.0583 50.1972 10.4168 50.1972 9.716C50.1972 9.01997 50.0907 8.38077 49.8776 7.79838C49.6693 7.21126 49.3473 6.74015 48.9117 6.38503C48.4761 6.02992 47.9268 5.85236 47.264 5.85236C46.5963 5.85236 46.0424 6.02992 45.602 6.38503C45.1664 6.74015 44.8421 7.21126 44.629 7.79838C44.4207 8.38077 44.3165 9.01997 44.3165 9.716C44.3165 10.4168 44.4207 11.0583 44.629 11.6407C44.8421 12.2231 45.1664 12.6895 45.602 13.0399C46.0424 13.3902 46.5963 13.5654 47.264 13.5654ZM54.7125 15.1279V4.21884H56.765V5.95179H56.8787C57.0775 5.36467 57.4279 4.90302 57.9298 4.56685C58.4364 4.22594 59.0093 4.05549 59.6485 4.05549C59.7811 4.05549 59.9374 4.06022 60.1173 4.06969C60.302 4.07916 60.4464 4.091 60.5505 4.1052V6.13645C60.4653 6.11278 60.3138 6.08674 60.096 6.05833C59.8782 6.02518 59.6604 6.00861 59.4426 6.00861C58.9407 6.00861 58.4932 6.11515 58.1003 6.32821C57.712 6.53655 57.4042 6.82774 57.177 7.20179C56.9497 7.57111 56.836 7.99251 56.836 8.466V15.1279H54.7125ZM66.6993 15.3481C65.6245 15.3481 64.6989 15.1185 63.9223 14.6592C63.1506 14.1952 62.554 13.5441 62.1326 12.7061C61.7159 11.8633 61.5076 10.876 61.5076 9.74441C61.5076 8.62698 61.7159 7.64213 62.1326 6.78986C62.554 5.93759 63.1411 5.27234 63.8939 4.79412C64.6515 4.3159 65.5369 4.07679 66.5502 4.07679C67.1657 4.07679 67.7623 4.17859 68.34 4.38219C68.9176 4.58579 69.4361 4.90539 69.8954 5.341C70.3546 5.7766 70.7168 6.34242 70.982 7.03844C71.2472 7.72973 71.3797 8.57016 71.3797 9.55975V10.3126H62.7079V8.72168H69.2988C69.2988 8.16297 69.1851 7.66818 68.9579 7.2373C68.7306 6.8017 68.411 6.45842 67.999 6.20747C67.5918 5.95653 67.1136 5.83105 66.5644 5.83105C65.9678 5.83105 65.447 5.97783 65.0019 6.2714C64.5615 6.56022 64.2206 6.93901 63.9792 7.40776C63.7424 7.87177 63.624 8.37604 63.624 8.92054V10.1634C63.624 10.8926 63.7519 11.5129 64.0076 12.0242C64.268 12.5356 64.6302 12.9262 65.0942 13.1961C65.5582 13.4613 66.1004 13.5938 66.7206 13.5938C67.1231 13.5938 67.49 13.537 67.8215 13.4234C68.1529 13.305 68.4394 13.1298 68.6809 12.8978C68.9223 12.6658 69.107 12.3794 69.2348 12.0384L71.2448 12.4007C71.0838 12.9925 70.795 13.511 70.3783 13.9561C69.9664 14.3964 69.4479 14.7397 68.8229 14.9859C68.2026 15.2274 67.4948 15.3481 66.6993 15.3481ZM80.4706 0.582475L84.5189 12.4291H84.6823L88.7306 0.582475H91.1027L85.8684 15.1279H83.3329L78.0985 0.582475H80.4706ZM93.0328 15.1279V4.21884H95.1564V15.1279H93.0328ZM94.1052 2.5356C93.7359 2.5356 93.4187 2.41249 93.1535 2.16628C92.8931 1.91533 92.7629 1.61704 92.7629 1.27139C92.7629 0.921016 92.8931 0.622721 93.1535 0.376508C93.4187 0.125562 93.7359 8.84533e-05 94.1052 8.84533e-05C94.4745 8.84533e-05 94.7894 0.125562 95.0498 0.376508C95.315 0.622721 95.4476 0.921016 95.4476 1.27139C95.4476 1.61704 95.315 1.91533 95.0498 2.16628C94.7894 2.41249 94.4745 2.5356 94.1052 2.5356ZM106.188 6.88219L104.263 7.2231C104.183 6.97689 104.055 6.74251 103.88 6.51997C103.709 6.29744 103.477 6.11515 103.184 5.9731C102.89 5.83105 102.523 5.76003 102.083 5.76003C101.482 5.76003 100.98 5.89497 100.577 6.16486C100.175 6.43001 99.9735 6.77329 99.9735 7.19469C99.9735 7.55927 100.108 7.85283 100.378 8.07537C100.648 8.29791 101.084 8.4802 101.685 8.62225L103.418 9.01997C104.422 9.25198 105.17 9.60946 105.662 10.0924C106.155 10.5754 106.401 11.2027 106.401 11.9745C106.401 12.6279 106.212 13.2103 105.833 13.7217C105.459 14.2283 104.936 14.626 104.263 14.9149C103.596 15.2037 102.821 15.3481 101.941 15.3481C100.719 15.3481 99.7225 15.0877 98.9508 14.5669C98.179 14.0413 97.7055 13.2955 97.5303 12.3296L99.5829 12.0171C99.7107 12.5522 99.9735 12.957 100.371 13.2316C100.769 13.5015 101.287 13.6365 101.927 13.6365C102.623 13.6365 103.179 13.492 103.596 13.2032C104.012 12.9097 104.221 12.5522 104.221 12.1308C104.221 11.7899 104.093 11.5034 103.837 11.2714C103.586 11.0394 103.2 10.8642 102.679 10.7458L100.833 10.341C99.8149 10.109 99.062 9.73967 98.5743 9.23304C98.0914 8.72641 97.8499 8.08484 97.8499 7.30833C97.8499 6.66439 98.0298 6.10094 98.3897 5.61799C98.7495 5.13503 99.2467 4.75861 99.8811 4.48872C100.516 4.2141 101.242 4.07679 102.062 4.07679C103.241 4.07679 104.169 4.33248 104.846 4.84384C105.523 5.35047 105.97 6.02992 106.188 6.88219ZM108.736 15.1279V4.21884H110.859V15.1279H108.736ZM109.808 2.5356C109.439 2.5356 109.122 2.41249 108.857 2.16628C108.596 1.91533 108.466 1.61704 108.466 1.27139C108.466 0.921016 108.596 0.622721 108.857 0.376508C109.122 0.125562 109.439 8.84533e-05 109.808 8.84533e-05C110.178 8.84533e-05 110.493 0.125562 110.753 0.376508C111.018 0.622721 111.151 0.921016 111.151 1.27139C111.151 1.61704 111.018 1.91533 110.753 2.16628C110.493 2.41249 110.178 2.5356 109.808 2.5356ZM121.891 6.88219L119.966 7.2231C119.886 6.97689 119.758 6.74251 119.583 6.51997C119.412 6.29744 119.18 6.11515 118.887 5.9731C118.593 5.83105 118.226 5.76003 117.786 5.76003C117.185 5.76003 116.683 5.89497 116.28 6.16486C115.878 6.43001 115.677 6.77329 115.677 7.19469C115.677 7.55927 115.812 7.85283 116.081 8.07537C116.351 8.29791 116.787 8.4802 117.388 8.62225L119.121 9.01997C120.125 9.25198 120.873 9.60946 121.366 10.0924C121.858 10.5754 122.104 11.2027 122.104 11.9745C122.104 12.6279 121.915 13.2103 121.536 13.7217C121.162 14.2283 120.639 14.626 119.966 14.9149C119.299 15.2037 118.525 15.3481 117.644 15.3481C116.422 15.3481 115.426 15.0877 114.654 14.5669C113.882 14.0413 113.409 13.2955 113.233 12.3296L115.286 12.0171C115.414 12.5522 115.677 12.957 116.074 13.2316C116.472 13.5015 116.991 13.6365 117.63 13.6365C118.326 13.6365 118.882 13.492 119.299 13.2032C119.715 12.9097 119.924 12.5522 119.924 12.1308C119.924 11.7899 119.796 11.5034 119.54 11.2714C119.289 11.0394 118.903 10.8642 118.383 10.7458L116.536 10.341C115.518 10.109 114.765 9.73967 114.277 9.23304C113.795 8.72641 113.553 8.08484 113.553 7.30833C113.553 6.66439 113.733 6.10094 114.093 5.61799C114.453 5.13503 114.95 4.75861 115.584 4.48872C116.219 4.2141 116.946 4.07679 117.765 4.07679C118.944 4.07679 119.872 4.33248 120.549 4.84384C121.226 5.35047 121.673 6.02992 121.891 6.88219ZM129.531 4.21884V5.92338H123.573V4.21884H129.531ZM125.171 1.6052H127.294V11.9248C127.294 12.3367 127.356 12.6469 127.479 12.8552C127.602 13.0588 127.761 13.1985 127.955 13.2742C128.154 13.3453 128.369 13.3808 128.601 13.3808C128.771 13.3808 128.921 13.3689 129.048 13.3453C129.176 13.3216 129.276 13.3026 129.347 13.2884L129.73 15.0427C129.607 15.0901 129.432 15.1374 129.205 15.1847C128.977 15.2368 128.693 15.2652 128.352 15.27C127.794 15.2794 127.273 15.18 126.79 14.9717C126.307 14.7633 125.916 14.4414 125.618 14.0058C125.32 13.5702 125.171 13.0233 125.171 12.3651V1.6052ZM139.879 6.88219L137.955 7.2231C137.874 6.97689 137.746 6.74251 137.571 6.51997C137.401 6.29744 137.169 6.11515 136.875 5.9731C136.582 5.83105 136.215 5.76003 135.774 5.76003C135.173 5.76003 134.671 5.89497 134.269 6.16486C133.866 6.43001 133.665 6.77329 133.665 7.19469C133.665 7.55927 133.8 7.85283 134.07 8.07537C134.34 8.29791 134.775 8.4802 135.377 8.62225L137.109 9.01997C138.113 9.25198 138.861 9.60946 139.354 10.0924C139.846 10.5754 140.092 11.2027 140.092 11.9745C140.092 12.6279 139.903 13.2103 139.524 13.7217C139.15 14.2283 138.627 14.626 137.955 14.9149C137.287 15.2037 136.513 15.3481 135.632 15.3481C134.411 15.3481 133.414 15.0877 132.642 14.5669C131.87 14.0413 131.397 13.2955 131.222 12.3296L133.274 12.0171C133.402 12.5522 133.665 12.957 134.063 13.2316C134.46 13.5015 134.979 13.6365 135.618 13.6365C136.314 13.6365 136.87 13.492 137.287 13.2032C137.704 12.9097 137.912 12.5522 137.912 12.1308C137.912 11.7899 137.784 11.5034 137.529 11.2714C137.278 11.0394 136.892 10.8642 136.371 10.7458L134.524 10.341C133.506 10.109 132.753 9.73967 132.266 9.23304C131.783 8.72641 131.541 8.08484 131.541 7.30833C131.541 6.66439 131.721 6.10094 132.081 5.61799C132.441 5.13503 132.938 4.75861 133.573 4.48872C134.207 4.2141 134.934 4.07679 135.753 4.07679C136.932 4.07679 137.86 4.33248 138.537 4.84384C139.214 5.35047 139.662 6.02992 139.879 6.88219Z" fill="white"/>
</svg>
